<ttFont>
          <CharString index="0">
            -8 581 rmoveto
            -20 -75 -11 -79 -73 vvcurveto
            -233 114 -140 190 252 262 246 336 114 vhcurveto
            31 90 21 104 99 vvcurveto
            185 -74 163 -225 -278 -283 -265 -358 -93 vhcurveto
            288 -550 rmoveto
            -90 callsubr
            -26 callsubr
            hvcurveto
            -62 callsubr
            return
          </CharString>
          <CharString index="1">
            -83 callgsubr
            266 176 343 195 vhcurveto
            51 92 -26 -85 callsubr
            -307 102 callgsubr
            -181 -64 callgsubr
            274 34 hvcurveto
            return
          </CharString>
          <CharString index="2">
            -73 callsubr
            195 vhcurveto
            52 92 -27 -6 callsubr
            return
          </CharString>
          <CharString index="3">
            606 894 rmoveto
            -3 9 15 -3 13 hhcurveto
            19 10 5 88 callsubr
            -18 -13 -18 -3 -3 -6 hvcurveto
            -55 32 -33 79 104 vvcurveto
            241 174 202 208 118 66 -65 -119 -118 -65 -111 -103 -59 vhcurveto
            14 -30 rlineto
            134 77 86 105 127 vvcurveto
            return
          </CharString>
          <CharString index="4">
            1396 1611 rmoveto
            -106 -170 -175 -24 -65 -150 -104 131 -156 hhcurveto
            -132 -60 -71 -328 -185 -44 callgsubr
            279 157 69 33 65 110 160 -118 142 hhcurveto
            88 160 51 69 124 hvcurveto
            -515 -644 rlineto
            -355 -40 324 hlineto
            -644 -805 23 -38 rlineto
            99 111 -9 31 81 164 199 -130 235 hhcurveto
            97 96 23 99 105 hvcurveto
            84 79 80 117 109 183 55 92 rcurveline
            -26 19 -55 -92 -98 -165 -93 -129 -76 -68 rlinecurve
            -54 -61 -47 -14 -46 -144 -265 134 -191 hhcurveto
            -52 -38 -11 -15 -33 hvcurveto
            514 645 rlineto
            340 40 -309 hlineto
            563 707 rlineto
            return
          </CharString>
          <CharString index="5">
            78 33 20 9 38 vvcurveto
            39 -21 21 -34 -79 -68 -114 -135 -185 128 -105 225 343 219 245 585 212 vhcurveto
            165 457 30 81 36 53 13 20 16 18 18 19 rrcurveto
            -1 19 18 0 19 hhcurveto
            233 175 67 89 29 -17 9 -57 -111 -117 -37 -61 -107 hvcurveto
            8 -247 -219 68 -239 hhcurveto
            -297 -164 -104 -187 -141 94 -85 155 92 108 30 50 87 hvcurveto
            -20 24 rlineto
            -42 -75 -104 -29 -86 hhcurveto
            -125 -85 61 130 130 86 88 236 210 228 -69 -22 235 hvcurveto
            -76 -64 -66 -77 -46 -84 rrcurveto
            return
          </CharString>
          <CharString index="6">
            -79 callgsubr
            194 81 callsubr
            -315 -179 -147 -155 -41 callgsubr
            -102 -48 59 92 83 38 return
          </CharString>
          <CharString index="7">
            340 589 rmoveto
            37 -27 11 -39 -154 -120 -172 -210 -195 104 -107 178 148 121 73 180 130 vhcurveto
            100 137 106 201 99 205 rrcurveto
            421 hlineto
            -74 -218 -67 -208 -118 vvcurveto
            return
          </CharString>
          <CharString index="8">
            751 945 rmoveto
            54 36 38 58 39 -17 38 -30 30 hvcurveto
            37 -37 -55 19 -71 hhcurveto
            -271 -269 -265 -357 -95 hvcurveto
            -20 -77 -11 -78 -71 vvcurveto
            -242 126 -133 247 273 230 163 338 4 callgsubr
            -303 -171 -230 -167 -247 hhcurveto
            -168 -69 78 197 394 290 464 246 65 58 -32 -36 -8 -3 -5 -6 -2 -2 0 3 -7 hvcurveto
            3 -7 -6 1 -6 hhcurveto
            -37 -25 -29 -43 hvcurveto
            return
          </CharString>
          <CharString index="9">
            136 -116 96 -164 -257 -210 -192 -235 -121 56 -100 99 -56 vhcurveto
            -331 -30 -228 -215 -295 vvcurveto
            -246 157 -156 255 return
          </CharString>
          <CharString index="10">
            1183 1197 rmoveto
            -90 -101 -79 -30 -70 -142 -119 26 callgsubr
            177 -130 145 hhcurveto
            82 83 35 54 84 hvcurveto
            -1007 -1053 23 -38 rlineto
            90 101 4 40 70 146 210 -130 155 hhcurveto
            134 91 23 99 104 hvcurveto
            83 52 callsubr
            -54 -57 -52 -14 -62 -99 -247 134 -181 hhcurveto
            -39 -32 -8 -12 -29 hvcurveto
            937 972 rlineto
            return
          </CharString>
          <CharString index="11">
            -130 86 -110 168 205 154 164 337 4 callgsubr
            -313 -177 -152 -157 -172 hhcurveto
            -107 -48 61 81 hvcurveto
            176 224 371 226 vvcurveto
            140 -86 118 -167 -186 -144 -144 -305 -180 vhcurveto
            return
          </CharString>
          <CharString index="12">
            67 22 60 -6 55 vvcurveto
            938 766 rmoveto
            171 89 52 47 88 hhcurveto
            57 38 -19 -94 -145 -91 -262 -87 -255 hvcurveto
            -415 hlineto
            102 211 94 209 73 137 rrcurveto
            return
          </CharString>
          <CharString index="13">
            6 callgsubr
            -394 -1086 rlineto
            148 hlineto
            357 982 50 88 rlineto
            315 178 160 187 160 hhcurveto
            92 64 -66 -113 hvcurveto
            -238 -365 -696 -256 vvcurveto
            return
          </CharString>
          <CharString index="14">
            1382 966 rmoveto
            187 157 103 163 157 vvcurveto
            93 -36 73 -126 -93 -105 -42 -89 -91 vhcurveto
            -164 -161 -89 -276 -168 -401 -107 -257 -77 -158 -83 -95 rrcurveto
            22 -84 -101 22 -110 hhcurveto
            -102 -136 -19 -95 -49 38 -50 167 122 106 27 58 98 hvcurveto
            return
          </CharString>
          <CharString index="15">
            -292 -66 -228 -114 -235 vvcurveto
            -156 99 -110 204 294 191 231 499 191 vhcurveto
            141 29 151 36 153 48 rrcurveto
            -55 -155 -31 -159 -147 vvcurveto
            -201 58 -181 215 205 172 163 358 203 vhcurveto
            51 92 -26 120 callgsubr
            -184 -169 -167 -183 hhcurveto
            -96 -59 46 202 186 50 218 80 204 hvcurveto
            89 34 90 39 86 45 rrcurveto
            237 124 236 183 189 vvcurveto
            return
          </CharString>
          <CharString index="16">
            -165 -116 -172 -135 -263 hhcurveto
            -168 -141 55 38 -101 hvcurveto
            158 128 135 221 125 340 150 409 37 101 46 68 39 59 68 65 72 36 rrcurveto
            230 -74 113 -175 -284 vvcurveto
            return
          </CharString>
          <CharString index="17">
            -112 -55 78 158 93 19 120 33 113 hvcurveto
            338 98 212 233 207 hhcurveto
            145 43 -108 -129 return
          </CharString>
          <CharString index="18">
            -147 74 -94 200 209 145 167 354 201 vhcurveto
            -92 callgsubr
            -326 -184 -142 -165 -177 hhcurveto
            -107 -45 62 95 hvcurveto
            336 355 568 262 vvcurveto
            return
          </CharString>
          <CharString index="19">
            -75 callgsubr
            -254 -93 -126 -110 -84 callgsubr
            return
          </CharString>
          <CharString index="20">
            -31 callsubr
            73 96 16 26 88 hvcurveto
            -99 -66 -75 -92 -63 -110 -81 -142 -70 -178 -180 -472 -63 -165 -55 -136 -54 -114 rrcurveto
            -599 -55 -237 -99 -193 vvcurveto
            -142 90 -80 159 294 226 58 callgsubr
            -51 -92 -175 -309 -132 -105 -390 -30 rlinecurve
            82 153 78 183 76 216 rrcurveto
            -975 -1086 rmoveto
            -128 18 callgsubr
            -235 hhcurveto
            return
          </CharString>
          <CharString index="21">
            -35 -104 -19 -106 -93 vvcurveto
            -172 67 -128 164 return
          </CharString>
          <CharString index="22">
            -65 callsubr
            rlineto
            return
          </CharString>
          <CharString index="23">
            -60 callsubr
            -37 -56 -20 -47 -135 -334 rrcurveto
            -165 hlineto
            1085 209 24 callgsubr
            142 115 124 191 115 286 rrcurveto
            366 hlineto
            36 93 rlineto
            -367 hlineto
            152 413 37 101 46 68 39 59 68 65 72 36 rrcurveto
            230 -74 113 -175 -284 vvcurveto
            hintmask 0111111110000000
            -1570 -999 2 callsubr
          </CharString>
          <CharString index="24">
            144 -49 97 -151 -220 -326 -186 -434 -145 vhcurveto
            return
          </CharString>
          <CharString index="25">
            -217 hmoveto
            148 hlineto
            210 574 52 92 rlineto
            326 184 145 162 169 hhcurveto
            109 48 -68 -90 hvcurveto
            -192 -224 -373 -210 vvcurveto
            return
          </CharString>
          <CharString index="26">
            -41 callgsubr
            -101 -49 59 92 83 38 116 38 104 hvcurveto
            255 700 59 callgsubr
            return
          </CharString>
          <CharString index="27">
            371 142 285 240 287 hhcurveto
            156 49 -82 -97 -109 -54 -139 -45 -45 hvcurveto
            -1011 -1576 rmoveto
            -148 -76 57 105 225 343 56 423 36 hvcurveto
            -353 -173 -149 -126 -220 hhcurveto
            return
          </CharString>
          <CharString index="28">
            -136 89 -108 164 209 147 173 348 197 vhcurveto
            -92 callgsubr
            return
          </CharString>
          <CharString index="29">
            329 136 147 150 116 hhcurveto
            return
          </CharString>
          <CharString index="30">
            rmoveto
            -32 callgsubr
            return
          </CharString>
          <CharString index="31">
            -85 callgsubr
            -78 callsubr
            return
          </CharString>
          <CharString index="32">
            26 -86 -93 15 -109 hhcurveto
            -102 -140 -13 -95 -49 37 -51 164 116 105 26 56 97 hvcurveto
            return
          </CharString>
          <CharString index="33">
            rmoveto
            -140 -28 28 35 47 49 18 67 103 148 -43 -17 54 hvcurveto
            -54 -74 -80 -14 -99 hhcurveto
            return
          </CharString>
          <CharString index="34">
            -88 callgsubr
            208 152 157 344 return
          </CharString>
          <CharString index="35">
            54 -437 -21 439 -54 callgsubr
            hstem
            652 121 vstem
            -235 -458 rmoveto
            193 531 rlineto
            -58 42 68 -34 93 hhcurveto
            195 146 -6 callgsubr
            hvcurveto
            -19 -64 -8 callgsubr
            -149 hlineto
            -217 90 callsubr
            -102 -48 59 92 83 38 116 38 104 hvcurveto
            255 700 59 callgsubr
            -599 -1643 rlineto
            endchar
          </CharString>
          <CharString index="36">
            1606 1609 rmoveto
            -38 -110 -69 -22 -125 hhcurveto
            return
          </CharString>
          <CharString index="37">
            -38 -68 -24 -60 -177 -451 rrcurveto
            -535 -210 -102 -104 -246 hhcurveto
            -199 -99 85 163 68 18 26 39 17 hvcurveto
            return
          </CharString>
          <CharString index="38">
            50 1133 40 return
          </CharString>
          <CharString index="39">
            30 215 -38 callgsubr
            -15 26 return
          </CharString>
          <CharString index="40">
            -40 callsubr
            -58 -34 -51 -45 -52 44 -37 45 hvcurveto
            return
          </CharString>
          <CharString index="41">
            -62 callgsubr
            -57 return
          </CharString>
          <CharString index="42">
            19 -52 -92 return
          </CharString>
          <CharString index="43">
            -48 callsubr
            101 callgsubr
            46 -33 38 -42 -41 -33 -38 -47 vhcurveto
            endchar
          </CharString>
          <CharString index="44">
            168 -139 53 -123 -386 -369 -355 -486 -123 vhcurveto
            -26 -102 -13 -103 -89 vvcurveto
            -325 171 -188 296 vhcurveto
            return
          </CharString>
          <CharString index="45">
            -326 -115 -216 -229 -192 hhcurveto
            return
          </CharString>
          <CharString index="46">
            -55 callgsubr
            -5 -12 return
          </CharString>
          <CharString index="47">
            -75 callsubr
            hintmask 0111111110000000
            -34 88 152 -49 187 hhcurveto
            306 228 133 171 157 hvcurveto
            158 172 111 240 254 vvcurveto
            408 -286 271 -501 -483 -347 -252 -378 -155 57 -93 119 -57 vhcurveto
            13 21 rlineto
            -98 62 -14 114 90 vvcurveto
            438 332 172 426 104 91 -11 -20 79 vhcurveto
            -155 -67 -134 -159 -59 -90 return
          </CharString>
          <CharString index="48">
            -29 callgsubr
            69 -150 return
          </CharString>
          <CharString index="49">
            -495 21 39 callgsubr
            519 -20 hstemhm
            631 182 hintmask 11101100
            -76 callgsubr
            hintmask 11011100
            -47 callsubr
            hintmask 11101100
            -7 callgsubr
            return
          </CharString>
          <CharString index="50">
            66 callsubr
            97 -19 callgsubr
            return
          </CharString>
          <CharString index="51">
            rmoveto
            -169 -54 -182 -106 -33 hvcurveto
            43 hlineto
            41 13 43 -60 callgsubr
            -44 hlineto
            -65 return
          </CharString>
          <CharString index="52">
            31 215 140 117 vvcurveto
            31 -15 26 return
          </CharString>
          <CharString index="53">
            -85 callsubr
            -65 callgsubr
            return
          </CharString>
          <CharString index="54">
            rmoveto
            90 -51 callsubr
            return
          </CharString>
          <CharString index="55">
            -104 callsubr
            -98 callsubr
            return
          </CharString>
          <CharString index="56">
            -55 callsubr
            -32 -57 -4 -77 -109 -80 vhcurveto
            -47 -63 -57 -51 -41 -20 rrcurveto
            return
          </CharString>
          <CharString index="57">
            -66 callsubr
            -4 -37 callsubr
            return
          </CharString>
          <CharString index="58">
            -19 -54 callgsubr
            return
          </CharString>
          <CharString index="59">
            101 callgsubr
            46 -33 38 -42 -41 -33 -38 -47 vhcurveto
            79 callgsubr
            return
          </CharString>
          <CharString index="60">
            175 480 59 callgsubr
            -432 -1185 rlineto
            149 hlineto
            189 522 50 88 rlineto
            return
          </CharString>
          <CharString index="61">
            279 157 69 33 64 111 160 -118 142 hhcurveto
            87 161 51 69 124 hvcurveto
            -515 -644 rlineto
            -356 -40 324 hlineto
            -643 -805 23 -38 rlineto
            99 110 -8 31 81 163 199 -130 236 hhcurveto
            97 96 23 99 105 hvcurveto
            84 79 80 117 109 183 54 92 rcurveline
            -25 19 -55 -92 -98 -165 -93 -129 -77 -68 rlinecurve
            return
          </CharString>
          <CharString index="62">
            rmoveto
            31 14 -4 -8 -26 -146 -27 -152 -5 hvcurveto
            43 80 90 27 83 hhcurveto
            return
          </CharString>
          <CharString index="63">
            -36 callsubr
            -64 -112 -102 return
          </CharString>
          <CharString index="64">
            rmoveto
            -52 callgsubr
            return
          </CharString>
          <CharString index="65">
            -65 callgsubr
            -177 hhcurveto
            return
          </CharString>
          <CharString index="66">
            77 -38 52 -112 -291 -303 -353 -401 -155 vhcurveto
            -154 -50 -153 -38 -140 -31 198 550 26 75 47 60 49 64 107 91 73 15 rrcurveto
            18 vlineto
            return
          </CharString>
          <CharString index="67">
            -43 callsubr
            -45 return
          </CharString>
          <CharString index="68">
            -27 19 -51 -92 return
          </CharString>
          <CharString index="69">
            83 -527 rmoveto
            265 198 -57 callsubr
            -148 hlineto
            -80 -218 rlineto
            return
          </CharString>
          <CharString index="70">
            -77 -108 -80 vhcurveto
            -47 -64 return
          </CharString>
          <CharString index="71">
            -56 callsubr
            -16 return
          </CharString>
          <CharString index="72">
            rmoveto
            -244 -84 -259 -128 -184 vhcurveto
            return
          </CharString>
          <CharString index="73">
            -186 rmoveto
            117 hlineto
            1148 1756 107 callgsubr
            return
          </CharString>
          <CharString index="74">
            6 49 callsubr
            -83 -70 -86 -6 vhcurveto
            return
          </CharString>
          <CharString index="75">
            -20 callgsubr
            222 121 return
          </CharString>
          <CharString index="76">
            83 146 57 callgsubr
            return
          </CharString>
          <CharString index="77">
            vvcurveto
            167 -86 111 -163 -194 -139 -144 -305 -181 vhcurveto
            return
          </CharString>
          <CharString index="78">
            -686 -19 50 1681 -20 hstem
            -88 121 vstem
            -39 485 rmoveto
            -33 -91 -16 -84 -69 vvcurveto
            -105 callsubr
            83 38 116 38 104 hvcurveto
            return
          </CharString>
          <CharString index="79">
            -1107 109 callsubr
            -107 -186 -161 -61 -152 -20 2 -34 rcurveline
            110 12 117 31 95 79 -284 -783 rcurveline
            return
          </CharString>
          <CharString index="80">
            rmoveto
            -79 -126 -46 -73 -181 return
          </CharString>
          <CharString index="81">
            -118 -36 -135 -31 -88 return
          </CharString>
          <CharString index="82">
            rmoveto
            -27 -51 -15 -51 -46 vvcurveto
            -108 76 -82 174 217 157 130 175 134 return
          </CharString>
          <CharString index="83">
            rmoveto
            -60 -4 -60 -88 -109 134 callgsubr
            -84 3 73 -105 136 hhcurveto
            136 79 106 83 4 hvcurveto
            endchar
          </CharString>
          <CharString index="84">
            -527 rmoveto
            168 151 66 callsubr
            98 hvcurveto
            471 1297 59 callgsubr
            return
          </CharString>
          <CharString index="85">
            -73 -527 43 136 144 185 -69 callsubr
            -19 -20 return
          </CharString>
          <CharString index="86">
            -105 hhcurveto
            -60 -34 33 57 13 2 2 7 hvcurveto
            12 6 -6 return
          </CharString>
          <CharString index="87">
            -69 vvcurveto
            -88 callgsubr
            return
          </CharString>
          <CharString index="88">
            49 51 callgsubr
            return
          </CharString>
          <CharString index="89">
            -26 callgsubr
            -46 -157 -159 -177 1 hhcurveto
            -69 -71 callgsubr
            -96 30 -101 27 -93 rrcurveto
            -19 5 113 callsubr
            17 17 4 24 14 hvcurveto
            endchar
          </CharString>
          <CharString index="90">
            -9 -8 vvcurveto
            -54 -82 86 callgsubr
          </CharString>
          <CharString index="91">
            101 -27 93 rrcurveto
            19 return
          </CharString>
          <CharString index="92">
            10 callgsubr
            127 118 133 221 return
          </CharString>
          <CharString index="93">
            30 callgsubr
            -81 -76 rlinecurve
            return
          </CharString>
          <CharString index="94">
            27 108 callgsubr
            return
          </CharString>
          <CharString index="95">
            rmoveto
            90 31 215 140 117 vvcurveto
            121 callgsubr
            -48 93 callgsubr
          </CharString>
          <CharString index="96">
            rmoveto
            -41 110 callsubr
            -80 -4 3 callgsubr
          </CharString>
          <CharString index="97">
            149 13 -195 187 hhcurveto
            159 66 141 139 39 hvcurveto
            -44 hlineto
            -64 return
          </CharString>
          <CharString index="98">
            32 -36 41 101 callgsubr
            47 return
          </CharString>
          <CharString index="99">
            -41 callgsubr
            -102 -48 59 92 83 38 115 38 105 hvcurveto
            446 1227 59 callgsubr
            -272 -749 rlineto
            return
          </CharString>
          <CharString index="100">
            -85 callsubr
            -315 return
          </CharString>
          <CharString index="101">
            -7 callsubr
            -179 -147 -155 -41 callgsubr
            -102 -48 59 92 return
          </CharString>
          <CharString index="102">
            99 callsubr
            -46 -16 callgsubr
          </CharString>
          <CharString index="103">
            42 14 56 19 53 vvcurveto
            34 -22 20 -34 -77 -69 -114 -133 -182 126 -110 216 323 251 248 582 211 vhcurveto
            165 456 37 99 49 71 51 73 89 77 88 24 rrcurveto
            18 vlineto
            return
          </CharString>
          <CharString index="104">
            -37 callsubr
            -56 88 callgsubr
            return
          </CharString>
          <CharString index="105">
            52 92 -39 callsubr
            rlineto
            return
          </CharString>
          <CharString index="106">
            -116 -110 -219 -146 vvcurveto
            -165 139 -78 160 236 104 168 353 200 vhcurveto
            51 92 -26 -85 callsubr
            -296 -168 -120 -195 -188 hhcurveto
            -98 -73 55 128 hvcurveto
            return
          </CharString>
          <CharString index="107">
            -85 -67 -115 -108 vvcurveto
            -136 110 -40 122 207 146 114 387 218 vhcurveto
            -92 callgsubr
            -324 -183 -152 -146 -164 hhcurveto
            -101 -53 56 81 hvcurveto
            return
          </CharString>
          <CharString index="108">
            hstemhm
            0 43 -43 340 926 124 212 128 return
          </CharString>
          <CharString index="109">
            -74 callsubr
            endchar
          </CharString>
          <CharString index="110">
            rmoveto
            -60 -5 -59 -88 -109 hhcurveto
            -110 98 callgsubr
            return
          </CharString>
          <CharString index="111">
            -56 182 194 -60 153 hhcurveto
            return
          </CharString>
          <CharString index="112">
            35 39 callsubr
            -58 -34 -40 -68 -115 60 -63 106 hvcurveto
            821 1974 rmoveto
            -46 36 -36 46 48 38 37 46 46 137 callgsubr
          </CharString>
          <CharString index="113">
            234 369 281 173 -89 139 -207 return
          </CharString>
          <CharString index="114">
            265 -34 callgsubr
            return
          </CharString>
          <CharString index="115">
            -25 callgsubr
            -88 callgsubr
            208 return
          </CharString>
          <CharString index="116">
            10 -34 -40 9 -55 hhcurveto
            -454 -48 -643 -95 -346 hvcurveto
            8 -12 -9 0 -9 hhcurveto
            -14 -11 -8 -6 -7 9 -6 17 3 6 0 1 5 hvcurveto
            61 -13 57 -72 -83 vvcurveto
            return
          </CharString>
          <CharString index="117">
            vvcurveto
            146 -39 121 -148 -85 callgsubr
            return
          </CharString>
          <CharString index="118">
            -106 callgsubr
            endchar
          </CharString>
          <CharString index="119">
            -5 callgsubr
            -49 hhcurveto
            return
          </CharString>
          <CharString index="120">
            177 -1 hhcurveto
            -53 callgsubr
            return
          </CharString>
          <CharString index="121">
            rmoveto
            -42 20 -56 51 -47 63 rrcurveto
            109 -80 -5 77 -56 hhcurveto
            return
          </CharString>
          <CharString index="122">
            317 -526 44 721 49 1321 -20 return
          </CharString>
          <CharString index="123">
            -15 -26 -30 -117 215 -141 return
          </CharString>
          <CharString index="124">
            -62 -111 -96 -32 -134 -64 -159 hvcurveto
            -472 -188 -228 -99 -112 hhcurveto
            -112 -53 62 99 284 377 688 286 hvcurveto
            endchar
          </CharString>
          <CharString index="125">
            -46 50 callgsubr
          </CharString>
          <CharString index="126">
            vhcurveto
            -47 -158 -159 -176 1 hhcurveto
            -69 150 -167 75 0 vvcurveto
            0 -23 -26 -2 -1 vhcurveto
            154 -97 30 -100 27 -93 rrcurveto
            -20 5 12 -10 return
          </CharString>
          <CharString index="127">
            rmoveto
            -51 41 -40 51 52 42 41 51 51 -42 43 -51 -51 -42 -43 -52 vhcurveto
            endchar
          </CharString>
          <CharString index="128">
            rmoveto
            -169 -54 -183 -105 71 callsubr
            hhcurveto
            return
          </CharString>
          <CharString index="129">
            130 -149 hhcurveto
            -163 return
          </CharString>
          <CharString index="130">
            78 callgsubr
            -106 -186 -161 -61 -153 -20 3 -34 rcurveline
            109 12 118 31 94 79 -283 -783 rcurveline
            endchar
          </CharString>
          <CharString index="131">
            93 319 -20 hstem
            361 93 vstem
            42 594 rmoveto
            319 -320 93 320 320 93 -320 319 -93 -319 -319 hlineto
            return
          </CharString>
          <CharString index="132">
            96 -159 -136 -137 -70 -144 vhcurveto
            47 hlineto
            140 144 34 67 103 55 -80 -88 -100 -73 -107 -133 -11 vhcurveto
            -9 -25 rlineto
            return
          </CharString>
          <CharString index="133">
            47 hlineto
            140 9 93 110 162 hhcurveto
            140 31 -83 -75 -301 -485 -129 -80 -217 hvcurveto
            -43 -117 rlineto
            630 hlineto
            return
          </CharString>
          <CharString index="134">
            111 callgsubr
            252 147 return
          </CharString>
          <CharString index="135">
            159 hvcurveto
            472 188 228 99 112 hhcurveto
            73 73 -43 -142 -64 -22 -170 -75 -152 hvcurveto
            664 571 rmoveto
            57 return
          </CharString>
          <CharString index="136">
            126 -25 103 -58 -27 -24 -22 -24 vhcurveto
            return
          </CharString>
          <CharString index="137">
            rlineto
            315 40 -300 hlineto
            return
          </CharString>
          <CharString index="138">
            148 97 162 139 vvcurveto
            145 -106 47 -136 27 vhcurveto
            508 -11 719 366 hhcurveto
            29 31 -4 -8 28 hvcurveto
            return
          </CharString>
          <CharString index="139">
            -6 8 -2 8 9 vvcurveto
            52 82 71 87 6 vhcurveto
            return
          </CharString>
          <CharString index="140">
            450 143 312 335 276 hhcurveto
            57 49 -14 -27 40 hvcurveto
            -906 -1385 rlineto
            -28 59 -13 77 93 vvcurveto
            return
          </CharString>
          <CharString index="141">
            -33 -165 -21 1756 -20 hstem
            54 -186 rmoveto
            116 hlineto
            1148 1756 rlineto
            -116 hlineto
            endchar
          </CharString>
          <CharString index="142">
            -84 3 73 -104 136 hhcurveto
            136 79 105 83 4 hvcurveto
            endchar
          </CharString>
          <CharString index="143">
            90 40 65 callgsubr
            return
          </CharString>
          <CharString index="144">
            rmoveto
            -60 -5 61 callsubr
            return
          </CharString>
          <CharString index="145">
            90 40 55 callsubr
            106 return
          </CharString>
          <CharString index="146">
            25 31 42 44 -29 27 -46 return
          </CharString>
          <CharString index="147">
            619 40 524 93 25 return
          </CharString>
          <CharString index="148">
            -338 186 133 return
          </CharString>
          <CharString index="149">
            -20 hstem
            525 254 rmoveto
            -381 385 667 408 34 96 -803 -490 459 -467 rlineto
            return
          </CharString>
          <CharString index="150">
            -16 -64 -5 callsubr
          </CharString>
          <CharString index="151">
            12 callsubr
            -76 -37 34 72 return
          </CharString>
          <CharString index="152">
            -28 75 hhcurveto
            117 85 69 94 90 -77 50 -135 hvcurveto
            return
          </CharString>
          <CharString index="153">
            34 39 callsubr
            -57 -35 -40 -68 -37 9 -39 15 -29 hvcurveto
            -51 28 46 -22 68 hhcurveto
            return
          </CharString>
          <CharString index="154">
            -72 -53 -55 -70 -53 -68 30 46 -55 hvcurveto
            return
          </CharString>
          <CharString index="155">
            hstemhm
            0 102 callsubr
            return
          </CharString>
          <CharString index="156">
            -7 2 -9 -8 vvcurveto
            -54 return
          </CharString>
          <CharString index="157">
            175 170 return
          </CharString>
          <CharString index="158">
            6 callsubr
            -334 -216 -359 -279 -180 return
          </CharString>
          <CharString index="159">
            79 83 124 106 176 54 92 rcurveline
            -26 19 -54 -14 callsubr
            return
          </CharString>
          <CharString index="160">
            111 callsubr
            103 121 return
          </CharString>
          <CharString index="161">
            -9 vvcurveto
            -52 -81 -71 -87 -6 vhcurveto
            return
          </CharString>
          <CharString index="162">
            94 40 callsubr
            return
          </CharString>
          <CharString index="163">
            689 -165 -21 186 return
          </CharString>
          <CharString index="164">
            168 333 185 vhcurveto
            9 16 rlineto
            -9 -49 -4 -48 -44 vvcurveto
            -248 137 -128 return
          </CharString>
          <CharString index="165">
            -19 rmoveto
            286 213 213 288 163 hvcurveto
            -92 callgsubr
            -231 return
          </CharString>
          <CharString index="166">
            -37 -38 -47 vhcurveto
            return
          </CharString>
          <CharString index="167">
            -45 callsubr
            endchar
          </CharString>
          <CharString index="168">
            -59 -88 -110 37 callgsubr
            return
          </CharString>
          <CharString index="169">
            83 148 274 226 367 return
          </CharString>
          <CharString index="170">
            -246 -79 -157 -133 -11 vhcurveto
            return
          </CharString>
          <CharString index="171">
            1197 rmoveto
            -90 -101 return
          </CharString>
          <CharString index="172">
            -58 87 61 -3 hvcurveto
            return
          </CharString>
          <CharString index="173">
            147 268 return
          </CharString>
          <CharString index="174">
            64 callsubr
            -79 -30 -70 -142 -119 22 callsubr
            return
          </CharString>
          <CharString index="175">
            rmoveto
            -47 36 -36 46 48 38 37 46 47 137 callgsubr
          </CharString>
          <CharString index="176">
            -5 -23 -15 hvcurveto
            endchar
          </CharString>
          <CharString index="177">
            91 callgsubr
            -149 hlineto
            return
          </CharString>
          <CharString index="178">
            -33 hvcurveto
            43 hlineto
            41 13 43 140 127 return
          </CharString>
          <CharString index="179">
            758 -39 48 -28 64 callgsubr
            return
          </CharString>
          <CharString index="180">
            47 1598 -20 hstemhm
            0 44 -44 203 return
          </CharString>
          <CharString index="181">
            50 -30 -21 1649 -20 return
          </CharString>
          <CharString index="182">
            66 -58 callgsubr
            return
          </CharString>
          <CharString index="183">
            93 callsubr
            1075 72 return
          </CharString>
          <CharString index="184">
            1185 rmoveto
            -61 callgsubr
            return
          </CharString>
          <CharString index="185">
            -42 -112 -56 -18 -136 return
          </CharString>
          <CharString index="186">
            778 94 36 94 return
          </CharString>
          <CharString index="187">
            40 1475 73 -9 69 1 -20 48 callsubr
            342 42 return
          </CharString>
          <CharString index="188">
            vhcurveto
            -2 callsubr
            return
          </CharString>
          <CharString index="189">
            47 38 37 46 46 -38 38 -46 return
          </CharString>
          <CharString index="190">
            -95 -262 rlineto
            -292 return
          </CharString>
          <CharString index="191">
            57 15 37 80 vhcurveto
            -12 return
          </CharString>
          <CharString index="192">
            195 146 138 return
          </CharString>
          <CharString index="193">
            -47 32 -36 41 41 35 37 46 47 -34 38 -41 -41 -33 -38 -47 vhcurveto
            return
          </CharString>
          <CharString index="194">
            -47 33 -36 40 101 callgsubr
            47 -33 38 -42 -40 -34 -38 -47 vhcurveto
            return
          </CharString>
          <CharString index="195">
            11 9 -10 5 return
          </CharString>
          <CharString index="196">
            rrcurveto
            0 29 -25 return
          </CharString>
          <CharString index="197">
            -596 -49 -88 rlineto
            -315 -179 -147 -155 -41 callgsubr
            return
          </CharString>
          <CharString index="198">
            -168 -465 rmoveto
            846 hlineto
            32 92 rlineto
            -846 hlineto
            endchar
          </CharString>
          <CharString index="199">
            -34 38 -41 -41 -33 -38 -47 vhcurveto
            endchar
          </CharString>
          <CharString index="200">
            130 150 return
          </CharString>
          <CharString index="201">
            -20 hstemhm
            0 56 1229 169 86 141 84 115 return
          </CharString>
          <CharString index="202">
            -20 55 callgsubr
            return
          </CharString>
          <CharString index="203">
            -16 callsubr
            -6 -12 return
          </CharString>
          <CharString index="204">
            hstemhm
            -222 62 102 137 return
          </CharString>
          <CharString index="205">
            60 callgsubr
            41 vvcurveto
            return
          </CharString>
          <CharString index="206">
            -112 -102 -135 return
          </CharString>
          <CharString index="207">
            116 hhcurveto
            67 21 return
          </CharString>
          <CharString index="208">
            -526 374 return
          </CharString>
          <CharString index="209">
            47 -47 202 return
          </CharString>
          <CharString index="210">
            -58 callgsubr
            161 167 hstemhm
            -35 156 return
          </CharString>
          <CharString index="211">
            143 221 -214 169 hhcurveto
            176 60 167 return
          </CharString>
          <CharString index="212">
            -42 callgsubr
            813 -20 return
          </CharString>
          <CharString index="213">
            -4 -24 -15 hvcurveto
            endchar
          </CharString>
          <CharString index="214">
            -22 -506 -21 508 50 1114 40 480 47 return
          </CharString>
          <CharString index="215">
            hstemhm
            76 callsubr
            return
          </CharString>
          <CharString index="216">
            rmoveto
            78 callgsubr
            return
          </CharString>
          <CharString index="217">
            19 -57 51 -47 130 callgsubr
            return
          </CharString>
          <CharString index="218">
            hstemhm
            624 121 return
          </CharString>
          <CharString index="219">
            -51 -42 -20 rrcurveto
            return
          </CharString>
          <CharString index="220">
            12 -10 24 hhcurveto
            return
          </CharString>
          <CharString index="221">
            140 39 hvcurveto
            return
          </CharString>
          <CharString index="222">
            173 132 callgsubr
            return
          </CharString>
          <CharString index="223">
            6 -8 1 -8 -9 vvcurveto
            -52 -81 -72 -87 -5 vhcurveto
            return
          </CharString>
          <CharString index="224">
            hvcurveto
            240 660 30 callsubr
            return
          </CharString>
          <CharString index="225">
            rmoveto
            899 hlineto
            36 93 rlineto
            -899 hlineto
            endchar
          </CharString>
          <CharString index="226">
            185 575 146 return
          </CharString>
          <CharString index="227">
            281 -46 46 681 -20 hstemhm
            hintmask 01100000
            83 return
          </CharString>
          <CharString index="228">
            -447 -160 -301 -320 -265 hhcurveto
            return
          </CharString>
          <CharString index="229">
            -57 hvcurveto
            44 hlineto
            90 35 24 123 143 return
          </CharString>
          <CharString index="230">
            123 -56 56 -56 127 108 117 return
          </CharString>
          <CharString index="231">
            -391 rmoveto
            -61 65 68 -29 75 hhcurveto
            116 return
          </CharString>
          <CharString index="232">
            -126 -110 -195 hhcurveto
            return
          </CharString>
          <CharString index="233">
            101 callsubr
            133 50 return
          </CharString>
          <CharString index="234">
            hstemhm
            145 172 -95 95 return
          </CharString>
          <CharString index="235">
            -20 95 168 hstemhm
            return
          </CharString>
          <CharString index="236">
            124 646 76 return
          </CharString>
          <CharString index="237">
            518 124 return
          </CharString>
          <CharString index="238">
            192 vhcurveto
            51 92 -26 -85 callsubr
            return
          </CharString>
          <CharString index="239">
            -263 -189 46 1781 46 hstem
            return
          </CharString>
          <CharString index="240">
            -773 1359 -21 346 -20 hstem
            return
          </CharString>
          <CharString index="241">
            34 25 31 42 44 -28 27 -47 -57 -34 return
          </CharString>
          <CharString index="242">
            43 95 47 307 132 -70 70 -70 return
          </CharString>
          <CharString index="243">
            -161 -20 141 40 148 -20 hstemhm
            return
          </CharString>
          <CharString index="244">
            -17 106 callsubr
          </CharString>
          <CharString index="245">
            191 -94 94 return
          </CharString>
        <CharString name=".notdef">
          -246 -188 93 1687 92 hstem
          42 -188 rmoveto
          679 hlineto
          677 1872 rlineto
          -680 hlineto
          83 -92 rmoveto
          447 hlineto
          -609 -1687 rlineto
          -447 hlineto
          endchar
        </CharString>
        <CharString name="A">
          105 callsubr
          1 callsubr
          hintmask 1001110110000000
          340 589 rmoveto
          37 -27 11 -39 -154 -120 -172 -210 -195 106 -107 176 148 121 73 180 130 vhcurveto
          100 137 106 201 99 205 rrcurveto
          421 hlineto
          -74 -218 -67 -208 -118 vvcurveto
          hintmask 0111110110000000
          -79 callsubr
          hintmask 1001110110000000
          -99 callgsubr
          hintmask 0111110110000000
          -166 -119 -107 -78 -139 hhcurveto
          -122 -120 60 199 194 114 63 56 10 hvcurveto
          hintmask 1001101110000000
          68 12 59 11 48 vvcurveto
          938 766 rmoveto
          171 89 52 47 88 hhcurveto
          57 38 -19 -94 -143 -91 -264 -87 -255 hvcurveto
          -415 hlineto
          102 211 94 209 73 137 rrcurveto
          endchar
        </CharString>
        <CharString name="AE">
          1095 -39 52 -29 -21 786 50 810 94 callsubr
          566 40 hintmask 1011111110000000
          1967 894 rmoveto
          -3 9 14 -2 14 hhcurveto
          19 9 4 88 callsubr
          -17 -13 -19 -3 -3 -5 hvcurveto
          -55 32 -33 79 104 vvcurveto
          241 174 202 208 118 66 -65 -118 -119 -65 -111 -103 -59 vhcurveto
          14 -30 rlineto
          124 77 70 115 127 vvcurveto
          -46 callgsubr
          hintmask 0111111110000000
          43 callgsubr
          hintmask 1011111110000000
          -50 callgsubr
          endchar
        </CharString>
        <CharString name="AEacute">
          1095 -39 52 -29 -21 786 50 771 434 -395 94 callsubr
          -115 355 326 40 hintmask 1011011110100000
          1967 894 rmoveto
          -3 9 14 -2 14 hhcurveto
          19 9 4 88 callsubr
          -17 -13 -19 -3 -3 -5 hvcurveto
          -55 32 -33 79 104 vvcurveto
          241 174 202 208 118 66 -65 -118 -119 -65 -111 -103 -59 vhcurveto
          14 -30 rlineto
          124 77 70 115 127 vvcurveto
          hintmask 1010111101100000
          -46 callgsubr
          hintmask 0111011110100000
          43 callgsubr
          hintmask 1011011101100000
          -50 callgsubr
          346 88 -43 callgsubr
        </CharString>
        <CharString name="Aacute">
          105 callsubr
          440 -20 hstemhm
          0 43 1223 124 212 128 hintmask 1001111110000000
          -100 callsubr
          hintmask 0111111110000000
          -79 callsubr
          hintmask 1001111110000000
          -99 callgsubr
          hintmask 0111111110000000
          -78 callgsubr
          -95 callsubr
          280 332 rmoveto
          90 -50 callsubr
          -57 -51 -41 -19 rrcurveto
          endchar
        </CharString>
        <CharString name="Abreve">
          -42 callgsubr
          775 225 -187 -20 166 41 148 -20 hstemhm
          0 43 1223 124 212 128 hintmask 1001100111100000
          -100 callsubr
          hintmask 0111100111100000
          -79 callsubr
          hintmask 1001011111100000
          -99 callgsubr
          hintmask 0111100111100000
          -78 callgsubr
          -95 callsubr
          513 591 37 callsubr
          -42 hlineto
          hintmask 1001011111100000
          -84 2 73 -105 137 hhcurveto
          136 78 106 83 4 hvcurveto
          endchar
        </CharString>
        <CharString name="Acircumflex">
          105 callsubr
          440 -20 1 callsubr
          hintmask 1001111011000000
          -100 callsubr
          hintmask 0111111011000000
          -79 callsubr
          hintmask 1001111011000000
          -99 callgsubr
          hintmask 0111111011000000
          -78 callgsubr
          hintmask 1001110111000000
          -95 callsubr
          341 649 rmoveto
          -78 -126 -47 -74 -180 -92 -61 callsubr
          10 -25 hhcurveto
          -16 -17 -4 -23 -15 hvcurveto
          endchar
        </CharString>
        <CharString name="Adieresis">
          -42 callgsubr
          775 306 -268 -20 121 167 hstemhm
          0 43 -43 340 926 124 -3 149 66 128 -28 149 hintmask 1001100101010000
          -100 callsubr
          hintmask 0111100101010000
          -79 callsubr
          hintmask 1001011101010000
          -99 callgsubr
          hintmask 0111100101010000
          -78 callgsubr
          hintmask 1001100010110000
          -95 callsubr
          109 439 rmoveto
          hintmask 1001011100101000
          -46 -9 callsubr
          -33 37 -42 -41 -33 -37 -48 vhcurveto
          315 hmoveto
          -46 -9 callsubr
          -34 37 -41 -41 -33 -37 -48 vhcurveto
          endchar
        </CharString>
        <CharString name="Agrave">
          -42 callgsubr
          775 458 -420 -20 1 callsubr
          hintmask 1001101011000000
          -100 callsubr
          hintmask 0111101011000000
          -79 callsubr
          hintmask 1001011011000000
          -99 callgsubr
          hintmask 0111101011000000
          -78 callgsubr
          hintmask 1001100111000000
          -95 callsubr
          444 357 rmoveto
          -42 19 -56 51 -47 130 callgsubr
          -80 -5 77 -56 hhcurveto
          -32 16 callsubr
          89 -30 hvcurveto
          endchar
        </CharString>
        <CharString name="Amacron">
          -42 callgsubr
          775 266 -228 -20 180 68 1 callsubr
          hintmask 1001100101100000
          -100 callsubr
          hintmask 0111100101100000
          -79 callsubr
          hintmask 1001011101100000
          -99 callgsubr
          hintmask 0111100101100000
          -78 callgsubr
          hintmask 1001100011100000
          -95 callsubr
          hintmask 1001011101100000
          -12 416 rmoveto
          676 5 callgsubr
        </CharString>
        <CharString name="Aogonek">
          671 -495 -21 469 57 3 -21 757 49 813 -20 hstemhm
          0 43 -43 340 876 89 -39 124 212 128 hintmask 1101110011000000
          -100 callsubr
          -124 74 -100 138 -17 vhcurveto
          hintmask 1101110101000000
          -166 -96 31 callgsubr
          125 113 129 213 108 hvcurveto
          154 52 127 168 160 282 52 92 rcurveline
          -27 -54 callsubr
          -177 hhcurveto
          hintmask 1011110011000000
          -107 -44 59 101 hvcurveto
          280 340 680 290 vvcurveto
          126 -64 65 -148 -104 -63 -32 -212 -118 vhcurveto
          -169 -303 -195 -521 -219 -307 rrcurveto
          -78 callgsubr
          hintmask 1101101101000000
          -95 callsubr
          endchar
        </CharString>
        <CharString name="Aring">
          -42 callgsubr
          775 198 -160 -20 141 301 -41 41 hstemhm
          0 43 1223 124 101 301 -190 128 21 41 hintmask 1001100111100000
          -100 callsubr
          hintmask 0111100111100000
          -79 callsubr
          hintmask 1001011011011000
          -99 callgsubr
          hintmask 0111100111011000
          -78 callgsubr
          -95 callsubr
          hintmask 1001011011100000
          213 525 63 callgsubr
          84 -68 67 -83 -84 -66 -67 -86 vhcurveto
          39 hmoveto
          hintmask 1001100111011000
          -22 callgsubr
          endchar
        </CharString>
        <CharString name="Aringacute">
          -42 callgsubr
          775 151 -113 -20 94 301 -301 348 -88 41 hstemhm
          0 43 -43 340 926 124 77 301 -166 128 -128 166 hintmask 1001100011011000
          -100 callsubr
          hintmask 0111100011011000
          -79 callsubr
          hintmask 1001011001010100
          -99 callgsubr
          hintmask 0111100011011000
          -78 callgsubr
          hintmask 1001100010110010
          -95 callsubr
          172 334 rmoveto
          18 6 24 10 26 15 rrcurveto
          hintmask 1001010101011000
          -22 26 34 -13 38 hhcurveto
          85 67 67 83 32 -11 30 -16 25 hvcurveto
          8 19 6 18 18 vvcurveto
          30 -15 26 -33 -27 -16 -18 -32 -18 vhcurveto
          hintmask 1001100011011000
          2 -9 -9 1 -11 hhcurveto
          -83 -67 -68 -85 -28 7 -24 12 -22 hvcurveto
          -23 -20 -22 -16 -20 -9 rrcurveto
          307 121 rmoveto
          -61 -49 -50 -63 -24 -20 6 12 -17 vhcurveto
          59 38 64 49 39 54 rrcurveto
          7 -15 4 -16 -17 vvcurveto
          -222 -2 rmoveto
          63 50 49 61 vhcurveto
          3 3 -1 3 hhcurveto
          -15 -27 -18 -33 -26 -36 -17 -22 -17 -21 -17 -17 rrcurveto
          -6 14 -4 15 16 vvcurveto
          endchar
        </CharString>
        <CharString name="Atilde">
          -42 callgsubr
          775 258 -220 -20 137 103 -89 -20 201 106 1 callsubr
          hintmask 1001100011011000
          -100 callsubr
          hintmask 0111100011011000
          -79 callsubr
          hintmask 1001011011011000
          -99 callgsubr
          hintmask 0111100011011000
          -78 callgsubr
          hintmask 1001100010111000
          -95 callsubr
          200 674 rmoveto
          hintmask 1001010111011000
          -170 -53 -182 -105 -34 hvcurveto
          44 hlineto
          40 13 42 141 127 hhcurveto
          hintmask 1001011011011000
          149 13 -195 187 hhcurveto
          159 66 140 114 callsubr
          -43 85 callgsubr
          -102 -135 -45 -16 callgsubr
        </CharString>
        <CharString name="B">
          548 -34 callgsubr
          hstem
          0 56 1373 151 31 131 vstem
          744 90 rmoveto
          -94 74 75 -35 116 hhcurveto
          308 263 248 289 188 -111 125 -227 50 hvcurveto
          273 9 227 198 230 vvcurveto
          195 -165 116 -278 -425 -428 -270 -428 -252 vhcurveto
          -123 -209 -71 -231 -190 vvcurveto
          -214 92 -106 186 292 230 261 569 209 vhcurveto
          175 476 28 73 35 52 45 65 83 69 71 29 rrcurveto
          112 -31 53 -72 -119 vvcurveto
          -212 -167 -202 -215 -48 vhcurveto
          6 -10 -8 2 -9 hhcurveto
          -17 -12 -7 -7 -8 11 -5 16 7 4 0 1 3 hvcurveto
          141 -37 74 -106 -175 vvcurveto
          -284 -193 -241 -231 -94 -84 41 72 -51 vhcurveto
          259 1106 rmoveto
          -78 -140 -68 -196 -104 -253 rrcurveto
          -496 -203 -99 -134 -207 hhcurveto
          -157 -63 77 192 196 65 219 121 203 hvcurveto
          404 239 421 270 399 hhcurveto
          39 36 -3 -5 31 hvcurveto
          -131 -43 -123 -78 -118 -213 rrcurveto
          endchar
        </CharString>
        <CharString name="C">
          -239 -34 callgsubr
          hstem
          1 149 955 75 vstem
          468 -39 rmoveto
          277 215 165 356 202 hvcurveto
          -92 callgsubr
          -333 -189 -209 -158 -254 hhcurveto
          -223 -110 122 249 119 25 143 45 142 hvcurveto
          442 141 309 344 272 hhcurveto
          106 57 -53 -119 -114 -51 -108 -107 -86 hvcurveto
          18 -25 rlineto
          120 70 95 103 149 vvcurveto
          -63 callsubr
          endchar
        </CharString>
        <CharString name="CR">
          -685 endchar
        </CharString>
        <CharString name="Cacute">
          -239 -39 49 1561 128 callgsubr
          hstemhm
          1 149 955 75 hintmask 11011000
          468 -39 rmoveto
          277 215 165 356 202 hvcurveto
          -92 callgsubr
          -333 -189 -209 -158 -254 hhcurveto
          -223 -110 122 249 119 25 143 45 142 hvcurveto
          442 141 309 344 272 hhcurveto
          106 57 -53 -119 -114 -51 -108 -107 -86 hvcurveto
          18 -25 rlineto
          120 70 95 103 149 vvcurveto
          hintmask 10111000
          -63 callsubr
          432 1698 rmoveto
          90 31 215 140 117 vvcurveto
          hintmask 11011000
          121 callgsubr
          -48 93 callgsubr
        </CharString>
        <CharString name="Ccaron">
          -239 -34 callgsubr
          415 -20 hstem
          1 149 955 75 vstem
          468 -39 rmoveto
          277 215 165 356 202 hvcurveto
          -92 callgsubr
          -333 -189 -209 -158 -254 hhcurveto
          -223 -110 122 249 119 25 143 45 142 hvcurveto
          442 141 309 344 272 hhcurveto
          106 57 -53 -119 -114 -51 -108 -107 -86 hvcurveto
          18 -25 rlineto
          120 70 95 103 149 vvcurveto
          -63 callsubr
          524 1724 109 callgsubr
          93 113 callgsubr
          0 19 callsubr
          24 hhcurveto
          17 17 139 callgsubr
          endchar
        </CharString>
        <CharString name="Ccedilla">
          -239 -481 304 -19 206 -47 47 51 callgsubr
          hstemhm
          1 149 403 94 458 75 hintmask 10111110
          238 -391 rmoveto
          -61 65 67 -29 75 hhcurveto
          117 85 70 93 90 -77 51 -135 hvcurveto
          -21 hlineto
          62 138 273 4 213 164 200 353 rlinecurve
          -92 callgsubr
          -333 -189 -209 -158 -254 hhcurveto
          -223 -110 122 249 119 25 143 45 142 hvcurveto
          442 141 309 344 272 hhcurveto
          106 57 -53 -119 -114 -51 -108 -107 -86 hvcurveto
          18 -25 rlineto
          120 70 95 103 149 vvcurveto
          168 -139 53 -123 -386 -369 -355 -486 -123 vhcurveto
          -26 -102 -13 -103 -89 vvcurveto
          -306 152 -185 266 -20 vhcurveto
          -70 -160 rlineto
          hintmask 01011110
          1 6 5 0 21 hhcurveto
          107 65 -48 -77 118 callgsubr
        </CharString>
        <CharString name="Ccircumflex">
          -239 -34 callgsubr
          415 -20 hstem
          1 149 955 75 vstem
          468 -39 rmoveto
          277 215 165 356 202 hvcurveto
          -92 callgsubr
          -333 -189 -209 -158 -254 hhcurveto
          -223 -110 122 249 119 25 143 45 142 hvcurveto
          442 141 309 344 272 hhcurveto
          106 57 -53 -119 -114 -51 -108 -107 -86 hvcurveto
          18 -25 rlineto
          120 70 95 103 149 vvcurveto
          -63 callsubr
          497 2015 -27 callsubr
          -93 89 callsubr
          1 vhcurveto
          157 46 159 177 0 vvcurveto
          -53 callgsubr
          -30 101 -26 93 rrcurveto
          19 -6 -12 11 -24 hhcurveto
          -17 -16 69 callsubr
        </CharString>
        <CharString name="Cdotaccent">
          -239 -39 49 1561 281 75 callgsubr
          1 149 762 168 25 75 hintmask 11001110
          468 -39 rmoveto
          277 215 165 356 202 hvcurveto
          -92 callgsubr
          -333 -189 -209 -158 -254 hhcurveto
          -223 -110 122 249 119 25 143 45 142 hvcurveto
          442 141 309 344 272 hhcurveto
          106 57 -53 -119 -114 -51 -108 -107 -86 hvcurveto
          18 -25 rlineto
          120 70 95 103 149 vvcurveto
          hintmask 10111110
          -63 callsubr
          444 1806 68 callsubr
        </CharString>
        <CharString name="D">
          72 callsubr
          1440 -33 callgsubr
          hintmask 10011111
          -87 callgsubr
          hintmask 01111111
          -34 88 152 -49 187 hhcurveto
          306 228 133 171 157 hvcurveto
          158 172 111 240 254 vvcurveto
          408 -286 271 -501 -483 -347 -252 -378 -155 57 -93 119 -57 vhcurveto
          13 21 rlineto
          -98 62 -14 114 90 vvcurveto
          438 332 172 426 104 91 -11 -20 79 vhcurveto
          -155 -67 -134 -159 -59 -90 rrcurveto
          728 -228 -35 callsubr
          hintmask 10011111
          -91 callsubr
          hintmask 01111111
          -1570 -999 2 callsubr
        </CharString>
        <CharString name="Dcaron">
          72 callsubr
          1440 -20 415 -33 callgsubr
          hintmask 1001111110000000
          1050 1224 rmoveto
          -42 -63 -20 -50 -188 -471 -104 -261 -83 -158 -83 -93 rrcurveto
          -60 callsubr
          rrcurveto
          728 -228 rmoveto
          -244 -84 -259 -128 -184 vhcurveto
          hintmask 1001111110000000
          -91 callsubr
          -313 689 109 callgsubr
          93 rrcurveto
          0 -28 25 -1 19 callsubr
          25 hhcurveto
          16 17 139 callgsubr
          hintmask 0111111110000000
          -1257 -1688 2 callsubr
        </CharString>
        <CharString name="Dcroat">
          12 callgsubr
          -21 -54 -104 -261 -83 -158 -83 -93 rlinecurve
          -84 callsubr
        </CharString>
        <CharString name="Ddotbelow">
          758 -338 186 113 48 -28 64 callgsubr
          1440 -20 hstemhm
          0 40 249 77 420 186 806 128 hintmask 1100111111000000
          -87 callgsubr
          hintmask 1011111111000000
          -34 88 152 -49 187 hhcurveto
          306 228 133 171 157 hvcurveto
          158 172 111 240 254 vvcurveto
          408 -286 271 -501 -483 -347 -252 -378 -155 57 -93 119 -57 vhcurveto
          13 21 rlineto
          -98 62 -14 114 90 vvcurveto
          438 332 172 426 104 91 -11 -20 79 vhcurveto
          -155 -67 -134 -159 -59 -90 rrcurveto
          728 -228 -35 callsubr
          hintmask 1100111111000000
          -91 callsubr
          hintmask 1011111111000000
          -1570 -999 -74 callsubr
          578 -243 rmoveto
          -51 41 -41 51 52 42 42 51 51 -42 -2 callgsubr
          endchar
        </CharString>
        <CharString name="E">
          -247 -37 50 1596 -20 hstem
          0 157 247 115 566 66 vstem
          -52 callsubr
          281 269 173 346 131 callsubr
          -308 102 callgsubr
          -180 -254 hhcurveto
          81 callgsubr
        </CharString>
        <CharString name="Eacute">
          68 callgsubr
          566 66 hintmask 11011100
          -104 callsubr
          hintmask 10111100
          -106 callsubr
          217 765 rmoveto
          90 31 215 140 117 vvcurveto
          hintmask 11011100
          121 callgsubr
          -47 -63 -57 112 callsubr
          endchar
        </CharString>
        <CharString name="Ebreve">
          40 callgsubr
          200 136 callsubr
          0 157 247 115 566 66 hintmask 11001111
          -104 callsubr
          hintmask 10111111
          -106 callsubr
          528 1024 rmoveto
          -60 -4 -60 -88 -109 hhcurveto
          -109 -59 87 61 -2 hvcurveto
          -43 hlineto
          35 callsubr
        </CharString>
        <CharString name="Ecaron">
          -247 -37 50 1596 -20 415 -20 hstem
          0 157 247 115 566 66 vstem
          -52 callsubr
          281 266 176 343 195 vhcurveto
          51 92 -26 -85 callsubr
          -307 102 callgsubr
          -181 -64 callgsubr
          274 34 hvcurveto
          352 791 rmoveto
          79 126 46 73 181 93 113 callgsubr
          -1 vhcurveto
          -157 -47 -159 -176 0 vvcurveto
          -68 -71 callgsubr
          -97 30 -100 26 -93 rrcurveto
          -20 6 113 callsubr
          17 16 139 callgsubr
          endchar
        </CharString>
        <CharString name="Ecircumflex">
          -247 -37 50 1596 -20 415 -20 hstem
          0 157 247 115 566 66 vstem
          -52 callsubr
          281 266 176 343 195 vhcurveto
          51 92 -26 -85 callsubr
          -307 102 callgsubr
          -181 -64 callgsubr
          274 34 hvcurveto
          357 1082 -27 callsubr
          -93 -23 callgsubr
          -29 96 callsubr
          11 -24 hhcurveto
          -17 -16 69 callsubr
        </CharString>
        <CharString name="Edieresis">
          52 callgsubr
          212 149 165 149 -109 66 hintmask 1100111010000000
          -104 callsubr
          hintmask 1011111100000000
          -106 callsubr
          125 873 rmoveto
          86 callsubr
          314 hmoveto
          87 callsubr
          endchar
        </CharString>
        <CharString name="Edotaccent">
          52 callgsubr
          360 167 39 66 hintmask 11001111
          -104 callsubr
          hintmask 10111111
          -106 callsubr
          273 873 rmoveto
          -47 36 38 callgsubr
          59 callsubr
          endchar
        </CharString>
        <CharString name="Edotbelow">
          -247 -350 186 127 50 1596 -20 hstemhm
          0 157 77 186 -16 115 566 66 hintmask 11110110
          -52 callsubr
          281 266 176 343 195 vhcurveto
          51 92 -26 -85 callsubr
          -307 102 callgsubr
          -181 -64 callgsubr
          274 34 hvcurveto
          hintmask 11111010
          -372 -1152 rmoveto
          -51 41 -41 51 52 42 42 51 51 -42 -2 callgsubr
          endchar
        </CharString>
        <CharString name="Egrave">
          68 callgsubr
          184 448 -66 66 hintmask 11011010
          -104 callsubr
          hintmask 10111100
          -106 callsubr
          430 790 rmoveto
          -42 20 -56 51 -47 63 rrcurveto
          hintmask 11011100
          109 -80 -5 77 -56 hhcurveto
          -32 -15 -26 -31 -117 215 -140 89 -31 hvcurveto
          endchar
        </CharString>
        <CharString name="Emacron">
          40 callgsubr
          241 -202 -20 154 68 hstemhm
          0 157 247 115 566 66 hintmask 11001110
          -104 callsubr
          hintmask 10111110
          -106 callsubr
          3 849 rmoveto
          677 5 callgsubr
        </CharString>
        <CharString name="Eng">
          164 -527 48 499 -21 1610 -20 hstem
          130 callsubr
          590 137 vstem
          1232 1392 rmoveto
          -115 -46 -138 -19 -54 vhcurveto
          -395 -1086 rlineto
          -356 -129 -112 -122 -203 hhcurveto
          -131 -50 29 69 -63 hvcurveto
          -45 -24 rlineto
          -85 59 72 -37 148 hhcurveto
          294 194 212 436 159 hvcurveto
          350 964 rlineto
          33 92 21 79 77 vvcurveto
          180 -123 96 -148 -187 -121 -154 -305 -177 vhcurveto
          20 73 9 68 51 vvcurveto
          146 -39 121 -148 -76 callsubr
          69 23 -61 -80 -121 -51 -164 -23 -60 hvcurveto
          -394 -1086 rlineto
          148 hlineto
          357 982 50 88 rlineto
          323 182 129 179 160 hhcurveto
          92 64 -66 -113 hvcurveto
          endchar
        </CharString>
        <CharString name="Eogonek">
          -247 -495 -21 479 50 1596 -20 hstemhm
          0 157 -2 89 160 115 566 66 hintmask 11110110
          -52 callsubr
          vhcurveto
          4 hlineto
          hintmask 11101110
          -165 -95 31 callgsubr
          126 116 132 219 108 hvcurveto
          217 57 202 166 156 275 51 92 rcurveline
          -26 -85 callsubr
          -307 102 callgsubr
          -181 -254 hhcurveto
          hintmask 11110110
          81 callgsubr
        </CharString>
        <CharString name="Eth">
          12 callgsubr
          -125 -315 -83 -158 -83 -93 rrcurveto
          -84 callsubr
        </CharString>
        <CharString name="Etilde">
          40 callgsubr
          218 -179 -20 95 104 91 107 hstemhm
          0 157 247 115 566 66 hintmask 11001111
          -104 callsubr
          hintmask 10111111
          -106 callsubr
          197 1092 rmoveto
          27 callgsubr
          140 129 callgsubr
          -195 187 hhcurveto
          159 66 141 114 callsubr
          -43 85 callgsubr
          -102 -135 -45 -16 callgsubr
        </CharString>
        <CharString name="Euro">
          36 -39 49 610 93 197 93 606 -20 hstem
          189 150 vstem
          150 910 rmoveto
          124 hlineto
          -18 -45 -14 -47 -26 -105 rrcurveto
          -142 hlineto
          -32 -93 rlineto
          158 hlineto
          -7 -53 -4 -53 -51 vvcurveto
          -315 146 -187 248 122 125 45 79 115 vhcurveto
          -82 -4 rlineto
          -59 -95 -96 -12 -74 hhcurveto
          -167 -92 128 236 75 9 84 18 87 hvcurveto
          522 hlineto
          32 93 rlineto
          -532 hlineto
          18 66 23 67 25 64 rrcurveto
          542 hlineto
          33 93 rlineto
          -535 hlineto
          336 162 254 232 231 hhcurveto
          128 74 -112 -75 21 hvcurveto
          56 hlineto
          146 -47 -102 79 -174 hhcurveto
          -311 -307 -246 -360 -166 hvcurveto
          -131 hlineto
          endchar
        </CharString>
        <CharString name="F">
          210 -18 -21 57 -21 804 40 -40 325 312 96 1 75 22 -20 48 callsubr
          92 41 hintmask 1110111101000000
          1142 1221 rmoveto
          -31 -55 -24 -59 -106 -266 rrcurveto
          -285 -40 270 hlineto
          -18 -48 -21 -53 -24 -60 rrcurveto
          -529 -210 -129 -114 -213 hhcurveto
          -190 -114 93 151 hvcurveto
          hintmask 1110111011000000
          165 155 -49 94 vvcurveto
          37 -23 12 -28 -85 -66 -117 -127 -191 152 -104 196 304 270 253 587 208 vhcurveto
          306 40 -292 hlineto
          150 412 29 77 35 52 13 20 16 19 18 18 rrcurveto
          -1 19 19 0 19 hhcurveto
          231 176 67 89 29 -17 9 -57 -113 -115 -38 -60 -106 hvcurveto
          8 -247 -226 68 -228 hhcurveto
          -305 -161 -124 -168 -126 93 -99 159 88 109 30 50 87 hvcurveto
          -20 24 rlineto
          hintmask 1101111101000000
          -42 -72 -108 -29 -80 hhcurveto
          -141 -74 92 100 106 83 111 248 195 234 -69 -22 235 hvcurveto
          -77 -65 -67 -77 -44 -81 rrcurveto
          648 383 rmoveto
          31 14 -4 -8 -26 -147 -28 -151 -4 hvcurveto
          43 80 90 27 83 hhcurveto
          endchar
        </CharString>
        <CharString name="G">
          82 callgsubr
          1326 -20 hstem
          0 50 181 151 1002 63 vstem
          -103 callgsubr
          -80 callsubr
          endchar
        </CharString>
        <CharString name="Gbreve">
          82 callgsubr
          1288 199 136 callsubr
          0 50 181 151 1002 63 hintmask 1101111110000000
          -103 callgsubr
          hintmask 1110011110000000
          -80 callsubr
          1128 2395 3 callsubr
          hintmask 1101111110000000
          -84 2 74 -104 136 hhcurveto
          136 78 105 83 4 hvcurveto
          endchar
        </CharString>
        <CharString name="Gcircumflex">
          82 callgsubr
          1326 -20 415 -20 hstem
          0 50 181 151 1002 63 vstem
          -103 callgsubr
          -80 callsubr
          956 2453 28 callgsubr
          -93 89 callsubr
          1 vhcurveto
          46 157 -59 callsubr
          167 -75 0 vvcurveto
          0 23 25 1 2 vhcurveto
          -153 -31 callgsubr
          11 112 callgsubr
          69 callsubr
        </CharString>
        <CharString name="Gcommaaccent">
          317 -526 49 -29 -21 761 49 1326 -20 hstemhm
          0 50 181 151 628 191 -95 95 183 63 hintmask 1011111010000000
          -103 callgsubr
          -80 callsubr
          hintmask 0111111010000000
          652 -50 -40 callsubr
          -59 -33 -51 -45 -52 44 -37 45 hvcurveto
          hintmask 0111110110000000
          6 -7 1 -17 callsubr
        </CharString>
        <CharString name="Gdotaccent">
          82 callgsubr
          1288 281 75 callgsubr
          0 50 181 151 764 168 70 63 hintmask 1101111110000000
          -103 callgsubr
          hintmask 1110011110000000
          -80 callsubr
          872 2244 rmoveto
          hintmask 1101111110000000
          -47 36 -36 47 47 38 37 46 47 -38 38 -46 -47 50 callgsubr
        </CharString>
        <CharString name="H">
          791 -39 49 11 -21 1476 73 -9 69 1 46 callgsubr
          hintmask 1001011110000000
          495 -14 callgsubr
          hintmask 1010111110000000
          -17 callgsubr
          -73 -112 -33 -103 -130 -341 -117 -22 -101 -19 -77 -16 rrcurveto
          -92 callsubr
          hintmask 1001011110000000
          -41 callsubr
          hintmask 0110111110000000
          -39 callgsubr
          -171 -1187 -80 callgsubr
          endchar
        </CharString>
        <CharString name="Hbar">
          791 -39 49 11 -21 1002 67 407 73 -9 69 1 46 callgsubr
          hintmask 1010101111000000
          678 1002 rmoveto
          252 hlineto
          -115 -303 -117 -22 -101 -19 -77 -16 rlinecurve
          -92 callsubr
          77 -38 52 -112 -291 -303 -353 -401 -155 vhcurveto
          -154 -50 -153 -38 -140 -31 37 105 32 87 27 74 rrcurveto
          264 hlineto
          26 67 rlineto
          -266 hlineto
          91 253 24 54 36 45 49 64 107 91 73 15 rrcurveto
          18 vlineto
          hintmask 1011011111000000
          -39 callgsubr
          35 20 rlineto
          98 callsubr
          hintmask 1010101111000000
          138 87 93 102 vhcurveto
          hintmask 0111011111000000
          -17 callgsubr
          -36 -55 -26 -52 -33 -79 rrcurveto
          -251 hlineto
          -416 -1069 -80 callgsubr
          endchar
        </CharString>
        <CharString name="Hcircumflex">
          791 -39 124 callgsubr
          414 46 callgsubr
          hintmask 1001011111000000
          495 -14 callgsubr
          hintmask 1010111111000000
          -17 callgsubr
          -73 -112 -33 -103 -130 -341 -117 -22 -101 -19 -77 -16 rrcurveto
          -92 callsubr
          hintmask 1001011111000000
          -41 callsubr
          hintmask 0110111111000000
          -39 callgsubr
          -171 -1187 -80 callgsubr
          -477 405 -27 callsubr
          -93 -23 callgsubr
          -30 101 -26 93 rrcurveto
          19 -6 -12 11 -24 hhcurveto
          -17 -16 69 callsubr
        </CharString>
        <CharString name="Hdotbelow">
          791 -338 186 113 124 callgsubr
          hstemhm
          0 46 387 42 311 186 366 135 826 42 hintmask 1100101111100000
          495 -14 callgsubr
          hintmask 1101011111100000
          -17 callgsubr
          -73 -112 -33 -103 -130 -341 -117 -22 -101 -19 -77 -16 rrcurveto
          -92 callsubr
          hintmask 1100101111100000
          -41 callsubr
          hintmask 1011011111100000
          -39 callgsubr
          -171 -1187 -80 callgsubr
          -1417 -1817 rmoveto
          -51 41 -41 51 52 42 42 51 51 -42 -2 callgsubr
          endchar
        </CharString>
        <CharString name="I">
          -35 callgsubr
          48 callsubr
          342 42 hintmask 11101010
          -71 callsubr
          hintmask 11011010
          -94 callgsubr
          hintmask 11101010
          -101 callgsubr
          hintmask 11100110
          -100 callgsubr
          endchar
        </CharString>
        <CharString name="IJ">
          1132 -526 49 459 -21 59 -21 1477 73 -9 70 48 callsubr
          342 42 229 50 668 42 hintmask 1111010111000000
          -71 callsubr
          hintmask 1110110111000000
          -94 callgsubr
          hintmask 1111010111000000
          -101 callgsubr
          hintmask 1111001111000000
          -100 callgsubr
          440 -982 rmoveto
          176 495 69 191 79 121 71 108 76 43 78 24 rrcurveto
          18 vlineto
          78 callsubr
          hhcurveto
          hintmask 1110110111000000
          9 callgsubr
          10 -40 17 -31 hvcurveto
          35 20 rlineto
          60 callgsubr
          42 vvcurveto
          137 87 93 102 vhcurveto
          hintmask 1111010111000000
          83 145 -64 142 -56 callgsubr
          354 72 412 36 hvcurveto
          -372 -179 -147 -107 -235 hhcurveto
          endchar
        </CharString>
        <CharString name="Iacute">
          -35 callgsubr
          394 -20 48 callsubr
          342 42 hintmask 11101101
          -71 callsubr
          hintmask 11011101
          -94 callgsubr
          hintmask 11101101
          -101 callgsubr
          hintmask 11101011
          -100 callgsubr
          -314 68 -53 callsubr
          endchar
        </CharString>
        <CharString name="Ibreve">
          -35 callgsubr
          120 40 148 -20 hstemhm
          0 47 497 42 hintmask 11101111
          -71 callsubr
          hintmask 11011111
          -94 callgsubr
          hintmask 11101111
          -101 callgsubr
          -100 callgsubr
          -2 327 37 callsubr
          -42 hlineto
          -84 2 73 -104 137 hhcurveto
          136 78 105 83 4 hvcurveto
          endchar
        </CharString>
        <CharString name="Icircumflex">
          -35 callgsubr
          394 -20 48 callsubr
          342 42 hintmask 11101101
          -71 callsubr
          hintmask 11011101
          -94 callgsubr
          hintmask 11101101
          -101 callgsubr
          hintmask 11101011
          -100 callgsubr
          -174 385 28 callgsubr
          -93 -61 callsubr
          11 -25 hhcurveto
          -16 -17 69 callsubr
        </CharString>
        <CharString name="Idieresis">
          -35 callgsubr
          74 168 48 callsubr
          342 42 614 49 callgsubr
          hintmask 1110110111000000
          -71 callsubr
          hintmask 1101110111000000
          -94 callgsubr
          hintmask 1110110111000000
          -101 callgsubr
          hintmask 1110101111000000
          -100 callgsubr
          -406 176 rmoveto
          -47 -9 callsubr
          -33 38 -42 -41 -33 -38 -47 vhcurveto
          315 hmoveto
          -47 -9 callsubr
          92 callsubr
        </CharString>
        <CharString name="Idotaccent">
          -35 callgsubr
          74 168 48 callsubr
          342 42 762 168 hintmask 1110110110000000
          -71 callsubr
          hintmask 1101110110000000
          -94 callgsubr
          hintmask 1110110110000000
          -101 callgsubr
          hintmask 1110101110000000
          -100 callgsubr
          -258 176 68 callsubr
        </CharString>
        <CharString name="Idotbelow">
          104 -357 186 -186 356 -17 -21 1515 73 -9 70 48 callsubr
          69 186 87 42 hintmask 1011010110000000
          -71 callsubr
          hintmask 1010110110000000
          -94 callgsubr
          hintmask 0101010110000000
          -101 callgsubr
          hintmask 1011001110000000
          -100 callgsubr
          -1335 -1857 20 callsubr
        </CharString>
        <CharString name="Igrave">
          -35 callgsubr
          394 -20 hstemhm
          0 47 497 42 hintmask 11101110
          -71 callsubr
          hintmask 11011110
          -94 callgsubr
          hintmask 11101110
          -101 callgsubr
          -100 callgsubr
          -157 93 14 callsubr
          44 callgsubr
        </CharString>
        <CharString name="Imacron">
          -35 callgsubr
          133 68 48 callsubr
          342 42 hintmask 11101101
          -71 callsubr
          hintmask 11011101
          -94 callgsubr
          hintmask 11101101
          -101 callgsubr
          hintmask 11101011
          -100 callgsubr
          -527 152 rmoveto
          676 5 callgsubr
        </CharString>
        <CharString name="Iogonek">
          104 -496 -21 499 -21 59 -21 1477 73 -9 70 hstemhm
          0 47 54 101 342 42 hintmask 11110111
          -71 callsubr
          hintmask 11101111
          -94 callgsubr
          hintmask 11110111
          -101 callgsubr
          42 14 56 19 53 vvcurveto
          34 -22 20 -34 -77 -69 -114 -135 -180 121 -110 231 vhcurveto
          8 hlineto
          -164 -95 -95 -118 -120 -5 callgsubr
          -48 hhcurveto
          -76 -37 34 72 128 120 135 226 109 hvcurveto
          242 79 176 249 172 474 165 456 37 99 49 71 51 73 89 77 88 24 rrcurveto
          endchar
        </CharString>
        <CharString name="Itilde">
          -35 callgsubr
          90 104 -90 -20 201 107 48 callsubr
          342 42 hintmask 1110101101000000
          -71 callsubr
          hintmask 1101101101000000
          -94 callgsubr
          hintmask 1110101101000000
          -101 callgsubr
          hintmask 1110011011000000
          -100 callgsubr
          -450 411 21 callsubr
          hintmask 1110101101000000
          -10 callsubr
          -15 -65 -5 callsubr
        </CharString>
        <CharString name="J">
          318 -526 49 1953 73 -9 70 hstemhm
          1 50 668 42 hintmask 11011000
          1232 609 13 callgsubr
          78 callsubr
          hhcurveto
          hintmask 10111000
          9 callgsubr
          11 -40 16 -31 hvcurveto
          35 20 rlineto
          60 callgsubr
          42 vvcurveto
          137 87 93 102 vhcurveto
          hintmask 11011000
          83 146 -64 141 -56 callgsubr
          355 72 412 36 hvcurveto
          -372 -180 -146 -107 -236 hhcurveto
          endchar
        </CharString>
        <CharString name="Jcircumflex">
          317 -526 49 1953 73 -9 70 394 -20 hstemhm
          0 50 668 42 hintmask 11011100
          1231 609 13 callgsubr
          78 callsubr
          hhcurveto
          hintmask 10111100
          9 callgsubr
          11 -40 16 -31 hvcurveto
          35 20 rlineto
          -12 27 -8 34 42 vvcurveto
          137 87 93 102 vhcurveto
          hintmask 11011100
          -87 callsubr
          1348 2453 -27 callsubr
          -93 89 callsubr
          1 vhcurveto
          46 157 -59 callsubr
          167 -75 0 vvcurveto
          0 23 89 callgsubr
          -154 -31 callgsubr
          11 112 callgsubr
          -5 -23 -14 hvcurveto
          endchar
        </CharString>
        <CharString name="K">
          777 -39 80 callsubr
          753 76 callgsubr
          hintmask 1010101100000000
          606 -14 callgsubr
          hintmask 1101101100000000
          -4 callgsubr
          hintmask 1010011100000000
          -4 callsubr
          hintmask 1101101100000000
          23 callgsubr
          hintmask 1010101010000000
          9 callsubr
          hintmask 1101101100000000
          -1 callsubr
          hintmask 1101101001000000
          31 callsubr
          endchar
        </CharString>
        <CharString name="Kcommaaccent">
          777 101 callsubr
          113 80 callsubr
          347 138 callsubr
          215 76 callgsubr
          hintmask 1101010110100000
          606 -14 callgsubr
          hintmask 1110110110100000
          -4 callgsubr
          hintmask 1101001110100000
          -4 callsubr
          hintmask 1110110110100000
          23 callgsubr
          hintmask 1101010110010000
          9 callsubr
          hintmask 1110110110100000
          -1 callsubr
          hintmask 1110110110001000
          31 callsubr
          -1461 -2094 -67 callsubr
          hintmask 1110110101100000
          -33 callsubr
          endchar
        </CharString>
        <CharString name="L">
          354 -70 -13 callgsubr
          1435 -20 hstemhm
          0 40 1574 58 hintmask 01001110
          -93 callsubr
          hintmask 10011110
          -98 callgsubr
          hintmask 00111110
          -73 callgsubr
          endchar
        </CharString>
        <CharString name="Lacute">
          354 -70 -13 callgsubr
          1397 128 callgsubr
          hstemhm
          0 40 1574 58 hintmask 01000111
          -93 callsubr
          hintmask 10011011
          -98 callgsubr
          hintmask 00111011
          -73 callgsubr
          1222 1662 -43 callgsubr
        </CharString>
        <CharString name="Lcaron">
          354 -70 -13 callgsubr
          1077 358 -1 -20 hstemhm
          0 40 816 172 -95 95 586 58 hintmask 0100101101000000
          -93 callsubr
          hintmask 1001101101000000
          -98 callgsubr
          hintmask 0011101101000000
          -73 callgsubr
          547 1254 rmoveto
          125 150 90 155 hvcurveto
          hintmask 1001011101000000
          56 -27 56 -60 -57 -28 -45 -44 -39 24 -40 46 vhcurveto
          hintmask 1001101011000000
          5 -8 2 -8 36 callgsubr
        </CharString>
        <CharString name="Lcommaaccent">
          354 101 callsubr
          82 -13 callgsubr
          1435 -20 hstemhm
          0 40 668 138 callsubr
          715 58 hintmask 1010011101000000
          -93 callsubr
          hintmask 1100111101000000
          -98 callgsubr
          hintmask 1001111101000000
          -73 callgsubr
          418 -523 -67 callsubr
          hintmask 1100111011000000
          -33 callsubr
          endchar
        </CharString>
        <CharString name="Ldot">
          354 -70 -13 callgsubr
          329 186 920 -20 hstemhm
          0 40 1136 186 252 58 hintmask 0100111110000000
          -93 callsubr
          hintmask 1001111110000000
          -98 callgsubr
          hintmask 0011111110000000
          -73 callgsubr
          970 597 rmoveto
          -51 41 -40 51 51 125 callgsubr
          -50 -42 -43 -52 vhcurveto
          endchar
        </CharString>
        <CharString name="Lslash">
          354 -70 -13 callgsubr
          1435 -20 hstemhm
          0 40 1574 58 hintmask 01001110
          1382 966 rmoveto
          187 157 103 163 157 vvcurveto
          93 -36 73 -126 -93 -105 -42 -89 -91 vhcurveto
          -161 -158 -90 -269 -161 -389 -379 -134 rcurveline
          -32 -96 370 134 -91 -213 -70 -138 -74 -85 rlinecurve
          22 -84 -101 22 -110 hhcurveto
          -102 -136 -19 -95 -49 38 -50 167 122 106 27 58 98 hvcurveto
          hintmask 10011110
          4 callsubr
          225 217 103 449 253 hvcurveto
          -2 callsubr
          -324 -184 -135 -154 -306 hhcurveto
          -172 -189 47 36 -129 hvcurveto
          126 107 111 171 108 251 349 126 rcurveline
          23 85 -333 -117 118 303 68 42 callgsubr
          rlinecurve
          98 72 81 54 75 hhcurveto
          72 19 -50 -54 -124 -100 -191 -157 -155 hvcurveto
          hintmask 00111110
          -73 callgsubr
          endchar
        </CharString>
        <CharString name="M">
          907 -39 49 11 -21 1609 -20 111 callgsubr
          553 137 164 148 227 142 hintmask 01111110
          49 hmoveto
          148 hlineto
          391 1073 rlineto
          313 178 124 185 149 hhcurveto
          92 64 -66 -113 -125 -83 -207 -82 -228 hvcurveto
          -301 -832 rlineto
          148 hlineto
          375 1035 19 34 rlineto
          317 179 125 174 149 hhcurveto
          87 60 -55 -113 hvcurveto
          -248 -375 -576 -366 vvcurveto
          hintmask 10111110
          -147 71 -94 187 208 145 167 354 201 vhcurveto
          -92 callgsubr
          -326 -184 -142 -165 -176 hhcurveto
          -95 -40 62 95 hvcurveto
          354 369 504 308 vvcurveto
          180 -123 96 -144 -162 -116 -139 -264 -156 vhcurveto
          13 43 7 40 44 vvcurveto
          180 -123 96 -148 -162 -117 -140 -265 -156 vhcurveto
          11 51 5 49 38 vvcurveto
          146 -39 121 -148 -76 callsubr
          69 23 -61 -80 -121 -51 -164 -23 -60 hvcurveto
          endchar
        </CharString>
        <CharString name="N">
          99 callgsubr
          1610 -20 7 callgsubr
          hintmask 01111100
          -90 callgsubr
          -94 callsubr
          hintmask 10111100
          -89 callsubr
          endchar
        </CharString>
        <CharString name="NULL">
          -1426 endchar
        </CharString>
        <CharString name="Nacute">
          99 callgsubr
          1572 128 callgsubr
          7 callgsubr
          hintmask 10011110
          -90 callgsubr
          hintmask 01101110
          -94 callsubr
          hintmask 10101110
          -89 callsubr
          -375 326 -53 callsubr
          endchar
        </CharString>
        <CharString name="Ncaron">
          99 callgsubr
          1610 -20 415 -20 7 callgsubr
          hintmask 01111110
          -90 callgsubr
          -94 callsubr
          hintmask 10111110
          -89 callsubr
          -240 352 rmoveto
          79 126 46 73 181 93 113 callgsubr
          -1 vhcurveto
          -47 -157 -159 -176 1 hhcurveto
          -69 -71 callgsubr
          -97 30 -100 27 -93 rrcurveto
          -20 5 113 callsubr
          17 17 5 23 14 hvcurveto
          endchar
        </CharString>
        <CharString name="Ncommaaccent">
          322 101 callsubr
          113 49 10 -21 1610 -20 hstemhm
          472 170 -124 124 -74 74 252 147 218 137 hintmask 1011010110000000
          -90 callgsubr
          -94 callsubr
          hintmask 1101100110000000
          -89 callsubr
          -1008 -1859 -67 callsubr
          hintmask 1101001110000000
          6 -7 1 -17 callsubr
        </CharString>
        <CharString name="Ndotaccent">
          99 callgsubr
          1572 280 -242 -20 94 168 27 callsubr
          113 167 -62 137 hintmask 1001111010000000
          -90 callgsubr
          hintmask 0110011010000000
          -94 callsubr
          hintmask 1010011010000000
          -89 callsubr
          hintmask 1001111100000000
          -242 433 rmoveto
          -47 36 -36 46 47 38 37 47 46 -38 38 -46 18 callsubr
        </CharString>
        <CharString name="Ntilde">
          99 callgsubr
          1572 233 -195 -20 111 104 -90 -20 201 107 7 callgsubr
          hintmask 1001101111000000
          -90 callgsubr
          hintmask 0110001111000000
          -94 callsubr
          hintmask 1001011111000000
          -89 callsubr
          -400 669 21 callsubr
          hintmask 1001101111000000
          -10 callsubr
          43 callsubr
        </CharString>
        <CharString name="O">
          258 -34 callgsubr
          hstem
          76 callsubr
          vstem
          -104 callgsubr
          -93 callgsubr
          endchar
        </CharString>
        <CharString name="OE">
          913 -39 52 -29 -21 1646 -20 hstemhm
          93 callsubr
          882 155 38 325 -116 116 565 66 hintmask 10111011
          1767 894 rmoveto
          -3 8 15 -3 13 hhcurveto
          19 10 5 88 callsubr
          -18 -13 -18 -3 -3 -6 hvcurveto
          -55 32 -32 79 104 vvcurveto
          241 173 202 208 118 66 -65 -119 -118 -65 -111 -103 -59 vhcurveto
          15 -30 rlineto
          133 77 86 105 127 vvcurveto
          136 -116 96 -164 -257 -210 -192 -235 -121 56 -100 99 -56 vhcurveto
          -166 -15 -140 -61 -98 -96 rrcurveto
          50 149 25 145 126 vvcurveto
          294 -101 162 -251 -374 -370 -357 -483 -124 vhcurveto
          -26 -104 -14 -105 -97 vvcurveto
          -315 146 -187 248 240 231 175 270 167 vhcurveto
          hintmask 01111101
          -264 145 -179 265 281 266 176 343 195 vhcurveto
          -92 callgsubr
          hintmask 10111101
          -307 102 callgsubr
          -181 -64 callgsubr
          275 34 hvcurveto
          -1228 -884 rmoveto
          -72 callgsubr
          450 143 312 335 276 hhcurveto
          172 102 -166 -217 -124 -33 -164 -57 -160 hvcurveto
          -447 -160 -301 -283 -265 hhcurveto
          endchar
        </CharString>
        <CharString name="Oacute">
          29 callgsubr
          1075 72 hintmask 10111000
          -104 callgsubr
          hintmask 11011000
          -93 callgsubr
          490 1649 -43 callgsubr
        </CharString>
        <CharString name="Obreve">
          41 callgsubr
          199 136 callsubr
          93 callsubr
          1075 72 hintmask 10111110
          -104 callgsubr
          hintmask 11001110
          -93 callgsubr
          769 1908 rmoveto
          -60 -4 -60 -88 -109 134 callgsubr
          hintmask 10111110
          35 callsubr
        </CharString>
        <CharString name="Ocircumflex">
          258 -34 callgsubr
          415 -20 hstem
          76 callsubr
          vstem
          -104 callgsubr
          -93 callgsubr
          629 1966 28 callgsubr
          -93 89 callsubr
          1 vhcurveto
          46 157 -59 callsubr
          167 -75 0 vvcurveto
          0 23 25 1 2 vhcurveto
          -153 -31 callgsubr
          11 112 callgsubr
          69 callsubr
        </CharString>
        <CharString name="Odieresis">
          41 callgsubr
          281 75 callgsubr
          93 callsubr
          656 49 callgsubr
          -45 45 -45 72 hintmask 1011110010000000
          -104 callgsubr
          hintmask 1100110100000000
          -93 callgsubr
          397 1757 rmoveto
          hintmask 1011111000000000
          -47 -9 callsubr
          -33 38 -42 -41 -33 -38 -47 vhcurveto
          315 hmoveto
          -47 -9 callsubr
          -33 38 -42 -41 -33 -38 -47 vhcurveto
          endchar
        </CharString>
        <CharString name="Odotbelow">
          258 -350 186 125 -19 callsubr
          hstem
          93 callsubr
          77 186 812 72 vstem
          -104 callgsubr
          -93 callgsubr
          -182 -268 rmoveto
          -51 41 -41 51 52 42 42 51 51 -42 -2 callgsubr
          endchar
        </CharString>
        <CharString name="Ograve">
          29 callgsubr
          637 510 -72 72 hintmask 10110100
          -104 callgsubr
          hintmask 11010100
          -93 callgsubr
          711 1674 14 callsubr
          hintmask 11011000
          44 callgsubr
        </CharString>
        <CharString name="Ohungarumlaut">
          29 callgsubr
          1075 72 -72 120 hintmask 10111000
          -104 callgsubr
          hintmask 11010100
          -93 callgsubr
          351 1649 rmoveto
          90 31 214 140 117 vvcurveto
          31 -14 26 -33 -21 callgsubr
          309 -25 -53 callsubr
          endchar
        </CharString>
        <CharString name="Omacron">
          41 callgsubr
          240 -202 -20 154 68 108 callsubr
          hintmask 10111100
          -104 callgsubr
          hintmask 11001100
          -93 callgsubr
          hintmask 10111100
          202 1733 119 callgsubr
        </CharString>
        <CharString name="Oogonek">
          258 -495 -21 478 48 51 callgsubr
          hstemhm
          93 callsubr
          -25 89 1011 72 hintmask 11110100
          170 769 rmoveto
          -26 -104 -14 -105 -97 vvcurveto
          -310 141 -185 242 -6 vhcurveto
          hintmask 11101100
          -164 -96 -94 -117 -120 44 callsubr
          126 118 133 219 108 hvcurveto
          278 84 268 293 128 380 rrcurveto
          47 140 25 145 126 vvcurveto
          294 -138 162 -251 -374 -370 -357 -483 -124 vhcurveto
          369 -759 rmoveto
          hintmask 11110100
          -72 callgsubr
          -93 callgsubr
          endchar
        </CharString>
        <CharString name="Oslash">
          258 -95 -21 77 -19 callsubr
          52 -20 hstem
          76 callsubr
          vstem
          -70 callgsubr
          33 callsubr
          endchar
        </CharString>
        <CharString name="Oslashacute">
          258 -95 -21 77 49 1561 128 callgsubr
          52 -20 108 callsubr
          hintmask 11011110
          -70 callgsubr
          hintmask 11100110
          33 callsubr
          707 1285 -12 callsubr
        </CharString>
        <CharString name="Otilde">
          41 callgsubr
          233 -195 -20 111 104 -90 -20 201 107 108 callsubr
          hintmask 10110111
          -104 callgsubr
          hintmask 11000111
          -93 callgsubr
          429 1992 rmoveto
          hintmask 10101111
          -169 -54 -183 -105 -33 hvcurveto
          44 hlineto
          41 12 43 140 127 hhcurveto
          hintmask 10110111
          -10 callsubr
          -15 -65 -5 callsubr
        </CharString>
        <CharString name="P">
          354 -39 42 1606 -20 hstem
          0 56 1555 131 vstem
          275 -39 rmoveto
          294 234 264 566 206 hvcurveto
          173 475 26 64 43 62 47 71 75 61 72 31 rrcurveto
          115 -32 51 -79 -137 vvcurveto
          -272 -196 -203 -316 -53 vhcurveto
          -11 vlineto
          358 3 285 229 284 vvcurveto
          208 -162 117 -290 -421 -412 -264 -436 -261 vhcurveto
          -127 -213 -69 -218 -193 vvcurveto
          -217 91 -107 184 vhcurveto
          762 1269 rmoveto
          -48 -80 -30 -68 -174 -442 rrcurveto
          -492 -194 -116 -145 -208 hhcurveto
          -144 -67 86 195 196 65 214 122 201 hvcurveto
          416 250 407 260 400 hhcurveto
          40 35 -3 -5 32 hvcurveto
          -139 -55 -139 -123 -92 -155 rrcurveto
          endchar
        </CharString>
        <CharString name="Q">
          449 -358 94 -62 213 -48 48 -48 269 1501 -20 hstemhm
          1 40 290 148 1071 72 hintmask 10011111
          1556 -6 rmoveto
          -182 -137 -127 -76 -198 hhcurveto
          -130 -153 33 31 -120 hvcurveto
          359 173 350 341 149 429 rrcurveto
          49 140 24 142 125 vvcurveto
          298 -136 161 -255 -359 -342 -320 -446 -138 vhcurveto
          -58 -185 -3 -142 -27 vvcurveto
          -139 75 -279 248 85 106 33 88 116 vhcurveto
          -9 29 rlineto
          -85 -120 -97 -28 -73 hhcurveto
          -183 0 173 148 34 11 177 80 220 hvcurveto
          410 150 297 301 261 hhcurveto
          170 102 -127 -222 -126 -33 -159 -58 -160 hvcurveto
          -161 -442 -323 -352 -348 -166 rrcurveto
          hintmask 01001111
          35 -128 -127 35 -130 hhcurveto
          -101 -140 -19 -94 -49 38 -51 163 115 125 26 47 126 hvcurveto
          hintmask 10101111
          -56 173 169 -49 154 hhcurveto
          156 154 54 286 211 hvcurveto
          -1389 -272 rmoveto
          -127 -28 31 33 45 47 20 80 111 127 -38 -31 92 hvcurveto
          10 -3 rlineto
          -37 -104 -106 -20 -102 hhcurveto
          endchar
        </CharString>
        <CharString name="R">
          659 -39 133 callgsubr
          1165 72 callgsubr
          hintmask 01110101
          -89 callgsubr
          hintmask 10111001
          -77 callgsubr
          hintmask 01110011
          -95 callgsubr
          endchar
        </CharString>
        <CharString name="Racute">
          53 callgsubr
          225 131 hintmask 01111011
          -89 callgsubr
          hintmask 10111101
          -77 callgsubr
          148 97 176 130 vvcurveto
          115 -76 68 -165 31 vhcurveto
          274 9 226 198 231 vvcurveto
          196 -165 114 -285 -422 -414 -264 -435 -260 vhcurveto
          -127 -214 -69 -219 -192 vvcurveto
          hintmask 01111101
          -217 91 -108 185 vhcurveto
          759 1269 rmoveto
          -44 -76 -24 -57 -182 -456 rrcurveto
          -496 -198 -119 -140 -208 hhcurveto
          -126 -78 85 195 196 65 214 122 201 hvcurveto
          417 251 406 259 401 hhcurveto
          40 36 -3 -5 31 hvcurveto
          -143 -54 -136 -121 -94 -159 rrcurveto
          290 430 -12 callsubr
        </CharString>
        <CharString name="Rcaron">
          53 callgsubr
          -55 152 128 131 hintmask 0111101010000000
          -89 callgsubr
          hintmask 1011110010000000
          -77 callgsubr
          hintmask 0111100110000000
          -95 callgsubr
          425 456 -59 callgsubr
          endchar
        </CharString>
        <CharString name="Rcommaaccent">
          659 101 callsubr
          113 133 callgsubr
          807 191 -95 95 167 72 callgsubr
          hintmask 1011110010100000
          -89 callgsubr
          hintmask 1101110100100000
          -77 callgsubr
          hintmask 1011110001100000
          -95 callgsubr
          -256 -1755 rmoveto
          -9 callgsubr
          hintmask 1101101100100000
          5 -7 2 -17 callsubr
        </CharString>
        <CharString name="Rdotbelow">
          659 -338 186 113 133 callgsubr
          675 187 303 72 callgsubr
          hintmask 1011110101000000
          -89 callgsubr
          hintmask 1101111001000000
          -77 callgsubr
          hintmask 1011110011000000
          -95 callgsubr
          -304 -1475 rmoveto
          -51 41 -47 callgsubr
          -42 -42 -52 vhcurveto
          endchar
        </CharString>
        <CharString name="S">
          27 -38 47 1598 -20 -97 callgsubr
          endchar
        </CharString>
        <CharString name="Sacute">
          27 -38 47 1565 430 -97 callgsubr
          -264 529 -43 callgsubr
        </CharString>
        <CharString name="Scaron">
          27 -38 47 1995 -20 -97 callgsubr
          -129 555 rmoveto
          79 126 46 73 180 93 rrcurveto
          0 -28 25 -1 vhcurveto
          -47 -158 -159 -176 1 hhcurveto
          -69 150 -167 75 0 vvcurveto
          0 -23 -26 -2 -1 vhcurveto
          155 -97 29 -100 27 -93 rrcurveto
          -20 6 113 callsubr
          16 17 139 callgsubr
          endchar
        </CharString>
        <CharString name="Schwa">
          82 -41 49 1552 49 hstem
          143 101 894 157 vstem
          853 1609 rmoveto
          -349 -251 -285 -392 -205 hvcurveto
          -65 -124 34 -24 64 124 rlineto
          410 211 247 242 294 hhcurveto
          210 95 -122 -254 -113 -19 -141 -59 -211 hvcurveto
          1 -11 -12 0 -14 hhcurveto
          -206 -183 -27 -66 -151 hvcurveto
          -211 -92 -129 -159 -163 vvcurveto
          -164 129 -90 181 374 323 387 453 107 vhcurveto
          24 101 14 107 96 vvcurveto
          334 -171 172 -271 vhcurveto
          -444 -1601 rmoveto
          -82 -83 54 107 154 111 166 191 97 hvcurveto
          67 132 156 28 214 hhcurveto
          -375 -127 -243 -298 -269 hhcurveto
          endchar
        </CharString>
        <CharString name="Scircumflex">
          27 -38 47 1995 -20 -97 callgsubr
          -125 846 28 callgsubr
          -93 89 callsubr
          1 vhcurveto
          46 157 -59 callsubr
          167 -75 0 vvcurveto
          0 23 25 1 2 vhcurveto
          -153 -31 callgsubr
          11 112 callgsubr
          69 callsubr
        </CharString>
        <CharString name="Sdotbelow">
          27 -354 186 130 73 callsubr
          38 186 182 143 106 165 294 76 hintmask 1111011110000000
          1277 1114 rmoveto
          79 78 37 75 86 vvcurveto
          157 -125 97 -201 -277 -181 -183 -251 vhcurveto
          -294 249 -149 -308 vvcurveto
          -272 -196 -141 -231 -266 -121 193 166 81 27 34 34 16 vhcurveto
          hintmask 1110111110000000
          34 16 64 11 57 vvcurveto
          34 -22 22 -36 -83 -62 -122 -137 -216 154 -202 296 293 280 199 282 vhcurveto
          276 -271 248 287 vvcurveto
          193 123 127 187 158 97 -92 -143 -69 -23 -65 -51 -75 vhcurveto
          -1002 -1392 rmoveto
          -51 40 -47 callgsubr
          -41 -42 -52 vhcurveto
          endchar
        </CharString>
        <CharString name="T">
          156 -39 15 callgsubr
          92 41 hintmask 11111010
          1142 1219 rmoveto
          -70 callsubr
          hintmask 11110110
          -102 callsubr
          648 385 60 callsubr
        </CharString>
        <CharString name="Tbar">
          135 callgsubr
          -6 207 -179 -20 131 68 48 callsubr
          92 41 hintmask 1110111010000000
          1142 1219 rmoveto
          -70 callsubr
          hintmask 1110110110000000
          -102 callsubr
          hintmask 1101001010000000
          648 385 -45 callsubr
          hintmask 1110111010000000
          -717 139 rmoveto
          677 5 callgsubr
        </CharString>
        <CharString name="Tcaron">
          135 callgsubr
          22 -20 392 -20 48 callsubr
          92 41 hintmask 11111101
          1142 1219 rmoveto
          -70 callsubr
          hintmask 11111011
          -102 callsubr
          280 466 -59 callgsubr
          368 -81 60 callsubr
        </CharString>
        <CharString name="Tdotbelow">
          156 -357 186 132 15 callgsubr
          92 41 30 186 hintmask 1111110110000000
          1142 1219 rmoveto
          -70 callsubr
          hintmask 1111101110000000
          -102 callsubr
          648 385 -45 callsubr
          -1425 -1870 rmoveto
          -51 41 -40 50 52 125 callgsubr
          -51 -41 -43 -52 vhcurveto
          endchar
        </CharString>
        <CharString name="Thorn">
          -134 21 -21 1200 409 hstem
          919 132 vstem
          148 hmoveto
          145 391 rlineto
          76 74 4 11 74 hvcurveto
          305 40 229 210 257 vvcurveto
          205 -160 117 -285 3 vhcurveto
          136 371 rlineto
          -149 hlineto
          -593 -1609 rlineto
          593 1200 rmoveto
          15 hlineto
          219 92 -79 -185 -245 -155 -157 -258 -76 hvcurveto
          -29 -9 -58 -13 -111 -3 rrcurveto
          endchar
        </CharString>
        <CharString name="U">
          7 callsubr
          hstem
          -32 callsubr
          vstem
          1319 1609 rmoveto
          -371 -1020 -49 -88 rlineto
          -322 -182 -129 -169 -160 hhcurveto
          -93 -64 56 112 hvcurveto
          273 369 689 267 vvcurveto
          128 -74 74 -111 -76 callsubr
          67 21 -52 -67 hvcurveto
          -260 -380 -653 -302 vvcurveto
          -180 123 -96 149 186 122 155 304 176 vhcurveto
          -20 -73 -8 -67 -52 vvcurveto
          -165 86 -102 163 208 146 167 354 201 vhcurveto
          51 92 -26 -54 callsubr
          -176 hhcurveto
          -107 -46 62 95 84 36 124 40 110 hvcurveto
          408 1124 rlineto
          endchar
        </CharString>
        <CharString name="Uacute">
          7 callsubr
          415 -20 hstem
          -32 callsubr
          vstem
          1319 1609 rmoveto
          -371 -1020 -49 -88 rlineto
          -322 -182 -129 -169 -160 hhcurveto
          -93 -64 56 112 hvcurveto
          273 369 689 267 vvcurveto
          128 -74 74 -111 -76 callsubr
          67 21 -52 -67 hvcurveto
          -260 -380 -653 -302 vvcurveto
          -180 123 -96 149 186 122 155 304 176 vhcurveto
          -20 -73 -8 -67 -52 vvcurveto
          -165 86 -102 163 208 146 167 354 201 vhcurveto
          51 92 -26 -54 callsubr
          -176 hhcurveto
          -107 -46 62 95 84 36 124 40 110 hvcurveto
          408 1124 rlineto
          -647 50 -53 callsubr
          endchar
        </CharString>
        <CharString name="Ubreve">
          7 callsubr
          141 40 148 -20 hstem
          -32 callsubr
          vstem
          1319 1609 rmoveto
          -371 -1020 -49 -88 rlineto
          -322 -182 -129 -169 -160 hhcurveto
          -93 -64 56 112 hvcurveto
          273 369 689 267 vvcurveto
          128 -74 74 -111 -76 callsubr
          67 21 -52 -67 hvcurveto
          -260 -380 -653 -302 vvcurveto
          -180 123 -96 149 186 122 155 304 176 vhcurveto
          -20 -73 -8 -67 -52 vvcurveto
          -165 86 -102 163 208 146 167 354 201 vhcurveto
          51 92 -26 -54 callsubr
          -176 hhcurveto
          -107 -46 62 95 84 36 124 40 110 hvcurveto
          408 1124 rlineto
          -336 309 rmoveto
          -60 -4 61 callsubr
          -43 hlineto
          35 callsubr
        </CharString>
        <CharString name="Ucircumflex">
          7 callsubr
          415 -20 hstem
          -32 callsubr
          vstem
          1319 1609 rmoveto
          -371 -1020 -49 -88 rlineto
          -322 -182 -129 -169 -160 hhcurveto
          -93 -64 56 112 hvcurveto
          273 369 689 267 vvcurveto
          128 -74 74 -111 -76 callsubr
          67 21 -52 -67 hvcurveto
          -260 -380 -653 -302 vvcurveto
          -180 123 -96 149 186 122 155 304 176 vhcurveto
          -20 -73 -8 -67 -52 vvcurveto
          -165 86 -102 163 208 146 167 354 201 vhcurveto
          51 92 -26 -54 callsubr
          -176 hhcurveto
          -107 -46 62 95 84 36 124 40 110 hvcurveto
          408 1124 rlineto
          -507 367 rmoveto
          -79 -126 -46 -73 -180 -93 11 callgsubr
          11 -24 hhcurveto
          -16 -17 69 callsubr
        </CharString>
        <CharString name="Udieresis">
          7 callsubr
          95 168 96 callgsubr
          88 149 -15 121 60 149 hintmask 11111011
          1319 1609 rmoveto
          -371 -1020 -49 -88 rlineto
          -322 -182 -129 -169 -160 hhcurveto
          -93 -64 56 112 hvcurveto
          273 369 689 267 vvcurveto
          128 -74 74 -111 -76 callsubr
          67 21 -52 -67 hvcurveto
          -260 -380 -653 -302 vvcurveto
          -180 123 -96 149 186 122 155 304 176 vhcurveto
          -20 -73 -8 -67 -52 vvcurveto
          -165 86 -102 163 208 146 167 354 201 vhcurveto
          51 92 -26 -54 callsubr
          -176 hhcurveto
          -107 -46 62 95 84 36 124 40 110 hvcurveto
          408 1124 rlineto
          hintmask 11111101
          -739 158 rmoveto
          -47 -9 callsubr
          -34 38 -41 -41 -33 -38 -47 vhcurveto
          315 hmoveto
          86 callsubr
          endchar
        </CharString>
        <CharString name="Udotbelow">
          265 -350 186 125 -19 callsubr
          hstemhm
          134 137 -26 186 83 126 222 121 hintmask 11110110
          1319 1609 rmoveto
          -371 -1020 -49 -88 rlineto
          -322 -182 -129 -169 -160 hhcurveto
          -93 -64 56 112 hvcurveto
          273 369 689 267 vvcurveto
          128 -74 74 -111 -76 callsubr
          67 21 -52 -67 hvcurveto
          -260 -380 -653 -302 vvcurveto
          -180 123 -96 149 186 122 155 304 176 vhcurveto
          -20 -73 -8 -67 -52 vvcurveto
          -165 86 -102 163 208 146 167 354 201 vhcurveto
          51 92 -26 -54 callsubr
          -176 hhcurveto
          -107 -46 62 95 84 36 124 40 110 hvcurveto
          408 1124 rlineto
          hintmask 11101110
          -1222 -1867 rmoveto
          -51 41 -41 51 52 42 42 51 51 -42 -2 callgsubr
          endchar
        </CharString>
        <CharString name="Ugrave">
          7 callsubr
          415 -20 hstem
          -32 callsubr
          vstem
          1319 1609 rmoveto
          -371 -1020 -49 -88 rlineto
          -322 -182 -129 -169 -160 hhcurveto
          -93 -64 56 112 hvcurveto
          273 369 689 267 vvcurveto
          128 -74 74 -111 -76 callsubr
          67 21 -52 -67 hvcurveto
          -260 -380 -653 -302 vvcurveto
          -180 123 -96 149 186 122 155 304 176 vhcurveto
          -20 -73 -8 -67 -52 vvcurveto
          -165 86 -102 163 208 146 167 354 201 vhcurveto
          51 92 -26 -54 callsubr
          -176 hhcurveto
          -107 -46 62 95 84 36 124 40 110 hvcurveto
          408 1124 rlineto
          -342 75 14 callsubr
          44 callgsubr
        </CharString>
        <CharString name="Uhungarumlaut">
          7 callsubr
          415 -20 hstem
          -32 callsubr
          vstem
          1319 1609 rmoveto
          -371 -1020 -49 -88 rlineto
          -322 -182 -129 -169 -160 hhcurveto
          -93 -64 56 112 hvcurveto
          273 369 689 267 vvcurveto
          128 -74 74 -111 -76 callsubr
          67 21 -52 -67 hvcurveto
          -260 -380 -653 -302 vvcurveto
          -180 123 -96 149 186 122 155 304 176 vhcurveto
          -20 -73 -8 -67 -52 vvcurveto
          -165 86 -102 163 208 146 167 354 201 vhcurveto
          51 92 -26 -54 callsubr
          -176 hhcurveto
          -107 -46 62 95 84 36 124 40 110 hvcurveto
          408 1124 rlineto
          -786 50 -53 callsubr
          309 -25 -12 callsubr
        </CharString>
        <CharString name="Umacron">
          7 callsubr
          154 68 hstem
          -32 callsubr
          vstem
          1319 1609 rmoveto
          -371 -1020 -49 -88 rlineto
          -322 -182 -129 -169 -160 hhcurveto
          -93 -64 56 112 hvcurveto
          273 369 689 267 vvcurveto
          128 -74 74 -111 -76 callsubr
          67 21 -52 -67 hvcurveto
          -260 -380 -653 -302 vvcurveto
          -180 123 -96 149 186 122 155 304 176 vhcurveto
          -20 -73 -8 -67 -52 vvcurveto
          -165 86 -102 163 208 146 167 354 201 vhcurveto
          51 92 -26 -54 callsubr
          -176 hhcurveto
          -107 -46 62 95 84 36 124 40 110 hvcurveto
          408 1124 rlineto
          -861 134 rmoveto
          677 5 callgsubr
        </CharString>
        <CharString name="Uogonek">
          265 -495 -21 477 -19 callsubr
          96 callgsubr
          170 90 -38 121 hintmask 11111010
          1319 1609 rmoveto
          -371 -1020 -49 -88 rlineto
          -322 -182 -129 -169 -160 hhcurveto
          -93 -64 56 112 hvcurveto
          273 369 689 267 vvcurveto
          128 -74 74 -111 -76 callsubr
          67 21 -52 -67 hvcurveto
          -260 -380 -653 -302 vvcurveto
          -180 123 -96 149 186 122 155 304 176 vhcurveto
          -20 -73 -8 -67 -52 vvcurveto
          -151 72 -98 138 -15 vhcurveto
          hintmask 11111100
          -166 -96 -96 -118 -121 vvcurveto
          -97 59 -48 124 68 57 15 37 80 1 callgsubr
          126 114 130 216 107 hvcurveto
          150 54 125 163 161 284 51 92 rcurveline
          -26 -54 callsubr
          -176 hhcurveto
          hintmask 11111010
          -107 -46 62 95 84 36 124 40 110 hvcurveto
          408 1124 rlineto
          endchar
        </CharString>
        <CharString name="Uring">
          7 callsubr
          154 -20 242 40 96 callgsubr
          168 301 -247 121 85 41 hintmask 1111110110000000
          1319 1609 rmoveto
          -371 -1020 -49 -88 rlineto
          -322 -182 -129 -169 -160 hhcurveto
          -93 -64 56 112 hvcurveto
          273 369 689 267 vvcurveto
          128 -74 74 -111 -76 callsubr
          67 21 -52 -67 hvcurveto
          -260 -380 -653 -302 vvcurveto
          -180 123 -96 149 186 122 155 304 176 vhcurveto
          -20 -73 -8 -67 -52 vvcurveto
          -165 86 -102 163 208 146 167 354 201 vhcurveto
          51 92 -26 -54 callsubr
          -176 hhcurveto
          -107 -46 62 95 84 36 124 40 110 hvcurveto
          408 1124 rlineto
          hintmask 1111111000000000
          -659 244 rmoveto
          -84 65 -64 83 86 67 66 83 84 -67 67 -84 -83 -67 -67 -85 vhcurveto
          39 hmoveto
          63 50 49 61 vhcurveto
          hintmask 1111110110000000
          61 49 -49 -62 -61 -49 -50 -63 -61 -48 49 61 hvcurveto
          endchar
        </CharString>
        <CharString name="Utilde">
          7 callsubr
          111 104 -90 -20 201 107 hstemhm
          -32 callsubr
          hintmask 11011111
          1319 1609 rmoveto
          -371 -1020 -49 -88 rlineto
          -322 -182 -129 -169 -160 hhcurveto
          -93 -64 56 112 hvcurveto
          273 369 689 267 vvcurveto
          128 -74 74 -111 -76 callsubr
          67 21 -52 -67 hvcurveto
          -260 -380 -653 -302 vvcurveto
          -180 123 -96 149 186 122 155 304 176 vhcurveto
          -20 -73 -8 -67 -52 vvcurveto
          -165 86 -102 163 208 146 167 354 201 vhcurveto
          51 92 -26 -54 callsubr
          -176 hhcurveto
          -107 -46 62 95 84 36 124 40 110 hvcurveto
          408 1124 rlineto
          -672 393 21 callsubr
          hintmask 11101111
          -10 callsubr
          43 callsubr
        </CharString>
        <CharString name="V">
          1 -34 callgsubr
          127 -20 hstem
          119 137 258 143 569 72 vstem
          1298 1499 rmoveto
          109 -19 108 -63 -32 -16 -26 -17 vhcurveto
          -32 58 -63 -173 vvcurveto
          -502 -488 -893 -334 -92 -56 68 95 vhcurveto
          258 401 717 275 vvcurveto
          116 -71 70 -121 -163 -151 -128 -371 -151 vhcurveto
          27 -18 rlineto
          329 136 147 150 115 hhcurveto
          68 21 -51 -65 hvcurveto
          -281 -395 -652 -293 vvcurveto
          -167 127 -101 136 427 489 990 548 vhcurveto
          endchar
        </CharString>
        <CharString name="W">
          73 callgsubr
          hstem
          16 callgsubr
          998 72 vstem
          947 622 rmoveto
          -330 -149 -216 -282 -41 callgsubr
          -89 -57 68 96 hvcurveto
          256 401 718 275 vvcurveto
          116 -71 70 -121 -163 -151 -128 -371 -151 vhcurveto
          27 -18 rlineto
          329 136 147 150 115 hhcurveto
          68 21 -51 -65 hvcurveto
          -281 -395 -652 -293 vvcurveto
          -167 129 -101 131 170 50 callsubr
          242 143 vhcurveto
          -8 -37 -4 -38 -35 vvcurveto
          -162 80 -140 174 464 476 989 548 111 -20 107 -62 -32 -17 -26 -17 vhcurveto
          -32 59 -62 -175 vvcurveto
          -502 -478 -892 -363 -106 -51 75 109 84 30 107 36 100 vhcurveto
          363 997 59 callgsubr
          endchar
        </CharString>
        <CharString name="Wacute">
          73 callgsubr
          308 -20 hstem
          16 callgsubr
          998 72 vstem
          947 622 rmoveto
          -330 -149 -216 -282 -41 callgsubr
          -89 -57 68 96 hvcurveto
          256 401 718 275 vvcurveto
          116 -71 70 -121 -163 -151 -128 -371 -151 vhcurveto
          27 -18 rlineto
          329 136 147 150 115 hhcurveto
          68 21 -51 -65 hvcurveto
          -281 -395 -652 -293 vvcurveto
          -167 129 -101 131 170 50 callsubr
          242 143 vhcurveto
          -8 -37 -4 -38 -35 vvcurveto
          -162 80 -140 174 464 476 989 548 111 -20 107 -62 -32 -17 -26 -17 vhcurveto
          -32 59 -62 -175 vvcurveto
          -502 -478 -892 -363 -106 -51 75 109 84 30 107 36 100 vhcurveto
          363 997 59 callgsubr
          -17 177 rmoveto
          89 -51 callsubr
          endchar
        </CharString>
        <CharString name="Wcircumflex">
          73 callgsubr
          308 -20 hstem
          16 callgsubr
          998 72 vstem
          947 622 rmoveto
          -330 -149 -216 -282 -41 callgsubr
          -89 -57 68 96 hvcurveto
          256 401 718 275 vvcurveto
          116 -71 70 -121 -163 -151 -128 -371 -151 vhcurveto
          27 -18 rlineto
          329 136 147 150 115 hhcurveto
          68 21 -51 -65 hvcurveto
          -281 -395 -652 -293 vvcurveto
          -167 129 -101 131 170 50 callsubr
          242 143 vhcurveto
          -8 -37 -4 -38 -35 vvcurveto
          -162 80 -140 174 464 476 989 548 111 -20 107 -62 -32 -17 -26 -17 vhcurveto
          -32 59 -62 -175 vvcurveto
          -502 -478 -892 -363 -106 -51 75 109 84 30 107 36 100 vhcurveto
          363 997 59 callgsubr
          122 494 28 callgsubr
          -93 -61 callsubr
          11 -25 hhcurveto
          -16 -17 69 callsubr
        </CharString>
        <CharString name="Wdieresis">
          752 -34 callgsubr
          95 168 -136 -20 hstemhm
          16 callgsubr
          171 49 callgsubr
          363 72 hintmask 1101111111000000
          947 622 rmoveto
          -330 -149 -216 -282 -41 callgsubr
          -89 -57 68 96 hvcurveto
          256 401 718 275 vvcurveto
          116 -71 70 -121 -163 -151 -128 -371 -151 vhcurveto
          27 -18 rlineto
          329 136 147 150 115 hhcurveto
          68 21 -51 -65 hvcurveto
          -281 -395 -652 -293 vvcurveto
          -167 129 -101 131 170 50 callsubr
          242 143 vhcurveto
          -8 -37 -4 -38 -35 vvcurveto
          -162 80 -140 174 464 476 989 548 111 -20 107 -62 -32 -17 -26 -17 vhcurveto
          -32 59 -62 -175 vvcurveto
          -502 -478 -892 -363 -106 -51 75 109 84 30 107 36 100 vhcurveto
          363 997 59 callgsubr
          -110 285 rmoveto
          hintmask 1110111111000000
          -47 -9 callsubr
          -33 38 -42 -41 -33 -38 -47 vhcurveto
          315 hmoveto
          -47 -9 callsubr
          92 callsubr
        </CharString>
        <CharString name="Wgrave">
          73 callgsubr
          308 -20 hstem
          16 callgsubr
          998 72 vstem
          947 622 rmoveto
          -330 -149 -216 -282 -41 callgsubr
          -89 -57 68 96 hvcurveto
          256 401 718 275 vvcurveto
          116 -71 70 -121 -163 -151 -128 -371 -151 vhcurveto
          27 -18 rlineto
          329 136 147 150 115 hhcurveto
          68 21 -51 -65 hvcurveto
          -281 -395 -652 -293 vvcurveto
          -167 129 -101 131 170 50 callsubr
          242 143 vhcurveto
          -8 -37 -4 -38 -35 vvcurveto
          -162 80 -140 174 464 476 989 548 111 -20 107 -62 -32 -17 -26 -17 vhcurveto
          -32 59 -62 -175 vvcurveto
          -502 -478 -892 -363 -106 -51 75 109 84 30 107 36 100 vhcurveto
          363 997 59 callgsubr
          287 202 14 callsubr
          -32 -15 -26 -31 -117 215 -140 89 -31 hvcurveto
          endchar
        </CharString>
        <CharString name="X">
          339 -123 -21 105 49 1558 41 20 -20 hstemhm
          725 183 -159 159 hintmask 11101000
          205 1335 rmoveto
          130 63 75 103 136 hhcurveto
          223 14 -285 -197 9 hvcurveto
          17 -347 -285 -183 -263 -244 -129 -219 rlinecurve
          -38 -65 -27 -64 -44 vvcurveto
          -37 19 -27 34 48 5 56 35 2 vhcurveto
          5 52 14 58 47 81 104 177 222 209 244 157 rrcurveto
          hintmask 11010100
          5 -100 rlineto
          -366 17 16 -254 303 hhcurveto
          250 210 173 347 195 hvcurveto
          52 93 -27 19 -52 -93 rlineto
          -299 -168 -210 -191 -216 hhcurveto
          -169 -28 118 341 -14 hvcurveto
          -12 289 271 177 254 232 135 226 rlinecurve
          38 64 30 65 45 vvcurveto
          33 -15 29 -36 -21 -24 -10 -34 -3 vhcurveto
          -4 -44 -6 -75 -70 -118 -110 -186 -210 -193 -232 -153 -3 92 rcurveline
          385 -16 -19 316 -338 hhcurveto
          -146 -95 -67 -194 -97 hvcurveto
          endchar
        </CharString>
        <CharString name="Y">
          316 -526 44 721 49 1321 -20 hstem
          -1 50 305 137 148 160 vstem
          1568 1536 rmoveto
          -149 hlineto
          -244 -652 rlineto
          -202 -76 -237 -394 -233 hhcurveto
          -79 -59 67 101 hvcurveto
          273 308 376 295 vvcurveto
          128 -86 81 -133 -151 -158 -143 -363 -146 vhcurveto
          27 -19 rlineto
          330 136 147 157 100 callsubr
          -59 -68 hvcurveto
          -297 -285 -312 -320 vvcurveto
          -180 123 -96 148 161 138 131 187 123 vhcurveto
          -47 -119 -63 -159 -56 -132 -52 -110 rlinecurve
          -598 -55 -232 -93 -48 callgsubr
          384 39 161 73 200 354 52 92 rcurveline
          -39 callsubr
          -190 -335 -141 -78 -368 -37 rlinecurve
          82 155 77 185 79 218 rrcurveto
          -993 -1091 rmoveto
          -128 -60 62 117 196 352 73 411 35 hvcurveto
          -382 -188 -162 -101 -225 hhcurveto
          endchar
        </CharString>
        <CharString name="Yacute">
          15 callsubr
          415 -20 22 callgsubr
          vstem
          1569 1536 rmoveto
          -149 hlineto
          -244 -652 rlineto
          -202 -76 -237 -394 -233 hhcurveto
          -79 -59 67 101 hvcurveto
          273 308 376 295 vvcurveto
          128 -86 81 -133 -151 -158 -143 -363 -146 vhcurveto
          27 -19 rlineto
          330 136 147 157 100 callsubr
          -59 -68 hvcurveto
          -297 -285 -312 -320 vvcurveto
          -180 123 -96 148 161 138 131 187 123 vhcurveto
          -47 -119 -63 -159 -56 -132 -52 -110 rlinecurve
          -598 -55 -232 -93 -48 callgsubr
          384 39 161 73 200 354 52 92 rcurveline
          -39 callsubr
          -190 -335 -141 -78 -368 -37 rlinecurve
          82 155 77 185 79 218 rrcurveto
          -993 -1091 rmoveto
          -128 -60 62 117 196 352 73 411 35 hvcurveto
          -382 -188 -162 -101 -225 hhcurveto
          776 2141 32 callgsubr
        </CharString>
        <CharString name="Ycircumflex">
          15 callsubr
          415 -20 22 callgsubr
          vstem
          1569 1536 rmoveto
          -149 hlineto
          -244 -652 rlineto
          -202 -76 -237 -394 -233 hhcurveto
          -79 -59 67 101 hvcurveto
          273 308 376 295 vvcurveto
          128 -86 81 -133 -151 -158 -143 -363 -146 vhcurveto
          27 -19 rlineto
          330 136 147 157 100 callsubr
          -59 -68 hvcurveto
          -297 -285 -312 -320 vvcurveto
          -180 123 -96 148 161 138 131 187 123 vhcurveto
          -47 -119 -63 -159 -56 -132 -52 -110 rlinecurve
          -598 -55 -232 -93 -48 callgsubr
          384 39 161 73 200 354 52 92 rcurveline
          -39 callsubr
          -190 -335 -141 -78 -368 -37 rlinecurve
          82 155 77 185 79 218 rrcurveto
          -993 -1091 rmoveto
          -128 -60 62 117 196 352 73 411 35 hvcurveto
          -382 -188 -162 -101 -225 hhcurveto
          916 2458 -27 callsubr
          -93 89 callsubr
          1 vhcurveto
          46 157 159 177 -1 hhcurveto
          69 -51 callgsubr
          -30 101 -27 93 rrcurveto
          19 -5 -12 11 112 callgsubr
          -5 -23 -14 hvcurveto
          endchar
        </CharString>
        <CharString name="Ydieresis">
          15 callsubr
          95 168 22 callgsubr
          121 49 callgsubr
          vstem
          1569 1536 rmoveto
          -149 hlineto
          -244 -652 rlineto
          -202 -76 -237 -394 -233 hhcurveto
          -79 -59 67 101 hvcurveto
          273 308 376 295 vvcurveto
          128 -86 81 -133 -151 -158 -143 -363 -146 vhcurveto
          27 -19 rlineto
          330 136 147 157 100 callsubr
          -59 -68 hvcurveto
          -297 -285 -312 -320 vvcurveto
          -180 123 -96 148 161 138 131 187 123 vhcurveto
          -47 -119 -63 -159 -56 -132 -52 -110 rlinecurve
          -598 -55 -232 -93 -48 callgsubr
          384 39 161 73 200 354 52 92 rcurveline
          -39 callsubr
          -190 -335 -141 -78 -368 -37 rlinecurve
          82 155 77 185 79 218 rrcurveto
          -993 -1091 rmoveto
          -128 -60 62 117 196 352 73 411 35 hvcurveto
          -382 -188 -162 -101 -225 hhcurveto
          683 2249 rmoveto
          87 callsubr
          315 hmoveto
          -47 -9 callsubr
          -33 38 -42 -41 -33 -38 -47 vhcurveto
          endchar
        </CharString>
        <CharString name="Ygrave">
          15 callsubr
          415 -20 22 callgsubr
          vstem
          1569 1536 rmoveto
          -149 hlineto
          -244 -652 rlineto
          -202 -76 -237 -394 -233 hhcurveto
          -79 -59 67 101 hvcurveto
          273 308 376 295 vvcurveto
          128 -86 81 -133 -151 -158 -143 -363 -146 vhcurveto
          27 -19 rlineto
          330 136 147 157 100 callsubr
          -59 -68 hvcurveto
          -297 -285 -312 -320 vvcurveto
          -180 123 -96 148 161 138 131 187 123 vhcurveto
          -47 -119 -63 -159 -56 -132 -52 -110 rlinecurve
          -598 -55 -232 -93 -48 callgsubr
          384 39 161 73 200 354 52 92 rcurveline
          -39 callsubr
          -190 -335 -141 -78 -368 -37 rlinecurve
          82 155 77 185 79 218 rrcurveto
          -993 -1091 rmoveto
          -128 -60 62 117 196 352 73 411 35 hvcurveto
          -382 -188 -162 -101 -225 hhcurveto
          980 2166 rmoveto
          -41 20 -57 51 -47 63 rrcurveto
          109 -80 -4 77 -57 hhcurveto
          -32 -15 -26 -31 -117 215 -140 90 -31 hvcurveto
          endchar
        </CharString>
        <CharString name="Ytilde">
          15 callsubr
          95 104 91 107 22 callgsubr
          vstem
          1569 1536 rmoveto
          -149 hlineto
          -244 -652 rlineto
          -202 -76 -237 -394 -233 hhcurveto
          -79 -59 67 101 hvcurveto
          273 308 376 295 vvcurveto
          128 -86 81 -133 -151 -158 -143 -363 -146 vhcurveto
          27 -19 rlineto
          330 136 147 157 100 callsubr
          -59 -68 hvcurveto
          -297 -285 -312 -320 vvcurveto
          -180 123 -96 148 161 138 131 187 123 vhcurveto
          -47 -119 -63 -159 -56 -132 -52 -110 rlinecurve
          -598 -55 -232 -93 -48 callgsubr
          384 39 161 73 200 354 52 92 rcurveline
          -39 callsubr
          -190 -335 -141 -78 -368 -37 rlinecurve
          82 155 77 185 79 218 rrcurveto
          -993 -1091 rmoveto
          -128 -60 62 117 196 352 73 411 35 hvcurveto
          -382 -188 -162 -101 -225 hhcurveto
          808 2468 rmoveto
          -169 -54 -182 -106 71 callsubr
          149 13 -195 187 hhcurveto
          159 66 141 114 callsubr
          -44 hlineto
          -65 43 callsubr
        </CharString>
        <CharString name="Z">
          90 33 callgsubr
          hstem
          -103 callsubr
          endchar
        </CharString>
        <CharString name="Zacute">
          88 33 callgsubr
          392 -20 hstem
          -103 callsubr
          -458 88 32 callgsubr
        </CharString>
        <CharString name="Zcaron">
          88 33 callgsubr
          392 -20 hstem
          -103 callsubr
          -425 114 -59 callgsubr
          endchar
        </CharString>
        <CharString name="Zdotaccent">
          88 33 callgsubr
          72 168 hstem
          955 168 vstem
          -103 callsubr
          -468 196 rmoveto
          -47 37 38 callgsubr
          -38 -38 -47 vhcurveto
          endchar
        </CharString>
        <CharString name="Zdotbelow">
          88 41 callsubr
          38 callsubr
          hstem
          454 186 vstem
          -103 callsubr
          -969 -1817 rmoveto
          -51 40 -47 callgsubr
          -41 -42 -52 vhcurveto
          endchar
        </CharString>
        <CharString name="a">
          75 callsubr
          -19 62 callgsubr
          hintmask 10111000
          8 callsubr
          151 155 346 195 81 callsubr
          -318 -176 -150 -152 -41 callgsubr
          -102 -48 59 92 83 38 116 38 104 hvcurveto
          255 700 59 callgsubr
          -81 -222 rlineto
          hintmask 11011000
          -83 callsubr
          213 -553 11 callsubr
        </CharString>
        <CharString name="aacute">
          75 callsubr
          -19 -20 519 62 callgsubr
          hintmask 10111100
          -105 callgsubr
          116 38 104 hvcurveto
          255 700 59 callgsubr
          -81 -222 rlineto
          hintmask 11011100
          -83 callsubr
          213 -553 -106 callgsubr
          450 1309 rmoveto
          90 -66 callsubr
          -5 -77 -108 -79 92 callgsubr
        </CharString>
        <CharString name="abreve">
          75 callsubr
          -19 -20 245 41 148 62 callgsubr
          hintmask 10111110
          -105 callgsubr
          116 38 104 hvcurveto
          255 700 59 callgsubr
          -81 -222 rlineto
          hintmask 11011110
          -83 callsubr
          213 -553 -106 callgsubr
          761 1568 -24 callsubr
        </CharString>
        <CharString name="acircumflex">
          75 callsubr
          -19 -20 519 62 callgsubr
          hintmask 10111100
          -105 callgsubr
          116 38 104 hvcurveto
          255 700 59 callgsubr
          -81 -222 rlineto
          hintmask 11011100
          -83 callsubr
          213 -553 -106 callgsubr
          590 1625 -27 callsubr
          -92 89 callsubr
          1 vhcurveto
          46 158 159 13 callsubr
          -29 96 callsubr
          10 -24 hhcurveto
          -17 -16 106 callsubr
        </CharString>
        <CharString name="acute">
          -1048 1361 -21 344 -20 hstem
          51 1340 rmoveto
          90 -68 callsubr
          -33 -56 -5 -77 -108 -79 vhcurveto
          -48 -64 -56 88 callgsubr
          endchar
        </CharString>
        <CharString name="adieresis">
          75 callsubr
          -19 -20 200 167 hstemhm
          -58 137 488 149 -52 121 96 149 hintmask 10111011
          -105 callgsubr
          116 38 104 hvcurveto
          255 700 59 callgsubr
          -81 -222 rlineto
          hintmask 11011101
          -83 callsubr
          213 -553 -106 callgsubr
          358 1416 rmoveto
          -46 32 -36 41 116 callgsubr
          vhcurveto
          314 hmoveto
          -46 33 -36 41 41 34 37 46 46 -33 38 -42 -40 -34 -38 -47 vhcurveto
          endchar
        </CharString>
        <CharString name="ae">
          344 -58 callgsubr
          6 -20 hstemhm
          -58 137 645 66 callgsubr
          hintmask 11011100
          1083 58 callsubr
          -130 -228 -239 -256 hhcurveto
          -151 -73 83 179 83 16 108 32 109 hvcurveto
          4 15 5 105 callgsubr
          167 70 106 122 127 vvcurveto
          112 -82 67 -133 -106 -105 -43 -72 -96 vhcurveto
          hintmask 10111100
          44 121 59 callgsubr
          -89 -243 rlineto
          hintmask 11011100
          188 -87 49 -113 -57 callgsubr
          187 183 57 callsubr
          222 vhcurveto
          -331 104 callgsubr
          -85 -41 63 110 96 32 134 64 28 callsubr
          46 -25 -71 -145 -118 -126 -122 -57 hvcurveto
          -78 -37 -101 -24 -145 -3 rrcurveto
          279 102 190 209 169 hhcurveto
          endchar
        </CharString>
        <CharString name="aeacute">
          364 -58 callgsubr
          6 -20 494 -20 hstemhm
          -39 137 645 157 639 82 hintmask 11011110
          1103 58 callsubr
          -131 -227 -239 -257 hhcurveto
          -151 -72 83 179 83 16 108 31 109 hvcurveto
          5 15 4 105 callgsubr
          168 70 105 122 127 vvcurveto
          112 -81 67 -134 -105 -106 -43 -72 -96 vhcurveto
          hintmask 10111110
          44 121 59 callgsubr
          -89 -243 rlineto
          hintmask 11011110
          188 -87 49 -113 -220 -326 -186 -434 -144 vhcurveto
          -35 -104 -20 -106 -93 vvcurveto
          -172 68 -128 164 187 182 57 callsubr
          223 vhcurveto
          -332 104 callgsubr
          -84 -42 63 110 96 33 134 63 28 callsubr
          47 -25 -71 -145 -119 -126 -122 -57 hvcurveto
          -78 -37 -101 -24 -145 -3 rrcurveto
          279 103 190 209 168 hhcurveto
          -540 176 rmoveto
          90 -50 callsubr
          -57 -51 -41 -19 rrcurveto
          endchar
        </CharString>
        <CharString name="agrave">
          75 callsubr
          -19 -20 519 -20 hstemhm
          -58 137 hintmask 10111000
          -105 callgsubr
          116 38 104 hvcurveto
          255 700 59 callgsubr
          -81 -222 rlineto
          hintmask 11011000
          -83 callsubr
          213 -553 -106 callgsubr
          755 1334 rmoveto
          -42 19 -56 51 -48 97 callgsubr
          -56 hhcurveto
          -33 -14 -26 -30 -117 214 -141 90 -30 hvcurveto
          endchar
        </CharString>
        <CharString name="amacron">
          75 callsubr
          -19 -20 259 68 -27 callgsubr
          hintmask 10111100
          -105 callgsubr
          116 38 104 hvcurveto
          255 700 59 callgsubr
          -81 -222 rlineto
          hintmask 11011100
          -83 callsubr
          213 -553 -106 callgsubr
          236 1393 rmoveto
          677 5 callgsubr
        </CharString>
        <CharString name="ampersand">
          292 -6 50 632 88 -30 107 768 -20 hstemhm
          207 158 265 115 -44 44 397 58 109 41 hintmask 1011101110000000
          989 841 rmoveto
          -158 -130 -100 -169 -14 1 -9 1 -12 hvcurveto
          43 3 rlineto
          130 94 64 120 102 80 -45 -165 -277 -224 -203 -229 -179 -145 123 265 307 193 215 293 33 vhcurveto
          -5 8 15 -1 10 hhcurveto
          22 10 5 9 10 -9 5 -18 -14 -18 -3 -2 -5 hvcurveto
          -68 31 -39 83 98 vvcurveto
          196 159 157 194 140 71 -81 -92 -87 -63 -105 -131 -24 vhcurveto
          15 -30 rlineto
          149 43 71 107 95 vvcurveto
          108 -89 105 -200 vhcurveto
          hintmask 1101110110000000
          -226 -205 -135 -204 -113 63 -104 111 -55 hvcurveto
          -353 -30 -244 -213 -299 vvcurveto
          -286 224 -176 243 288 238 248 284 54 -8 48 -28 58 vhcurveto
          -9 27 22 -1 16 hhcurveto
          207 145 159 182 29 hvcurveto
          -43 hlineto
          -204 -49 -99 -49 -75 hhcurveto
          hintmask 1011110110000000
          -94 -123 77 -138 hhcurveto
          endchar
        </CharString>
        <CharString name="aogonek">
          66 -495 -21 497 -69 callsubr
          -19 -20 hstemhm
          -58 137 454 90 41 121 hintmask 11011110
          -25 callgsubr
          -133 61 -93 118 -26 vhcurveto
          -195 -100 -115 -128 -132 vvcurveto
          -97 60 10 callgsubr
          126 117 132 218 108 hvcurveto
          185 22 144 157 180 319 52 92 rcurveline
          -39 callsubr
          rlineto
          -315 -179 -147 -155 -41 callgsubr
          -102 -48 59 92 83 38 116 38 104 hvcurveto
          255 700 59 callgsubr
          -81 -222 rlineto
          hintmask 11101110
          -83 callsubr
          213 -553 11 callsubr
        </CharString>
        <CharString name="apostrophe">
          -1152 1361 -21 344 -20 hstem
          61 171 vstem
          42 1340 rmoveto
          103 30 87 87 111 vvcurveto
          62 -26 54 -62 -55 -28 -45 -44 -40 24 -39 46 vhcurveto
          5 -8 2 -8 -8 vvcurveto
          -38 -41 -47 -54 -26 vhcurveto
          endchar
        </CharString>
        <CharString name="approxequal">
          -371 303 103 -81 -21 213 106 3 104 110 106 hstemhm
          hintmask 01111000
          268 946 rmoveto
          -169 -44 -172 -147 122 callsubr
          104 callsubr
          153 50 hvcurveto
          -44 hlineto
          -63 -22 -52 -153 -123 -141 -241 216 -172 hhcurveto
          -2 -323 rmoveto
          -170 -44 -172 -147 -57 hvcurveto
          44 hlineto
          89 35 24 124 144 hhcurveto
          hintmask 10111000
          142 222 -214 168 hhcurveto
          176 60 166 154 50 hvcurveto
          -43 hlineto
          -63 -23 -51 -154 -124 -140 -242 217 -171 hhcurveto
          endchar
        </CharString>
        <CharString name="aring">
          75 callsubr
          -40 260 -239 -20 220 301 -41 41 -27 callgsubr
          122 41 hintmask 1001101110000000
          -105 callgsubr
          116 38 104 hvcurveto
          255 700 59 callgsubr
          -81 -222 rlineto
          hintmask 1100101110000000
          -83 callsubr
          213 -553 -106 callgsubr
          438 1502 rmoveto
          -83 65 -65 83 85 68 67 83 83 -68 68 -83 -83 -67 -68 -85 vhcurveto
          39 hmoveto
          hintmask 1010011110000000
          -22 callgsubr
          endchar
        </CharString>
        <CharString name="aringacute">
          75 callsubr
          -40 220 -199 -20 180 301 -41 41 384 62 callgsubr
          hintmask 1001101110000000
          -105 callgsubr
          116 38 104 hvcurveto
          255 700 59 callgsubr
          -81 -222 rlineto
          hintmask 1100101110000000
          -83 callsubr
          213 -553 -106 callgsubr
          438 1462 rmoveto
          -83 65 -65 83 85 68 67 83 84 -68 67 -83 -83 -67 -67 -86 vhcurveto
          39 hmoveto
          hintmask 1010011110000000
          -22 callgsubr
          205 193 rmoveto
          89 31 215 140 117 vvcurveto
          30 -15 26 -32 -56 -5 -76 -109 -80 vhcurveto
          -47 -64 -56 88 callgsubr
          endchar
        </CharString>
        <CharString name="asciicircum">
          -519 514 -21 494 -20 hstem
          866 493 rmoveto
          -417 494 -407 -494 rlineto
          78 hlineto
          331 391 336 -391 rlineto
          endchar
        </CharString>
        <CharString name="asciitilde">
          -371 432 104 -82 -21 213 107 hstemhm
          hintmask 01100000
          268 753 rmoveto
          -169 -44 -172 -148 122 callsubr
          hhcurveto
          hintmask 10100000
          104 callsubr
          154 50 hvcurveto
          -44 hlineto
          -63 -22 -52 -154 -123 -141 -241 217 -172 hhcurveto
          endchar
        </CharString>
        <CharString name="asterisk">
          -683 841 -21 710 -20 hstem
          644 1319 rmoveto
          16 10 9 15 14 vvcurveto
          21 -19 16 -18 -10 -13 -3 -9 -9 vhcurveto
          -215 -180 24 278 rlineto
          27 -11 22 -25 -26 -15 -20 -29 vhcurveto
          24 -280 -213 180 rlineto
          9 -11 -13 3 -10 hhcurveto
          -18 -17 -17 -20 -14 7 -15 16 -10 hvcurveto
          247 -143 -246 -143 rlineto
          -16 -9 -8 -16 -14 vvcurveto
          -22 18 -15 16 11 11 3 8 8 vhcurveto
          218 181 -24 -278 rlineto
          -26 14 -23 27 25 11 23 21 vhcurveto
          -24 281 214 -179 rlineto
          -8 8 12 -3 11 hhcurveto
          18 21 15 22 13 -9 14 -11 7 hvcurveto
          -256 148 rlineto
          endchar
        </CharString>
        <CharString name="at">
          469 -185 414 729 455 -52 52 hstemhm
          169 100 273 89 374 77 471 96 hintmask 10111110
          577 587 rmoveto
          -22 -66 -13 -69 -59 vvcurveto
          -109 43 -82 107 115 105 97 185 111 vhcurveto
          -13 -43 -5 -41 -30 vvcurveto
          -116 92 -55 99 233 220 305 326 315 -205 268 -389 -521 -365 -479 -449 -406 299 -264 382 149 154 40 68 131 vhcurveto
          -29 33 rlineto
          -32 -50 -150 -74 -210 hhcurveto
          -399 -177 270 326 410 281 505 519 374 110 -262 -230 -274 -157 -366 -211 -79 -24 51 51 52 24 74 24 67 hvcurveto
          163 448 rlineto
          -94 hlineto
          -52 -142 rlineto
          93 -30 60 -97 -156 -204 -150 -246 -83 vhcurveto
          480 6 rmoveto
          -181 -79 -150 -179 -120 hhcurveto
          -50 -27 40 68 58 20 92 40 103 hvcurveto
          hintmask 11011110
          249 96 147 115 96 hhcurveto
          46 47 -28 -89 -31 -11 -94 -55 -123 hvcurveto
          endchar
        </CharString>
        <CharString name="atilde">
          75 callsubr
          -19 -20 215 104 92 106 -27 callgsubr
          hintmask 10111110
          -105 callgsubr
          116 38 104 hvcurveto
          255 700 59 callgsubr
          -81 -222 rlineto
          hintmask 11011110
          -83 callsubr
          213 -553 -106 callgsubr
          425 1651 -44 callsubr
          -136 -45 -16 callgsubr
        </CharString>
        <CharString name="b">
          -188 -19 40 1133 50 508 -20 131 callgsubr
          789 137 vstem
          555 1712 rmoveto
          -149 hlineto
          -446 -1227 rlineto
          -32 -90 -17 -85 -69 vvcurveto
          -157 105 -103 197 220 325 187 433 146 vhcurveto
          35 105 19 105 93 vvcurveto
          172 -67 128 -164 -173 -169 -144 -285 -171 vhcurveto
          481 379 rmoveto
          85 41 17 callsubr
        </CharString>
        <CharString name="backslash">
          -670 -165 -21 1756 -20 hstem
          117 1570 rmoveto
          -117 hlineto
          639 -1756 rlineto
          117 hlineto
          endchar
        </CharString>
        <CharString name="bar">
          -963 -17 -21 1620 -20 hstem
          185 93 vstem
          185 -38 rmoveto
          93 1620 -93 hlineto
          endchar
        </CharString>
        <CharString name="braceleft">
          -482 -160 -21 1812 -20 54 -20 hstem
          42 62 177 68 vstem
          244 827 rmoveto
          11 -22 rlineto
          18 -38 8 -42 -44 -241 -239 -296 -174 vvcurveto
          -117 84 -21 140 -13 vhcurveto
          -9 27 rlineto
          -68 8 -85 11 75 132 245 284 274 vvcurveto
          53 -9 55 -23 52 vhcurveto
          -8 16 15 7 rlineto
          157 360 -99 661 168 hhcurveto
          49 28 -18 -33 50 hvcurveto
          23 15 rlineto
          62 -73 -68 8 -33 hhcurveto
          -245 52 -723 -105 -266 hvcurveto
          endchar
        </CharString>
        <CharString name="braceright">
          -482 -160 -21 1846 -20 hstem
          595 69 177 62 vstem
          700 657 rmoveto
          -10 22 rlineto
          -19 39 -7 41 45 240 239 296 174 vvcurveto
          117 -85 21 -139 13 vhcurveto
          8 -27 rlineto
          69 -8 85 -11 -75 -132 -246 -284 -273 vvcurveto
          -54 10 -55 23 -52 vhcurveto
          7 -16 -15 -7 rlineto
          -157 -360 99 -661 -167 hhcurveto
          -49 -29 18 34 -50 hvcurveto
          -22 -16 rlineto
          -62 73 67 -8 34 hhcurveto
          244 -65 719 109 279 hvcurveto
          endchar
        </CharString>
        <CharString name="bracketleft">
          132 callsubr
          42 -189 rmoveto
          398 hlineto
          16 46 rlineto
          -302 hlineto
          650 1781 rlineto
          301 hlineto
          16 46 rlineto
          -398 hlineto
          endchar
        </CharString>
        <CharString name="bracketright">
          132 callsubr
          1121 1684 rmoveto
          -398 hlineto
          -17 -46 rlineto
          302 hlineto
          -650 -1781 rlineto
          -300 hlineto
          -16 -46 rlineto
          398 hlineto
          endchar
        </CharString>
        <CharString name="breve">
          -949 1410 41 148 -20 hstem
          409 1599 -24 callsubr
        </CharString>
        <CharString name="brokenbar">
          -963 -19 -21 1622 -20 hstem
          185 93 vstem
          278 872 rmoveto
          710 -93 -710 vlineto
          93 -912 rmoveto
          710 -93 -710 vlineto
          endchar
        </CharString>
        <CharString name="bullet">
          -686 445 301 hstem
          230 301 vstem
          230 593 63 callgsubr
          84 -68 67 -83 -84 -66 -67 -86 vhcurveto
          endchar
        </CharString>
        <CharString name="c">
          54 callgsubr
          hstemhm
          -35 155 558 163 hintmask 10111000
          -99 callsubr
          hintmask 11011000
          -45 28 -28 45 vhcurveto
          endchar
        </CharString>
        <CharString name="cacute">
          54 callgsubr
          480 -20 hstemhm
          -35 155 558 163 hintmask 10111100
          -99 callsubr
          hintmask 11011100
          -45 28 -28 45 vhcurveto
          -158 395 -12 callgsubr
        </CharString>
        <CharString name="caron">
          133 callsubr
          324 1366 -26 callgsubr
          -46 -157 -160 -177 1 hhcurveto
          -68 -71 callgsubr
          -96 29 -101 27 -93 rrcurveto
          -19 6 113 callsubr
          17 16 4 24 15 hvcurveto
          endchar
        </CharString>
        <CharString name="ccaron">
          54 callgsubr
          480 -20 hstemhm
          -35 155 558 163 hintmask 10111100
          -99 callsubr
          hintmask 11011100
          -45 28 -28 45 vhcurveto
          -23 421 109 callgsubr
          92 -30 callgsubr
          rrcurveto
          -19 5 13 -10 24 hhcurveto
          16 17 4 24 15 hvcurveto
          endchar
        </CharString>
        <CharString name="ccedilla">
          -459 303 -19 206 -50 50 -28 -21 963 259 -40 40 hstemhm
          -35 155 276 95 187 163 hintmask 1001101110000000
          81 -369 rmoveto
          -62 65 68 45 callsubr
          -22 hlineto
          62 138 rlineto
          hintmask 1010011110000000
          7 5 -1 7 hhcurveto
          273 230 163 338 191 hvcurveto
          -92 callgsubr
          -303 -171 -230 -167 -247 hhcurveto
          -168 -69 78 197 394 290 464 246 65 58 -32 -36 -8 -3 -5 -6 -2 -2 0 3 -7 hvcurveto
          3 -7 -6 1 -6 hhcurveto
          -37 -25 -29 -43 hvcurveto
          hintmask 0100101110000000
          -45 28 -28 45 54 36 38 58 39 -17 38 -30 30 vhcurveto
          37 -37 -55 19 -71 hhcurveto
          -271 -269 -265 -357 -95 hvcurveto
          -20 -77 -11 -78 -71 vvcurveto
          -216 101 -129 197 -25 vhcurveto
          -70 -162 rlineto
          1 5 6 0 21 hhcurveto
          106 65 -47 -78 47 callsubr
          endchar
        </CharString>
        <CharString name="ccircumflex">
          54 callgsubr
          480 -20 hstemhm
          -35 155 558 163 hintmask 10111100
          -99 callsubr
          hintmask 11011100
          -45 28 -28 45 vhcurveto
          -106 711 28 callgsubr
          -92 -61 callsubr
          10 -25 hhcurveto
          -16 137 callsubr
        </CharString>
        <CharString name="cdotaccent">
          54 callgsubr
          161 167 hstemhm
          -35 155 528 168 -138 163 hintmask 10111010
          -99 callsubr
          hintmask 11011100
          -45 28 -28 45 vhcurveto
          -103 502 rmoveto
          -46 36 -36 47 47 38 37 46 46 137 callgsubr
        </CharString>
        <CharString name="cedilla">
          -938 -459 303 168 -20 hstem
          348 95 vstem
          33 -369 rmoveto
          -62 65 68 -28 75 hhcurveto
          116 86 69 94 90 -77 50 -135 hvcurveto
          -22 hlineto
          76 168 rlineto
          -58 hlineto
          -83 -188 rlineto
          1 6 6 0 21 hhcurveto
          106 65 -47 -78 47 callsubr
          endchar
        </CharString>
        <CharString name="cent">
          -261 -230 -21 232 50 1474 -20 hstem
          81 155 557 163 vstem
          767 161 rmoveto
          -85 -86 -92 -45 -124 hhcurveto
          -160 -69 83 192 394 290 464 246 65 57 -32 -36 -8 -2 -5 -6 -3 -2 0 3 -6 hvcurveto
          3 -7 -6 1 -7 hhcurveto
          -37 -25 -29 -43 -45 28 -28 46 54 35 38 58 39 -16 38 -30 30 hvcurveto
          -21 20 -27 16 -32 9 113 312 rcurveline
          -116 hlineto
          -110 -302 -261 -19 -253 -258 -91 -344 rlinecurve
          -20 -77 -11 -78 -71 vvcurveto
          -178 70 -120 131 -50 vhcurveto
          -94 -259 rlineto
          117 hlineto
          85 235 rlineto
          -2 17 20 -1 19 hhcurveto
          136 101 45 93 94 hvcurveto
          endchar
        </CharString>
        <CharString name="circumflex">
          133 callsubr
          329 1656 -27 callsubr
          -92 89 callsubr
          1 vhcurveto
          46 157 159 177 -1 hhcurveto
          69 -51 callgsubr
          -30 101 -27 93 rrcurveto
          19 -5 -12 10 112 callgsubr
          -4 -24 -14 hvcurveto
          endchar
        </CharString>
        <CharString name="colon">
          -779 0 186 731 186 hstem
          32 187 149 187 vstem
          32 92 rmoveto
          -51 41 -47 callgsubr
          -42 -42 -52 vhcurveto
          336 916 69 callgsubr
        </CharString>
        <CharString name="comma">
          -953 -188 374 hstemhm
          31 138 callsubr
          hintmask 11000000
          -53 -188 rmoveto
          137 138 99 152 93 -53 30 -46 -58 -34 -51 -45 -52 44 -37 45 hvcurveto
          hintmask 10100000
          -33 callsubr
          endchar
        </CharString>
        <CharString name="commaaccent">
          -1087 101 callsubr
          hstemhm
          97 138 callsubr
          hintmask 11000000
          13 -526 -67 callsubr
          hintmask 10100000
          -33 callsubr
          endchar
        </CharString>
        <CharString name="copyright">
          -318 254 69 159 84 396 83 155 69 hstem
          42 80 156 103 605 81 vstem
          554 1269 rmoveto
          -284 -228 -226 -279 -279 228 -231 274 293 230 225 285 279 -230 226 -283 hvcurveto
          -69 vmoveto
          243 189 -194 -242 -250 -188 -191 -251 -237 -188 194 247 242 188 194 244 hvcurveto
          199 -202 rmoveto
          29 -45 -80 18 -74 hhcurveto
          -198 -78 -127 -152 -155 85 -129 181 87 83 32 29 43 hvcurveto
          -14 95 rlineto
          -44 -44 -74 -28 -65 hhcurveto
          -120 -59 92 115 104 45 85 128 64 78 -23 -27 36 hvcurveto
          endchar
        </CharString>
        <CharString name="currency">
          -492 291 -21 80 92 635 91 85 -20 hstem
          60 99 627 99 vstem
          472 1168 rmoveto
          -95 -88 -32 -54 -70 hvcurveto
          -166 171 -66 -66 166 -169 rlineto
          -59 -70 -34 -90 -97 vvcurveto
          -97 34 -91 57 -70 vhcurveto
          -164 -167 66 -66 164 167 rlineto
          -55 68 86 -32 94 hhcurveto
          99 92 32 55 71 hvcurveto
          164 -167 65 66 -163 166 rlineto
          58 70 34 90 99 vvcurveto
          97 -35 89 -58 71 vhcurveto
          166 169 -65 66 -168 -171 rlineto
          54 -69 -88 32 -96 hhcurveto
          -91 vmoveto
          175 139 -140 -176 -181 -136 -138 -182 -173 -136 139 180 176 136 140 177 hvcurveto
          endchar
        </CharString>
        <CharString name="d">
          75 callsubr
          508 -20 hstem
          -58 137 585 121 vstem
          8 callsubr
          151 156 345 195 81 callsubr
          -318 -176 -150 -152 -8 callsubr
          144 -49 97 -151 -220 -326 -186 -434 -145 vhcurveto
          213 -553 11 callsubr
        </CharString>
        <CharString name="dagger">
          -574 -17 -21 929 92 599 -20 hstem
          380 92 vstem
          42 891 rmoveto
          338 -929 92 929 302 hlineto
          36 92 rlineto
          -338 599 -92 -599 -302 hlineto
          endchar
        </CharString>
        <CharString name="daggerdbl">
          -574 -17 -21 438 93 601 93 395 -20 hstem
          380 92 vstem
          42 1094 rmoveto
          338 -601 -302 hlineto
          -36 -93 rlineto
          338 -438 92 438 302 hlineto
          36 93 rlineto
          -338 601 302 hlineto
          36 93 rlineto
          -338 395 -92 -395 -302 hlineto
          endchar
        </CharString>
        <CharString name="dcaron">
          75 callsubr
          47 357 104 62 callgsubr
          639 171 -94 94 hintmask 11111110
          -105 callgsubr
          115 38 105 hvcurveto
          446 1227 59 callgsubr
          -272 -749 80 callgsubr
          213 -553 -106 callgsubr
          1111 1220 -40 callgsubr
          -56 -28 -45 -44 -39 24 -40 45 hvcurveto
          hintmask 11111101
          106 callgsubr
        </CharString>
        <CharString name="dcroat">
          75 callsubr
          163 92 -92 345 -27 callgsubr
          hintmask 11101100
          801 1367 rmoveto
          232 hlineto
          -146 -404 rlineto
          -15 callgsubr
          50 callsubr
          147 292 174 vhcurveto
          -19 -65 -101 callsubr
          115 38 105 hvcurveto
          320 882 rlineto
          260 hlineto
          36 92 rlineto
          -261 hlineto
          hintmask 11011100
          91 253 59 callgsubr
          hintmask 11101100
          -91 -253 rlineto
          -231 hlineto
          -628 -1428 11 callsubr
        </CharString>
        <CharString name="ddotbelow">
          66 41 callsubr
          -69 callsubr
          508 -20 hstem
          -58 137 3 186 396 121 vstem
          -105 callgsubr
          115 38 105 hvcurveto
          446 1227 59 callgsubr
          -272 -749 80 callgsubr
          213 -553 -106 callgsubr
          -127 -277 rmoveto
          -51 41 -41 51 52 42 42 51 51 -42 -2 callgsubr
          endchar
        </CharString>
        <CharString name="degree">
          -756 1166 75 333 78 hstem
          129 75 333 78 vstem
          129 1406 rmoveto
          -134 106 -106 134 137 109 108 134 134 -109 110 -135 -134 -108 -110 -136 vhcurveto
          75 hmoveto
          94 75 74 92 92 74 -74 -92 -92 -74 -75 -94 -92 -73 73 92 vhcurveto
          endchar
        </CharString>
        <CharString name="dieresis">
          -686 1365 167 hstem
          148 49 callgsubr
          vstem
          148 1447 rmoveto
          -46 33 -36 40 -64 callsubr
        </CharString>
        <CharString name="divide">
          -521 -3 186 310 92 329 186 hstem
          194 187 150 186 vstem
          194 89 rmoveto
          -51 41 -47 callgsubr
          -42 -42 -52 vhcurveto
          337 916 rmoveto
          -50 40 -41 51 52 125 callgsubr
          -51 -41 -43 -52 vhcurveto
          -434 -512 rmoveto
          733 92 -733 hlineto
          endchar
        </CharString>
        <CharString name="dollar">
          -172 -169 -21 190 46 1601 -20 hstemhm
          56 44 -44 202 286 143 134 165 229 40 hintmask 11110111
          430 -190 rmoveto
          69 190 rlineto
          276 19 211 201 234 277 -299 117 281 vvcurveto
          151 88 146 205 161 74 -89 -147 -70 -17 -65 -30 -74 vhcurveto
          35 -15 rlineto
          34 76 18 74 74 vvcurveto
          141 -66 93 -132 27 vhcurveto
          72 196 107 callgsubr
          -69 -189 rlineto
          -256 -13 -143 -196 -202 -282 277 -26 -309 vvcurveto
          -224 -146 -160 -238 -225 -112 141 204 101 28 29 32 15 vhcurveto
          hintmask 11101111
          35 16 63 10 58 vvcurveto
          34 -21 22 -36 -83 -62 -115 -160 -218 113 -153 215 -27 vhcurveto
          -71 -193 rlineto
          endchar
        </CharString>
        <CharString name="dotaccent">
          -686 1365 167 hstem
          296 168 vstem
          296 1447 21 callgsubr
        </CharString>
        <CharString name="dotbellow">
          -1087 -338 186 hstem
          78 186 vstem
          78 -246 rmoveto
          -51 41 -41 50 52 43 42 51 51 -43 42 -51 -51 -41 -42 -52 vhcurveto
          endchar
        </CharString>
        <CharString name="dotlessi">
          17 callgsubr
          hstem
          -88 121 vstem
          -39 485 rmoveto
          -32 -90 -17 -85 -69 vvcurveto
          -105 callsubr
          83 38 116 38 104 hvcurveto
          255 700 59 callgsubr
          endchar
        </CharString>
        <CharString name="dotlessj">
          61 callgsubr
          hstemhm
          -691 66 -66 167 hintmask 11110000
          -525 -23 callsubr
          -474 -1305 rlineto
          -262 -96 -71 -102 -21 callsubr
          15 hhcurveto
          hintmask 11101000
          46 callsubr
          endchar
        </CharString>
        <CharString name="e">
          -58 callgsubr
          hstem
          -35 66 callgsubr
          vstem
          342 -19 rmoveto
          296 230 211 290 164 hvcurveto
          -92 callgsubr
          -235 -133 -227 -235 -281 hhcurveto
          -168 -75 77 185 120 23 119 39 108 hvcurveto
          159 124 22 44 103 hvcurveto
          168 70 106 122 127 vvcurveto
          112 -82 67 -133 -265 -272 -265 -357 -95 vhcurveto
          -21 -79 -10 -78 -68 vvcurveto
          -248 137 -128 240 vhcurveto
          314 1183 rmoveto
          58 46 -25 -71 -145 -118 -126 -123 -57 hvcurveto
          -77 -36 -101 -25 -66 callgsubr
          endchar
        </CharString>
        <CharString name="eacute">
          -58 callgsubr
          480 -20 hstem
          -35 66 callgsubr
          vstem
          -107 callgsubr
          -63 176 -12 callgsubr
        </CharString>
        <CharString name="ebreve">
          -58 callgsubr
          206 41 148 -20 hstem
          -35 66 callgsubr
          vstem
          -107 callgsubr
          185 435 3 callsubr
          -84 2 74 -105 136 hhcurveto
          136 78 106 83 4 hvcurveto
          endchar
        </CharString>
        <CharString name="ecaron">
          -58 callgsubr
          480 -20 hstem
          -35 66 callgsubr
          vstem
          -107 callgsubr
          72 202 109 callgsubr
          92 -30 callgsubr
          rrcurveto
          -19 5 13 -10 24 hhcurveto
          16 17 4 24 15 hvcurveto
          endchar
        </CharString>
        <CharString name="ecircumflex">
          -58 callgsubr
          480 -20 hstem
          -35 66 callgsubr
          vstem
          -107 callgsubr
          10 492 -27 callsubr
          -92 89 callsubr
          1 vhcurveto
          157 46 159 177 0 vvcurveto
          -53 callgsubr
          -30 101 -26 93 rrcurveto
          19 -6 -12 10 -24 hhcurveto
          -17 -16 106 callsubr
        </CharString>
        <CharString name="edieresis">
          103 callsubr
          379 149 111 83 -28 149 hintmask 11111100
          -107 callgsubr
          -156 283 rmoveto
          -46 32 -36 41 101 callgsubr
          46 -33 38 -42 -41 -33 -38 -47 vhcurveto
          hintmask 11111010
          79 callgsubr
          42 34 136 callgsubr
          vhcurveto
          endchar
        </CharString>
        <CharString name="edotaccent">
          103 callsubr
          527 168 -56 83 hintmask 11110100
          -107 callgsubr
          hintmask 11111000
          -8 283 rmoveto
          -46 36 -36 47 47 38 37 46 46 137 callgsubr
        </CharString>
        <CharString name="edotbelow">
          41 callsubr
          -69 callsubr
          hstemhm
          -35 156 -85 186 538 83 hintmask 11110100
          -107 callgsubr
          hintmask 11101100
          -620 -1410 rmoveto
          -51 41 -41 51 52 42 42 51 51 -42 -2 callgsubr
          endchar
        </CharString>
        <CharString name="egrave">
          -58 callgsubr
          480 -20 hstem
          -35 66 callgsubr
          vstem
          -107 callgsubr
          87 201 -11 callsubr
        </CharString>
        <CharString name="eight">
          -204 -37 47 1562 -20 hstem
          125 75 230 137 294 139 120 75 vstem
          125 310 rmoveto
          -249 193 -98 192 232 258 165 276 178 -120 139 -113 135 vhcurveto
          215 79 213 175 190 vvcurveto
          188 -145 84 -164 -211 -245 -154 -252 -128 83 -111 94 -109 vhcurveto
          -241 -100 -241 -171 -237 vvcurveto
          736 71 rmoveto
          -250 -210 -121 -183 -130 -138 109 191 225 221 161 217 86 vhcurveto
          110 -126 113 -126 -149 vvcurveto
          -294 856 rmoveto
          168 189 131 149 115 100 -62 -157 -164 -175 -180 -203 -88 vhcurveto
          -94 111 -81 110 131 vvcurveto
          endchar
        </CharString>
        <CharString name="ellipsis">
          -293 0 186 hstem
          32 187 191 186 192 186 vstem
          32 92 rmoveto
          -51 41 -47 callgsubr
          -42 -42 -52 vhcurveto
          378 hmoveto
          -51 41 -41 51 52 42 42 51 51 -42 -2 callgsubr
          378 hmoveto
          71 callgsubr
        </CharString>
        <CharString name="emacron">
          -58 callgsubr
          220 68 hstem
          -35 66 callgsubr
          vstem
          -107 callgsubr
          -277 260 119 callgsubr
        </CharString>
        <CharString name="emdash">
          -278 594 93 hstem
          65 594 118 callsubr
        </CharString>
        <CharString name="endash">
          -445 594 93 hstem
          65 594 rmoveto
          732 hlineto
          36 93 rlineto
          -732 hlineto
          endchar
        </CharString>
        <CharString name="eng">
          -82 -525 43 105 138 260 -21 1154 50 -19 -20 hstemhm
          53 66 -66 166 631 121 hintmask 11110101
          -215 hmoveto
          148 hlineto
          210 574 51 92 rlineto
          326 185 141 162 180 hhcurveto
          102 48 -66 -104 -82 -38 -116 -70 -193 hvcurveto
          -258 -712 rlineto
          -262 -95 -73 -101 -103 hhcurveto
          -60 -34 33 56 13 1 3 8 hvcurveto
          12 5 -6 15 hhcurveto
          hintmask 11110011
          134 callsubr
          -41 -67 -115 60 -63 106 167 152 66 callsubr
          97 hvcurveto
          257 706 rlineto
          63 176 16 84 70 -30 callsubr
          hintmask 11101101
          157 430 59 callgsubr
          endchar
        </CharString>
        <CharString name="eogonek">
          -495 -21 1680 40 hstemhm
          -35 104 -104 66 callgsubr
          hintmask 11011000
          1032 482 rmoveto
          -92 callgsubr
          -235 -133 -227 -235 -281 hhcurveto
          -168 -75 77 185 120 23 119 39 108 hvcurveto
          159 124 22 44 103 hvcurveto
          168 70 106 122 127 vvcurveto
          112 -82 67 -133 -265 -272 -265 -357 -95 vhcurveto
          -21 -79 -10 -78 -68 vvcurveto
          -226 113 -125 201 -21 vhcurveto
          -189 -100 -111 -126 -130 12 callsubr
          hintmask 11101000
          -75 -37 34 72 126 116 133 220 108 hvcurveto
          265 27 210 200 152 270 rrcurveto
          -376 682 rmoveto
          58 46 -25 -71 -145 -118 -126 -123 -57 hvcurveto
          -77 -37 -101 -24 -66 callgsubr
          endchar
        </CharString>
        <CharString name="equal">
          -328 361 93 280 93 hstem
          178 734 rmoveto
          846 hlineto
          32 93 rlineto
          -846 hlineto
          -168 -466 rmoveto
          846 hlineto
          32 93 rlineto
          -846 hlineto
          endchar
        </CharString>
        <CharString name="eth">
          -189 -19 50 1059 40 582 -20 hstem
          -39 152 729 48 21 85 vstem
          470 1382 rmoveto
          335 77 rlineto
          64 -140 42 -156 -137 vvcurveto
          -58 -7 -75 -14 -70 vhcurveto
          169 -5 -66 138 -213 hhcurveto
          -273 -255 -226 -324 -86 hvcurveto
          -20 -74 -11 -77 -75 vvcurveto
          -233 108 -140 208 388 331 492 495 180 -44 175 -81 151 vhcurveto
          284 66 rlineto
          40 vlineto
          -303 -71 -44 75 -52 68 -62 60 rlinecurve
          -53 hlineto
          54 -60 50 -75 42 -83 -317 -72 rcurveline
          -194 -1391 rmoveto
          -108 -55 79 158 93 18 118 35 114 hvcurveto
          320 96 183 177 195 hhcurveto
          144 58 -98 -163 -90 -18 -83 -22 -70 hvcurveto
          -304 -96 -236 -251 -194 hhcurveto
          endchar
        </CharString>
        <CharString name="etilde">
          -58 callgsubr
          176 104 92 106 hstem
          -35 66 callgsubr
          vstem
          -107 callgsubr
          -180 518 rmoveto
          27 callgsubr
          141 129 callgsubr
          -196 187 hhcurveto
          160 65 141 114 callsubr
          -43 85 callgsubr
          -102 -135 -45 -16 callgsubr
        </CharString>
        <CharString name="exclam">
          -684 0 168 1543 -20 hstem
          42 167 vstem
          608 1711 rmoveto
          -433 -1347 93 -27 508 1332 rlineto
          -734 -1587 rmoveto
          -46 36 38 callgsubr
          -37 -38 -48 vhcurveto
          endchar
        </CharString>
        <CharString name="exclamdown">
          -487 -504 -21 1543 168 hstem
          532 168 vstem
          133 -525 rmoveto
          434 1347 -94 27 -507 -1332 rlineto
          734 1587 rmoveto
          46 -36 36 -46 -48 -38 -37 -46 -47 38 -38 47 46 37 38 48 vhcurveto
          endchar
        </CharString>
        <CharString name="f">
          -685 -506 -21 1672 40 480 47 hstem
          747 163 vstem
          -76 138 callgsubr
          276 90 callgsubr
          316 40 -302 hlineto
          44 120 rlineto
          257 94 88 103 127 hhcurveto
          58 75 -21 -39 -8 -4 -4 -5 -3 -5 2 1 -2 hvcurveto
          3 -8 -5 1 -7 hhcurveto
          -37 -25 -29 -43 -45 28 -28 45 55 110 callgsubr
          -190 -161 -148 -267 -97 hvcurveto
          -41 -112 rlineto
          -291 hlineto
          endchar
        </CharString>
        <CharString name="f_i">
          107 callsubr
          hstemhm
          575 121 268 163 -62 62 hintmask 11111010
          -77 138 callgsubr
          277 90 callgsubr
          315 40 -300 hlineto
          18 48 rlineto
          320 115 111 112 203 hhcurveto
          145 110 -57 -85 -14 -3 -4 -6 -2 -7 1 1 -2 hvcurveto
          3 -7 -6 1 -6 hhcurveto
          hintmask 11111100
          -37 -25 -29 -42 -46 28 -27 45 56 34 44 74 146 -129 81 -195 -288 -172 -175 -312 -113 hvcurveto
          -15 -40 rlineto
          -292 hlineto
          701 -700 rmoveto
          -32 -90 -17 -85 -69 vvcurveto
          -73 callsubr
          195 vhcurveto
          51 92 -26 -6 callsubr
          83 38 116 38 104 hvcurveto
          255 700 59 callgsubr
          endchar
        </CharString>
        <CharString name="f_l">
          107 callsubr
          hstem
          575 121 vstem
          -77 138 callgsubr
          277 90 callgsubr
          315 40 -301 hlineto
          19 49 rlineto
          328 124 100 103 213 hhcurveto
          80 87 -14 -21 56 hvcurveto
          -417 -1145 rlineto
          -32 -90 -17 -85 -69 vvcurveto
          -73 callsubr
          195 vhcurveto
          51 92 -26 -6 callsubr
          83 38 116 38 104 hvcurveto
          446 1227 59 callgsubr
          -15 -40 rlineto
          24 -65 -96 16 -90 hhcurveto
          -275 -175 -145 -342 -124 hvcurveto
          -15 -40 rlineto
          -292 hlineto
          endchar
        </CharString>
        <CharString name="five">
          -287 -39 49 827 100 336 150 hstem
          864 148 vstem
          5 141 rmoveto
          -107 59 135 -73 145 hhcurveto
          414 254 292 265 218 -181 200 -416 1 hvcurveto
          120 336 rlineto
          541 hlineto
          63 150 rlineto
          -602 hlineto
          -219 -588 rlineto
          1 20 20 1 20 hhcurveto
          342 144 -158 -177 -232 -207 -260 -308 -147 -126 70 101 -43 hvcurveto
          endchar
        </CharString>
        <CharString name="florin">
          221 -263 47 65 145 1119 40 270 257 -48 48 hstemhm
          42 163 1237 163 hintmask 11101110
          1102 1273 rmoveto
          257 93 88 102 127 hhcurveto
          58 75 -20 -40 -7 -3 -4 -6 -3 -4 2 1 -3 hvcurveto
          3 -7 -6 0 -6 hhcurveto
          -38 -25 -28 -44 hvcurveto
          hintmask 11110110
          -44 28 -28 46 54 110 callgsubr
          -190 -161 -149 -266 -97 vhcurveto
          -41 -112 rlineto
          -292 -40 277 hlineto
          -372 -1024 rlineto
          -219 -80 -88 -86 -118 hhcurveto
          -58 -75 21 39 8 3 4 6 3 4 -2 -1 3 hvcurveto
          -3 8 5 -1 7 hhcurveto
          37 25 29 43 45 -28 28 -46 -54 -35 -38 -63 -90 86 -66 120 174 165 119 238 86 hvcurveto
          370 1019 30 callsubr
          endchar
        </CharString>
        <CharString name="four">
          -154 -186 475 -40 40 1135 -20 hstemhm
          hintmask 01100000
          114 249 rmoveto
          647 hlineto
          hintmask 10100000
          -157 -435 rlineto
          161 hlineto
          hintmask 01100000
          158 435 rlineto
          233 hlineto
          15 40 rlineto
          -234 hlineto
          413 1135 rlineto
          -132 hlineto
          -1119 -1135 rlineto
          54 hmoveto
          977 981 -355 -981 rlineto
          endchar
        </CharString>
        <CharString name="fourinferior">
          -490 0 120 callsubr
          235 -1 callgsubr
        </CharString>
        <CharString name="foursuperior">
          -490 463 120 callsubr
          698 -1 callgsubr
        </CharString>
        <CharString name="fraction">
          34 callsubr
        </CharString>
        <CharString name="g">
          -22 callsubr
          97 callsubr
          hintmask 11101110
          83 -527 rmoveto
          265 197 146 269 98 -19 callgsubr
          -148 hlineto
          -80 -218 rlineto
          hintmask 11110110
          -75 callgsubr
          -255 -92 -127 -109 -84 callgsubr
          endchar
        </CharString>
        <CharString name="gbreve">
          -22 callsubr
          245 41 148 -20 97 callsubr
          hintmask 1110111110000000
          -38 callsubr
          hintmask 1111011110000000
          -88 callsubr
          760 1568 -24 callsubr
        </CharString>
        <CharString name="gcircumflex">
          -22 callsubr
          519 -20 97 callsubr
          hintmask 11101111
          -38 callsubr
          hintmask 11110111
          -88 callsubr
          589 1625 rmoveto
          -79 -126 -46 -73 -180 -92 11 callgsubr
          10 -24 hhcurveto
          -16 137 callsubr
        </CharString>
        <CharString name="gcommaaccent">
          -22 callsubr
          201 357 97 callsubr
          662 94 -94 171 hintmask 1110111110000000
          -38 callsubr
          hintmask 1111011101000000
          -88 callsubr
          807 1692 34 callgsubr
          39 -24 40 -45 hvcurveto
          hintmask 1111011110000000
          32 callsubr
          endchar
        </CharString>
        <CharString name="gdotaccent">
          -22 callsubr
          200 167 hstemhm
          -222 62 -62 163 1 137 635 173 hintmask 1110111011000000
          -38 callsubr
          hintmask 1111011011000000
          -75 callgsubr
          -254 -93 125 callsubr
          -137 -102 55 74 11 2 2 7 hvcurveto
          11 114 callgsubr
          hintmask 1111010111000000
          35 25 30 42 45 -29 27 -46 -54 -34 -37 -60 -40 15 -42 26 -36 hvcurveto
          -74 51 85 -34 128 hhcurveto
          126 558 -106 callgsubr
          505 1416 rmoveto
          -46 36 -36 46 82 callsubr
          18 callsubr
        </CharString>
        <CharString name="germandbls">
          -265 -318 49 244 49 1585 -20 hstem
          570 73 38 144 31 116 vstem
          -96 360 rmoveto
          -204 -487 -102 -141 -202 -1 3 -49 rcurveline
          291 1 214 268 224 560 292 731 rcurveline
          283 113 76 54 102 hhcurveto
          110 35 -91 -80 hvcurveto
          -228 -286 -115 -191 -118 111 -153 -161 vvcurveto
          -233 -232 -185 -203 -95 -84 41 72 -51 vhcurveto
          -32 -33 rlineto
          -94 74 73 -35 121 hhcurveto
          285 288 199 262 hvcurveto
          209 -182 107 117 158 329 116 222 vvcurveto
          113 -86 131 -165 -194 -165 -153 -305 -128 vhcurveto
          endchar
        </CharString>
        <CharString name="grave">
          -1048 1361 -21 344 -20 hstem
          356 1365 rmoveto
          -42 110 callsubr
          -79 -5 3 callgsubr
        </CharString>
        <CharString name="greater">
          -456 272 -21 836 -20 hstem
          293 1019 rmoveto
          493 -326 -738 -347 -34 -95 924 434 -620 402 rlineto
          endchar
        </CharString>
        <CharString name="greaterequal">
          -419 67 callgsubr
          -640 539 -37 -103 539 -436 rlineto
          -708 hlineto
          91 callsubr
        </CharString>
        <CharString name="guillemotleft">
          -85 179 -21 985 42 callsubr
          478 40 rmoveto
          -382 385 668 408 34 96 -804 -490 460 -467 rlineto
          endchar
        </CharString>
        <CharString name="guillemotright">
          -85 179 -21 989 -20 hstem
          816 1047 rmoveto
          381 -385 -667 -408 -35 -96 804 490 -459 467 rlineto
          -478 -35 rmoveto
          381 -386 -667 -408 -34 -95 803 490 -459 466 rlineto
          endchar
        </CharString>
        <CharString name="guilsinglleft">
          -539 207 -21 957 42 callsubr
          endchar
        </CharString>
        <CharString name="guilsinglright">
          -539 207 -21 957 -20 hstem
          362 1075 rmoveto
          381 -385 -667 -409 -34 -95 803 490 -459 467 rlineto
          endchar
        </CharString>
        <CharString name="h">
          -67 callgsubr
          endchar
        </CharString>
        <CharString name="hbar">
          -13 callsubr
          220 68 -68 288 53 callsubr
          hintmask 01110110
          43 1424 rmoveto
          259 hlineto
          -519 -1424 rlineto
          -49 callgsubr
          hintmask 10110110
          -105 callsubr
          hvcurveto
          164 224 402 178 -30 callsubr
          244 669 rlineto
          269 hlineto
          27 68 rlineto
          -272 hlineto
          hintmask 10101110
          81 220 rlineto
          -149 hlineto
          hintmask 10110110
          -80 -220 rlineto
          -257 hlineto
          endchar
        </CharString>
        <CharString name="hcircumflex">
          -67 callgsubr
          hintmask 01111100
          436 -56 -27 callsubr
          -92 89 callsubr
          1 vhcurveto
          46 157 159 177 -1 hhcurveto
          69 -51 callgsubr
          -30 101 -27 93 rrcurveto
          19 -5 -12 10 112 callgsubr
          -4 -24 -14 hvcurveto
          endchar
        </CharString>
        <CharString name="hdotbelow">
          27 41 callsubr
          -10 callgsubr
          508 -20 hstemhm
          110 186 328 121 103 121 hintmask 10111111
          -217 hmoveto
          -49 callgsubr
          hintmask 11011111
          -105 callsubr
          hvcurveto
          164 224 402 178 -30 callsubr
          349 957 rlineto
          -149 hlineto
          hintmask 10111111
          -296 -1958 rmoveto
          -51 41 -41 51 52 42 42 51 51 -42 -2 callgsubr
          endchar
        </CharString>
        <CharString name="hungarumlaut">
          -768 1361 -21 344 -20 hstem
          51 1340 rmoveto
          90 -68 callsubr
          -33 -56 -5 -77 -108 -79 vhcurveto
          -48 -64 -56 88 callgsubr
          309 -25 rmoveto
          90 -50 callsubr
          -57 -51 -41 -19 rrcurveto
          endchar
        </CharString>
        <CharString name="hyphen">
          -390 594 93 hstem
          159 594 rmoveto
          640 hlineto
          36 93 rlineto
          -640 hlineto
          endchar
        </CharString>
        <CharString name="i">
          17 callgsubr
          200 167 hstem
          -88 121 263 168 vstem
          -39 485 rmoveto
          -32 -90 -17 -85 -69 vvcurveto
          -105 callsubr
          83 38 116 38 104 hvcurveto
          255 700 59 callgsubr
          80 262 21 callgsubr
        </CharString>
        <CharString name="iacute">
          17 callgsubr
          519 -20 hstem
          -88 121 vstem
          -39 485 rmoveto
          -32 -90 -17 -85 -69 vvcurveto
          -105 callsubr
          83 38 116 38 104 hvcurveto
          255 700 59 callgsubr
          25 155 rmoveto
          90 30 214 -38 callgsubr
          -14 26 -33 -56 -5 -3 callsubr
          endchar
        </CharString>
        <CharString name="ibreve">
          17 callgsubr
          245 41 148 -20 hstem
          -88 121 vstem
          -39 485 rmoveto
          -32 -90 -17 -85 -69 vvcurveto
          -105 callsubr
          83 38 116 38 104 hvcurveto
          255 700 59 callgsubr
          336 414 3 callsubr
          -84 3 73 -105 136 hhcurveto
          136 79 106 83 3 hvcurveto
          endchar
        </CharString>
        <CharString name="icircumflex">
          17 callgsubr
          519 -20 hstem
          -88 121 vstem
          -39 485 rmoveto
          -32 -90 -17 -85 -69 vvcurveto
          -105 callsubr
          83 38 116 38 104 hvcurveto
          255 700 59 callgsubr
          165 471 -27 callsubr
          -92 89 callsubr
          1 vhcurveto
          46 157 -59 callsubr
          167 -75 0 vvcurveto
          0 23 89 callgsubr
          -154 -31 callgsubr
          10 112 callgsubr
          -4 -24 -14 hvcurveto
          endchar
        </CharString>
        <CharString name="idieresis">
          17 callgsubr
          200 167 hstem
          -88 121 115 49 callgsubr
          vstem
          -39 485 rmoveto
          -32 -90 -17 -85 -69 vvcurveto
          -105 callsubr
          83 38 116 38 104 hvcurveto
          255 700 59 callgsubr
          -68 262 rmoveto
          -46 33 -36 40 -64 callsubr
        </CharString>
        <CharString name="idotbelow">
          -685 41 callsubr
          -54 callgsubr
          200 167 hstem
          -313 186 39 121 263 168 vstem
          296 1447 rmoveto
          -46 36 -36 47 82 callsubr
          -47 59 callsubr
          -335 -962 rmoveto
          -32 -90 -17 -85 -69 vvcurveto
          -105 callsubr
          83 38 116 38 104 hvcurveto
          255 700 59 callgsubr
          -529 -1431 rmoveto
          -51 41 -41 51 52 42 42 51 51 -42 -2 callgsubr
          endchar
        </CharString>
        <CharString name="igrave">
          17 callgsubr
          519 -20 hstem
          -88 121 vstem
          -39 485 rmoveto
          -32 -90 -17 -85 -69 vvcurveto
          -105 callsubr
          83 38 116 38 104 hvcurveto
          255 700 59 callgsubr
          329 180 -11 callsubr
        </CharString>
        <CharString name="ij">
          -86 87 callgsubr
          hstemhm
          -88 121 17 66 -66 167 79 168 573 168 hintmask 1111111011000000
          -39 -81 callgsubr
          193 145 135 294 175 vhcurveto
          -193 -530 rlineto
          -262 -95 -71 -102 -21 callsubr
          14 hhcurveto
          hintmask 1111110111000000
          35 39 callsubr
          -58 -34 -40 -68 -37 8 -39 16 -29 hvcurveto
          -51 28 45 -22 69 hhcurveto
          70 callsubr
          -216 -595 -50 -89 rlineto
          -315 -179 -147 -155 -41 callgsubr
          -102 -48 59 92 83 38 116 38 104 hvcurveto
          255 700 59 callgsubr
          80 262 rmoveto
          -46 36 -36 47 82 callsubr
          -47 59 callsubr
          741 hmoveto
          -46 36 -36 46 48 38 37 46 46 137 callgsubr
        </CharString>
        <CharString name="imacron">
          17 callgsubr
          259 68 hstem
          -88 121 vstem
          -39 485 rmoveto
          -32 -90 -17 -85 -69 vvcurveto
          -105 callsubr
          83 38 116 38 104 hvcurveto
          255 700 59 callgsubr
          -189 239 rmoveto
          677 5 callgsubr
        </CharString>
        <CharString name="iogonek">
          -685 -495 -21 1701 -20 200 167 hstem
          -206 89 29 121 263 168 vstem
          -39 485 rmoveto
          -32 -90 -17 -85 -69 vvcurveto
          -135 65 -96 122 -23 vhcurveto
          -192 -100 -113 -127 -131 vvcurveto
          -97 59 -15 callsubr
          108 hvcurveto
          178 28 141 158 175 310 52 92 rcurveline
          -27 -6 callsubr
          83 38 116 38 104 hvcurveto
          255 700 59 callgsubr
          80 262 21 callgsubr
        </CharString>
        <CharString name="itilde">
          17 callgsubr
          215 104 92 106 hstem
          -88 121 vstem
          -39 485 rmoveto
          -32 -90 -17 -85 -69 vvcurveto
          -105 callsubr
          83 38 116 38 104 hvcurveto
          255 700 59 callgsubr
          497 vmoveto
          -3 callgsubr
        </CharString>
        <CharString name="j">
          61 callgsubr
          200 167 hstemhm
          -691 66 -66 167 820 168 hintmask 11111010
          -525 -23 callsubr
          -474 -1305 rlineto
          -263 -96 -71 -101 -21 callsubr
          15 hhcurveto
          hintmask 11110110
          34 39 callsubr
          -57 -35 -40 -68 -115 60 -63 106 hvcurveto
          821 1974 21 callgsubr
        </CharString>
        <CharString name="jcircumflex">
          61 callgsubr
          519 -20 hstemhm
          -691 66 -66 167 hintmask 11111000
          -525 -23 callsubr
          -474 -1305 rlineto
          -262 -96 -71 -102 -21 callsubr
          15 hhcurveto
          hintmask 11110100
          46 callsubr
          854 2183 -27 callsubr
          -92 89 callsubr
          1 vhcurveto
          46 157 159 177 -1 hhcurveto
          69 -51 callgsubr
          -30 101 -27 93 rrcurveto
          19 -5 -12 10 112 callgsubr
          -4 -24 -14 hvcurveto
          endchar
        </CharString>
        <CharString name="k">
          -57 -19 122 callgsubr
          541 123 callsubr
          hintmask 01110101
          -24 callgsubr
          hintmask 10111001
          0 callsubr
          hintmask 10110011
          2 callgsubr
          endchar
        </CharString>
        <CharString name="kcommaaccent">
          -57 -526 374 133 122 callgsubr
          89 191 -95 95 261 123 callsubr
          hintmask 1011110010100000
          -24 callgsubr
          hintmask 1101110100100000
          0 callsubr
          hintmask 1101110001100000
          2 callgsubr
          -201 -1281 rmoveto
          -9 callgsubr
          hintmask 1101101100100000
          5 -7 2 -17 callsubr
        </CharString>
        <CharString name="kgreenlandic">
          -20 -19 50 -10 -21 1185 -20 57 -20 hstemhm
          578 121 -91 91 -91 131 104 117 hintmask 01110101
          -217 hmoveto
          148 hlineto
          210 574 52 92 rlineto
          389 219 125 129 156 hhcurveto
          100 50 -54 -108 -92 -36 -77 -75 -68 hvcurveto
          -76 -68 -114 -59 -139 -39 rrcurveto
          -5 vlineto
          138 -5 67 -53 -100 vvcurveto
          hintmask 10111001
          -69 -30 -77 -83 vvcurveto
          -151 98 -95 156 191 154 140 361 204 81 callsubr
          -330 -187 -150 -140 -164 hhcurveto
          -100 -55 52 94 hvcurveto
          hintmask 01110011
          80 40 99 75 vvcurveto
          113 -89 66 -169 13 vhcurveto
          4 vlineto
          154 38 96 34 68 44 rrcurveto
          104 67 57 96 110 vvcurveto
          132 -84 74 -151 -185 -125 -111 -356 -209 vhcurveto
          157 430 59 callgsubr
          endchar
        </CharString>
        <CharString name="l">
          -29 callsubr
          447 1227 rlineto
          -149 hlineto
          endchar
        </CharString>
        <CharString name="lacute">
          -686 -19 50 1681 -20 341 -20 hstem
          -88 121 vstem
          379 1689 rmoveto
          6 2 8 3 9 4 -441 -1213 rcurveline
          -74 callgsubr
          -125 hlineto
          101 53 151 114 98 vvcurveto
          30 -15 26 -32 -56 -5 -3 callsubr
          endchar
        </CharString>
        <CharString name="lcaron">
          -328 -19 50 1220 357 104 -20 hstemhm
          -88 121 643 171 -94 94 hintmask 11111000
          -63 callgsubr
          165 -461 -40 callgsubr
          -56 -28 -45 -44 -39 24 -40 45 hvcurveto
          hintmask 11110100
          106 callgsubr
        </CharString>
        <CharString name="lcommaaccent">
          -686 126 callsubr
          1681 -20 hstemhm
          -88 121 57 191 -95 95 hintmask 11111000
          -63 callgsubr
          -401 -2238 -43 callsubr
          -46 -58 -33 -51 -45 -52 43 -37 46 hvcurveto
          hintmask 11110100
          5 -7 2 -17 callsubr
        </CharString>
        <CharString name="ldot">
          -685 -19 50 720 186 775 -20 hstem
          -88 121 383 186 vstem
          -63 callgsubr
          9 -869 rmoveto
          -51 40 -41 51 52 43 42 50 51 -43 43 -51 -51 -41 -43 -51 vhcurveto
          endchar
        </CharString>
        <CharString name="less">
          -488 272 -21 836 -20 hstem
          658 318 rmoveto
          -492 326 738 348 34 95 -924 -434 620 -402 rlineto
          endchar
        </CharString>
        <CharString name="lessequal">
          -158 67 callgsubr
          rlineto
          -665 hlineto
          821 424 43 115 -1045 -539 rlineto
          91 callsubr
        </CharString>
        <CharString name="logicalnot">
          -158 752 92 hstemhm
          951 132 vstemhm
          185 844 rmoveto
          -92 766 vlineto
          hintmask 11000000
          -248 132 340 vlineto
          endchar
        </CharString>
        <CharString name="lslash">
          -29 callsubr
          185 508 361 177 rlineto
          93 vlineto
          -320 -157 221 606 rlineto
          -149 hlineto
          -252 -694 -364 -178 rlineto
          -93 vlineto
          323 158 rlineto
          endchar
        </CharString>
        <CharString name="m">
          729 108 callgsubr
          -19 -20 hstemhm
          830 121 376 121 103 121 hintmask 01101110
          -217 hmoveto
          148 hlineto
          210 574 52 92 rlineto
          323 182 134 165 167 hhcurveto
          105 49 -66 -100 -88 -39 -113 -70 -194 hvcurveto
          -215 -593 rlineto
          148 hlineto
          210 577 50 89 rlineto
          317 179 137 171 167 hhcurveto
          106 48 -69 -89 hvcurveto
          -191 -224 -374 -210 vvcurveto
          hintmask 10101110
          -130 86 -110 167 206 154 164 337 190 81 callsubr
          -315 -175 -154 -155 -172 hhcurveto
          -107 -48 61 81 hvcurveto
          175 224 372 225 vvcurveto
          140 -86 119 -166 -190 -133 -157 -309 -179 vhcurveto
          25 86 8 54 51 vvcurveto
          164 -86 111 -163 -187 -131 -145 -303 -178 vhcurveto
          hintmask 01011110
          157 429 59 callgsubr
          endchar
        </CharString>
        <CharString name="macron">
          -621 1424 68 hstem
          51 1424 rmoveto
          677 5 callgsubr
        </CharString>
        <CharString name="minus">
          -610 594 93 hstem
          42 594 rmoveto
          732 93 -732 hlineto
          endchar
        </CharString>
        <CharString name="mu">
          -72 callsubr
        </CharString>
        <CharString name="multiply">
          -759 369 -21 584 -20 hstem
          107 349 rmoveto
          225 225 227 -226 66 66 -227 226 227 227 -66 65 -227 -226 -225 225 -65 -65 225 -226 -225 -225 rlineto
          endchar
        </CharString>
        <CharString name="n">
          -13 callsubr
          -19 -20 53 callsubr
          hintmask 01101100
          -82 callsubr
          hintmask 10101100
          -96 callsubr
          hintmask 01011100
          157 430 59 callgsubr
          endchar
        </CharString>
        <CharString name="nacute">
          -13 callsubr
          -19 -20 519 -20 53 callsubr
          hintmask 01101110
          -82 callsubr
          hintmask 10101110
          -96 callsubr
          hintmask 01011110
          157 430 59 callgsubr
          444 155 rmoveto
          90 -66 callsubr
          -5 -77 -108 -79 92 callgsubr
        </CharString>
        <CharString name="napostrophe">
          -13 callsubr
          -19 -20 673 -20 111 callsubr
          -24 172 -45 121 hintmask 01101101
          -82 callsubr
          hintmask 10101101
          -96 callsubr
          hintmask 01011010
          157 430 59 callgsubr
          487 308 rmoveto
          103 31 88 87 111 vvcurveto
          62 -27 54 -61 -56 -28 -46 -43 -40 24 -40 46 vhcurveto
          5 -7 2 -8 -9 vvcurveto
          -38 -41 -46 -54 -26 vhcurveto
          endchar
        </CharString>
        <CharString name="ncaron">
          -13 callsubr
          -19 -20 519 -20 53 callsubr
          hintmask 01101110
          -82 callsubr
          hintmask 10101110
          -96 callsubr
          hintmask 01011110
          157 430 59 callgsubr
          579 181 -18 callsubr
        </CharString>
        <CharString name="ncommaaccent">
          27 -526 374 133 -10 callgsubr
          -19 -20 hstemhm
          228 190 -94 94 206 121 103 121 hintmask 1011010110000000
          -82 callsubr
          hintmask 1101010110000000
          -96 callsubr
          hintmask 1010110110000000
          157 430 59 callgsubr
          -71 -1711 rmoveto
          137 137 99 152 93 -53 30 -46 -58 -33 -51 -45 -52 43 -37 46 hvcurveto
          hintmask 1101001110000000
          5 -7 2 -17 callsubr
        </CharString>
        <CharString name="ndotaccent">
          -13 callsubr
          -19 -20 200 167 111 callsubr
          -19 167 -45 121 hintmask 01101101
          -82 callsubr
          hintmask 10101101
          -96 callsubr
          hintmask 01011010
          157 430 59 callgsubr
          511 262 rmoveto
          -46 36 -36 46 82 callsubr
          18 callsubr
        </CharString>
        <CharString name="nine">
          -107 -165 54 562 57 868 49 hstem
          272 134 704 130 vstem
          66 -125 rmoveto
          -27 90 84 -13 80 hhcurveto
          592 328 694 450 265 -114 181 -285 -367 -202 -299 -269 -212 127 -194 304 83 103 15 81 97 hvcurveto
          -368 -130 -212 -290 -355 hhcurveto
          -64 -69 9 21 -75 hvcurveto
          762 1457 rmoveto
          196 71 -170 -186 -132 -36 -138 -69 -98 hvcurveto
          -99 -69 -94 -45 -121 hhcurveto
          -222 -93 153 176 243 179 296 258 hvcurveto
          endchar
        </CharString>
        <CharString name="notequal">
          -328 32 -21 350 93 280 93 356 -20 hstem
          178 734 rmoveto
          370 hlineto
          -102 -280 rlineto
          -372 hlineto
          -32 -93 rlineto
          370 hlineto
          -127 -350 rlineto
          117 hlineto
          127 350 rlineto
          359 hlineto
          32 93 rlineto
          -358 hlineto
          102 280 rlineto
          360 hlineto
          32 93 rlineto
          -358 hlineto
          130 356 107 callgsubr
          -130 -356 rlineto
          -371 hlineto
          endchar
        </CharString>
        <CharString name="ntilde">
          -13 callsubr
          -19 -20 215 104 92 106 53 callsubr
          hintmask 01101111
          -82 callsubr
          hintmask 10101111
          -96 callsubr
          hintmask 01011111
          157 430 59 callgsubr
          419 497 -44 callsubr
          -136 -45 -16 callgsubr
        </CharString>
        <CharString name="numbersign">
          -89 0 454 -93 93 428 93 -93 502 hstemhm
          hintmask 10100000
          231 882 rmoveto
          230 hlineto
          -156 -428 rlineto
          -231 hlineto
          hintmask 01100000
          -32 -93 rlineto
          229 hlineto
          hintmask 10100000
          -131 -361 rlineto
          116 hlineto
          hintmask 01100000
          132 361 rlineto
          318 hlineto
          hintmask 10100000
          -131 -361 rlineto
          117 hlineto
          hintmask 01100000
          131 361 rlineto
          250 hlineto
          32 93 rlineto
          -249 hlineto
          157 428 rlineto
          250 hlineto
          32 93 rlineto
          -249 hlineto
          hintmask 10010000
          149 409 rlineto
          -116 hlineto
          hintmask 10100000
          -149 -409 rlineto
          -319 hlineto
          hintmask 10010000
          149 409 107 callgsubr
          hintmask 10100000
          -149 -409 rlineto
          -230 hlineto
          314 -93 rmoveto
          318 hlineto
          -156 -428 rlineto
          -319 hlineto
          endchar
        </CharString>
        <CharString name="o">
          -203 -58 callgsubr
          hstem
          -39 152 757 75 vstem
          -107 callsubr
          endchar
        </CharString>
        <CharString name="o.calt">
          -189 -19 50 256 41 836 40 hstemhm
          -39 152 588 244 -75 75 hintmask 11110100
          -8 581 rmoveto
          -20 -75 -11 -79 -73 vvcurveto
          -233 114 -140 190 190 196 139 213 133 vhcurveto
          -28 38 50 -18 62 hhcurveto
          62 116 17 178 101 hvcurveto
          -92 callgsubr
          -128 -72 -100 -45 -75 hhcurveto
          -63 -35 30 44 -18 hvcurveto
          27 51 24 53 19 57 rrcurveto
          31 90 21 104 99 vvcurveto
          185 -74 163 -225 -278 -283 -265 -358 -93 vhcurveto
          288 -550 rmoveto
          -90 callsubr
          -78 -15 -84 -20 -74 hvcurveto
          hintmask 11111000
          -91 -32 -43 -77 -78 vvcurveto
          -34 7 -34 16 -30 vhcurveto
          -227 -120 -170 -148 -154 hhcurveto
          endchar
        </CharString>
        <CharString name="oacute">
          -203 -58 callgsubr
          480 -20 hstem
          -39 152 757 75 vstem
          -107 callsubr
          376 1309 rmoveto
          90 -50 callsubr
          -57 -51 -41 -19 rrcurveto
          endchar
        </CharString>
        <CharString name="obreve">
          -203 -58 callgsubr
          206 41 148 -20 hstem
          -39 152 757 75 vstem
          -107 callsubr
          688 1568 37 callsubr
          -43 hlineto
          -84 3 73 -105 136 hhcurveto
          137 78 106 83 4 hvcurveto
          endchar
        </CharString>
        <CharString name="ocircumflex">
          -203 -58 callgsubr
          480 -20 hstem
          -39 152 757 75 vstem
          -107 callsubr
          516 1625 28 callgsubr
          -92 -55 callgsubr
          -6 -12 10 -24 hhcurveto
          -16 137 callsubr
        </CharString>
        <CharString name="odieresis">
          -203 -58 callgsubr
          161 167 hstemhm
          -39 152 451 149 157 75 -75 158 hintmask 11111100
          -107 callsubr
          284 1416 rmoveto
          -46 32 -36 41 -48 callsubr
          vhcurveto
          hintmask 11111010
          116 callgsubr
          hvcurveto
          endchar
        </CharString>
        <CharString name="odotbelow">
          -203 41 callsubr
          -69 callsubr
          hstemhm
          -39 152 -31 186 602 75 hintmask 11110100
          -107 callsubr
          hintmask 11101100
          -198 -277 rmoveto
          -51 41 -41 51 52 42 42 51 51 -42 -2 callgsubr
          endchar
        </CharString>
        <CharString name="oe">
          438 -58 callgsubr
          hstemhm
          -39 152 658 157 -58 58 639 82 hintmask 11110100
          1148 -19 rmoveto
          296 230 211 290 165 hvcurveto
          -92 callgsubr
          -229 -130 -230 -241 -282 hhcurveto
          -167 -75 77 185 120 23 119 39 108 hvcurveto
          400 259 175 210 112 -82 67 -133 -192 -196 -139 -213 -129 hvcurveto
          194 -31 158 -240 -328 -357 -386 -464 -233 114 -140 190 195 184 164 231 127 vhcurveto
          -19 vlineto
          -248 137 -128 240 vhcurveto
          315 1183 rmoveto
          57 47 -25 -71 -145 -119 -126 -122 -57 hvcurveto
          -78 -37 -101 -24 -145 -3 rrcurveto
          279 103 189 209 169 hhcurveto
          -1183 -1133 rmoveto
          -112 -55 78 158 93 19 120 33 113 hvcurveto
          338 98 212 233 207 hhcurveto
          hintmask 11101100
          35 callgsubr
        </CharString>
        <CharString name="ogonek">
          -947 -477 -21 522 -20 hstem
          -185 90 vstem
          159 24 rmoveto
          -215 -103 -129 -135 -140 vvcurveto
          -97 59 -47 123 69 84 callsubr
          18 rlineto
          -28 -71 -54 84 callgsubr
          71 129 120 134 226 109 hvcurveto
          endchar
        </CharString>
        <CharString name="ograve">
          -203 -58 callgsubr
          480 -20 hstem
          -39 152 757 75 vstem
          -107 callsubr
          610 1334 -11 callgsubr
        </CharString>
        <CharString name="ohungarumlaut">
          -203 -58 callgsubr
          480 -20 hstem
          -39 152 757 75 vstem
          -107 callsubr
          238 1309 rmoveto
          89 -50 callsubr
          -56 -51 -42 -19 rrcurveto
          309 -25 rmoveto
          90 -68 callsubr
          -33 -56 -5 -77 -108 -79 vhcurveto
          -47 -64 -57 88 callgsubr
          endchar
        </CharString>
        <CharString name="omacron">
          -203 -58 callgsubr
          220 68 hstem
          -39 152 757 75 vstem
          -107 callsubr
          163 1393 rmoveto
          676 5 callgsubr
        </CharString>
        <CharString name="one">
          -334 21 -21 1424 -20 hstem
          517 hmoveto
          514 1424 rlineto
          -132 hlineto
          -327 -187 -297 -142 -191 hhcurveto
          -33 vlineto
          157 227 82 207 183 hvcurveto
          -428 -1211 rlineto
          endchar
        </CharString>
        <CharString name="onehalf">
          56 callsubr
          130 792 40 608 -20 hstemhm
          1353 435 0 130 hintmask 11110100
          235 -34 callsubr
          -1107 -28 callsubr
          1710 -333 rmoveto
          -575 hlineto
          63 119 callsubr
          295 vvcurveto
          116 -89 90 -187 63 callsubr
          hintmask 11111000
          26 callsubr
          endchar
        </CharString>
        <CharString name="oneinferior">
          -753 21 -21 962 -20 hstem
          245 hmoveto
          23 callsubr
        </CharString>
        <CharString name="onequarter">
          56 callsubr
          281 -46 46 1289 -20 hstemhm
          hintmask 10110000
          244 -34 callsubr
          -1116 -28 callsubr
          1017 -228 rmoveto
          380 hlineto
          hintmask 11010000
          -86 -235 rlineto
          135 hlineto
          hintmask 10110000
          85 235 rlineto
          149 46 -133 hlineto
          249 681 107 callgsubr
          -671 -681 rlineto
          54 hmoveto
          552 554 -201 -554 rlineto
          endchar
        </CharString>
        <CharString name="onesuperior">
          -753 484 -21 962 -20 hstem
          245 463 rmoveto
          23 callsubr
        </CharString>
        <CharString name="onethird">
          56 callsubr
          44 878 40 608 -20 hstemhm
          1190 135 callsubr
          123 hintmask 1111110100000000
          227 -186 rmoveto
          116 hlineto
          1149 1756 107 callgsubr
          -1099 -28 callsubr
          1086 -125 rmoveto
          -26 -51 -15 -51 -46 vvcurveto
          -108 76 -82 174 216 158 130 175 134 -93 60 -91 26 vhcurveto
          hintmask 1111110010000000
          165 52 72 95 87 vvcurveto
          107 -107 25 callsubr
          hintmask 1111111000000000
          104 45 callgsubr
        </CharString>
        <CharString name="oogonek">
          -203 -495 -21 1680 40 hstemhm
          -105 90 -24 152 757 75 hintmask 11011000
          -8 581 rmoveto
          -20 -75 -11 -79 -73 vvcurveto
          -206 89 -133 151 -28 vhcurveto
          hintmask 11101000
          -193 -100 -113 -127 -131 vvcurveto
          -97 60 -15 callsubr
          108 hvcurveto
          232 34 231 233 106 310 rrcurveto
          31 90 21 104 99 vvcurveto
          185 -74 163 -225 -278 -283 -265 -358 -93 vhcurveto
          288 -550 rmoveto
          hintmask 11011000
          -90 callsubr
          -26 callsubr
          hvcurveto
          -62 callsubr
          endchar
        </CharString>
        <CharString name="ordfeminine">
          -684 598 52 628 -20 hstemhm
          42 90 0 400 -99 85 hintmask 11101000
          622 628 rmoveto
          -71 2 -33 30 53 vvcurveto
          43 22 65 20 57 vhcurveto
          140 387 rlineto
          -98 hlineto
          -32 -85 rlineto
          73 -8 -56 25 -58 hhcurveto
          -214 -192 -233 -271 -100 57 -76 95 78 88 67 122 76 hvcurveto
          -2 -16 -1 -15 -13 vvcurveto
          -85 61 -57 124 -3 vhcurveto
          -145 340 rmoveto
          -213 -94 -98 -75 -68 hhcurveto
          -45 -36 46 52 254 206 239 119 hvcurveto
          hintmask 11010000
          30 45 -10 -79 -40 -6 -55 -53 -119 hvcurveto
          endchar
        </CharString>
        <CharString name="ordmasculine">
          -746 604 52 582 43 hstem
          42 101 428 67 vstem
          248 604 rmoveto
          224 166 260 199 121 -62 97 -148 -233 -153 -252 -198 -125 63 -102 143 hvcurveto
          17 52 rmoveto
          -79 -43 60 82 203 153 237 152 88 35 -64 -84 -173 -150 -261 -156 hvcurveto
          endchar
        </CharString>
        <CharString name="oslash">
          -203 -58 callgsubr
          hstem
          870 75 vstem
          -8 581 rmoveto
          -20 -75 -11 -79 -73 vvcurveto
          -77 13 -67 23 -54 vhcurveto
          -161 -175 rlineto
          117 hlineto
          90 98 rlineto
          -63 51 76 -35 95 hhcurveto
          252 262 246 336 114 hvcurveto
          31 90 21 104 99 vvcurveto
          62 -8 60 -20 52 vhcurveto
          160 174 107 callgsubr
          -87 -96 rlineto
          59 -47 -73 37 -107 hhcurveto
          -278 -283 -265 -358 -93 hvcurveto
          288 -550 rmoveto
          -86 -51 45 90 -21 hvcurveto
          746 810 rlineto
          1 -16 1 -17 -16 vvcurveto
          -26 callsubr
          vhcurveto
          -62 callsubr
          -115 562 rmoveto
          338 98 212 233 207 hhcurveto
          83 49 -35 -54 28 hvcurveto
          -729 -793 2 91 19 112 31 108 rlinecurve
          endchar
        </CharString>
        <CharString name="oslashacute">
          -203 -58 callgsubr
          480 -20 hstem
          -39 152 757 75 vstem
          -107 callsubr
          376 1309 rmoveto
          90 -50 callsubr
          -57 -51 -41 -19 rrcurveto
          endchar
        </CharString>
        <CharString name="otilde">
          -203 -58 callgsubr
          176 104 92 106 hstem
          -39 152 757 75 vstem
          -107 callsubr
          351 1651 -56 callsubr
          -15 -65 -5 callsubr
        </CharString>
        <CharString name="p">
          -189 -506 -21 508 40 1133 50 14 -20 hstemhm
          821 137 hintmask 11101000
          -408 -527 rmoveto
          148 hlineto
          263 723 rlineto
          -153 4 55 -62 136 hhcurveto
          250 321 205 415 136 hvcurveto
          34 105 19 111 89 vvcurveto
          169 -67 129 -164 -173 -169 -143 -284 -170 vhcurveto
          hintmask 11011000
          161 441 59 callgsubr
          hintmask 11101000
          465 -64 rmoveto
          87 41 -64 -102 -94 -35 -150 -58 -153 hvcurveto
          -445 -170 -249 -125 -128 hhcurveto
          -98 -43 72 94 274 369 693 284 hvcurveto
          endchar
        </CharString>
</ttFont>
